<?xml version="1.0" encoding="utf-8"?>
<!-- Generator: Adobe Illustrator 24.0.1, SVG Export Plug-In . SVG Version: 6.00 Build 0)  -->
<svg version="1.1" id="图层_1" xmlns="http://www.w3.org/2000/svg" xmlns:xlink="http://www.w3.org/1999/xlink" x="0px" y="0px"
	 viewBox="0 0 1000 512" style="enable-background:new 0 0 1000 512;" xml:space="preserve">
<style type="text/css">
	.st0{fill:#FFFFFF;stroke:#122672;stroke-width:2;}
	.st1{fill:#122672;}
	.st2{fill:#FFFFFF;}
	.st3{fill:none;stroke:#122672;stroke-width:2;}
	.st4{fill:#122672;stroke:#122672;stroke-miterlimit:10;}
</style>
<path class="st0" d="M4,113h232c1.7,0,3,1.3,3,3v272c0,1.7-1.3,3-3,3H4c-1.7,0-3-1.3-3-3V116C1,114.3,2.3,113,4,113z"/>
<path class="st0" d="M34,143h172c1.7,0,3,1.3,3,3v72c0,1.7-1.3,3-3,3H34c-1.7,0-3-1.3-3-3v-72C31,144.3,32.3,143,34,143z"/>
<path class="st0" d="M34,283h172c1.7,0,3,1.3,3,3v72c0,1.7-1.3,3-3,3H34c-1.7,0-3-1.3-3-3v-72C31,284.3,32.3,283,34,283z"/>
<path class="st0" d="M764,113h232c1.7,0,3,1.3,3,3v272c0,1.7-1.3,3-3,3H764c-1.7,0-3-1.3-3-3V116C761,114.3,762.3,113,764,113z"/>
<path class="st0" d="M244,453h132c1.7,0,3,1.3,3,3v52c0,1.7-1.3,3-3,3H244c-1.7,0-3-1.3-3-3v-52C241,454.3,242.3,453,244,453z"/>
<path class="st0" d="M624,453h132c1.7,0,3,1.3,3,3v52c0,1.7-1.3,3-3,3H624c-1.7,0-3-1.3-3-3v-52C621,454.3,622.3,453,624,453z"/>
<path class="st0" d="M434,453h132c1.7,0,3,1.3,3,3v52c0,1.7-1.3,3-3,3H434c-1.7,0-3-1.3-3-3v-52C431,454.3,432.3,453,434,453z"/>
<path class="st0" d="M364,33h272c1.7,0,3,1.3,3,3v352c0,1.7-1.3,3-3,3H364c-1.7,0-3-1.3-3-3V36C361,34.3,362.3,33,364,33z"/>
<path class="st1" d="M55.4,80.9L61,94.9l5.6-13.9h2.9V98h-2.3v-6.6l0.2-7.2L61.8,98h-1.7l-5.6-13.8l0.2,7.1V98h-2.3V80.9H55.4z
	 M80.9,98c-0.1-0.3-0.2-0.7-0.3-1.3c-1,1-2.2,1.6-3.6,1.6c-1.3,0-2.3-0.4-3.1-1.1c-0.8-0.7-1.2-1.6-1.2-2.7c0-1.3,0.5-2.3,1.5-3.1
	c1-0.7,2.4-1.1,4.2-1.1h2.1v-1c0-0.8-0.2-1.4-0.7-1.8c-0.5-0.5-1.1-0.7-2-0.7c-0.8,0-1.4,0.2-1.9,0.6c-0.5,0.4-0.8,0.9-0.8,1.4H73
	c0-0.6,0.2-1.2,0.7-1.8c0.5-0.6,1.1-1.1,1.8-1.4c0.8-0.3,1.6-0.5,2.5-0.5c1.5,0,2.6,0.4,3.4,1.1c0.8,0.7,1.3,1.7,1.3,3V95
	c0,1.2,0.1,2.1,0.4,2.8V98H80.9z M77.3,96.3c0.7,0,1.3-0.2,1.9-0.5c0.6-0.4,1.1-0.8,1.3-1.4v-2.6h-1.7c-2.7,0-4,0.8-4,2.3
	c0,0.7,0.2,1.2,0.7,1.6C76.1,96.2,76.6,96.3,77.3,96.3z M89.7,92.1l-1.4,1.4V98h-2.2V80h2.2v10.9l1.2-1.4l3.9-4.2h2.6l-4.9,5.3
	l5.5,7.4h-2.5L89.7,92.1z M103.4,98.2c-1.7,0-3.1-0.6-4.2-1.7c-1.1-1.1-1.6-2.6-1.6-4.5v-0.4c0-1.3,0.2-2.4,0.7-3.4
	c0.5-1,1.2-1.8,2-2.3c0.9-0.6,1.8-0.8,2.8-0.8c1.6,0,2.9,0.5,3.8,1.6c0.9,1.1,1.4,2.6,1.4,4.7v0.9h-8.6c0,1.3,0.4,2.3,1.1,3
	c0.7,0.8,1.6,1.1,2.7,1.1c0.8,0,1.4-0.2,1.9-0.5c0.5-0.3,1-0.7,1.4-1.2l1.3,1C107.1,97.4,105.5,98.2,103.4,98.2z M103.1,86.9
	c-0.9,0-1.6,0.3-2.2,1c-0.6,0.6-1,1.5-1.1,2.7h6.4v-0.2c-0.1-1.1-0.4-2-0.9-2.6C104.7,87.2,104,86.9,103.1,86.9z M117,87.3
	c-0.3-0.1-0.7-0.1-1.1-0.1c-1.4,0-2.4,0.6-2.9,1.8v9h-2.2V85.3h2.1l0,1.5c0.7-1.1,1.7-1.7,3-1.7c0.4,0,0.7,0.1,1,0.2V87.3z
	 M128.9,92.6l0.3,2.3l0.5-2l3.4-11.9h1.9l3.3,11.9l0.5,2.1l0.4-2.3l2.6-11.7h2.3L139.9,98h-2.1l-3.5-12.4l-0.3-1.3l-0.3,1.3
	L130.2,98h-2.1L124,80.9h2.3L128.9,92.6z M153.6,98c-0.1-0.3-0.2-0.7-0.3-1.3c-1,1-2.2,1.6-3.6,1.6c-1.3,0-2.3-0.4-3.1-1.1
	c-0.8-0.7-1.2-1.6-1.2-2.7c0-1.3,0.5-2.3,1.5-3.1c1-0.7,2.4-1.1,4.2-1.1h2.1v-1c0-0.8-0.2-1.4-0.7-1.8c-0.5-0.5-1.1-0.7-2-0.7
	c-0.8,0-1.4,0.2-1.9,0.6c-0.5,0.4-0.8,0.9-0.8,1.4h-2.2c0-0.6,0.2-1.2,0.7-1.8c0.5-0.6,1.1-1.1,1.8-1.4c0.8-0.3,1.6-0.5,2.5-0.5
	c1.5,0,2.6,0.4,3.4,1.1c0.8,0.7,1.3,1.7,1.3,3V95c0,1.2,0.1,2.1,0.4,2.8V98H153.6z M150,96.3c0.7,0,1.3-0.2,1.9-0.5
	c0.6-0.4,1.1-0.8,1.3-1.4v-2.6h-1.7c-2.7,0-4,0.8-4,2.3c0,0.7,0.2,1.2,0.7,1.6C148.8,96.2,149.3,96.3,150,96.3z M161.2,98h-2.2V80
	h2.2V98z M167.1,98h-2.2V80h2.2V98z M175.8,98.2c-1.7,0-3.1-0.6-4.2-1.7c-1.1-1.1-1.6-2.6-1.6-4.5v-0.4c0-1.3,0.2-2.4,0.7-3.4
	c0.5-1,1.2-1.8,2-2.3c0.9-0.6,1.8-0.8,2.8-0.8c1.6,0,2.9,0.5,3.8,1.6c0.9,1.1,1.4,2.6,1.4,4.7v0.9h-8.6c0,1.3,0.4,2.3,1.1,3
	c0.7,0.8,1.6,1.1,2.7,1.1c0.8,0,1.4-0.2,1.9-0.5c0.5-0.3,1-0.7,1.4-1.2l1.3,1C179.5,97.4,177.9,98.2,175.8,98.2z M175.5,86.9
	c-0.9,0-1.6,0.3-2.2,1c-0.6,0.6-1,1.5-1.1,2.7h6.4v-0.2c-0.1-1.1-0.4-2-0.9-2.6C177.2,87.2,176.4,86.9,175.5,86.9z M186.2,82.2v3.1
	h2.4V87h-2.4v7.9c0,0.5,0.1,0.9,0.3,1.1c0.2,0.3,0.6,0.4,1.1,0.4c0.3,0,0.6,0,1-0.1V98c-0.6,0.2-1.1,0.2-1.7,0.2
	c-1,0-1.7-0.3-2.2-0.9c-0.5-0.6-0.7-1.4-0.7-2.5V87h-2.3v-1.7h2.3v-3.1H186.2z"/>
<path class="st1" d="M53.4,179.1v3.8h5.2v2.4h-5.2v4.1h5.8v2.5h-8.9v-15.4h8.9v2.5H53.4z M69.9,192l-3.4-6h-1.5v6H62v-15.4h5.8
	c1.2,0,2.2,0.2,3,0.6c0.8,0.4,1.5,1,1.9,1.7c0.4,0.7,0.6,1.5,0.6,2.4c0,1-0.3,1.9-0.9,2.8c-0.6,0.8-1.5,1.4-2.6,1.7l3.7,6.2H69.9z
	 M65.1,183.7h2.6c0.8,0,1.5-0.2,1.9-0.6c0.4-0.4,0.6-1,0.6-1.7c0-0.7-0.2-1.2-0.6-1.6c-0.4-0.4-1-0.6-1.9-0.6h-2.6V183.7z
	 M75.3,184.3c0-1.5,0.3-2.9,1-4c0.7-1.2,1.6-2.1,2.8-2.8c1.2-0.7,2.5-1,4-1c1.7,0,3.2,0.4,4.5,1.3c1.3,0.9,2.2,2.1,2.7,3.7h-3.5
	c-0.4-0.7-0.9-1.3-1.5-1.6c-0.6-0.4-1.4-0.6-2.2-0.6c-0.9,0-1.7,0.2-2.4,0.6c-0.7,0.4-1.2,1-1.6,1.8c-0.4,0.8-0.6,1.7-0.6,2.7
	c0,1,0.2,1.9,0.6,2.7c0.4,0.8,0.9,1.4,1.6,1.8c0.7,0.4,1.5,0.6,2.4,0.6c0.8,0,1.6-0.2,2.2-0.6c0.6-0.4,1.1-0.9,1.5-1.7h3.5
	c-0.5,1.6-1.4,2.8-2.7,3.7c-1.3,0.9-2.8,1.3-4.5,1.3c-1.5,0-2.8-0.3-4-1c-1.2-0.7-2.1-1.6-2.8-2.8C75.7,187.2,75.3,185.8,75.3,184.3
	z M93.6,188.5c1.4-1.2,2.5-2.1,3.4-2.9c0.8-0.8,1.5-1.6,2.1-2.5c0.6-0.9,0.8-1.7,0.8-2.5c0-0.7-0.2-1.3-0.5-1.8
	c-0.4-0.4-0.9-0.6-1.6-0.6c-0.7,0-1.3,0.2-1.7,0.7c-0.4,0.5-0.6,1.2-0.6,2h-3c0.1-1.8,0.6-3.1,1.6-4c1-0.9,2.3-1.4,3.8-1.4
	c1.7,0,3,0.4,3.8,1.3c0.9,0.9,1.3,2,1.3,3.5c0,1.1-0.3,2.2-0.9,3.3s-1.3,2-2.1,2.7c-0.8,0.8-1.8,1.7-3.1,2.8h6.5v2.6H92.4v-2.3
	L93.6,188.5z M105.2,183.8c0-2.5,0.5-4.5,1.4-6c0.9-1.4,2.4-2.2,4.6-2.2c2.1,0,3.6,0.7,4.6,2.2c0.9,1.4,1.4,3.4,1.4,6
	c0,2.6-0.5,4.6-1.4,6c-0.9,1.5-2.4,2.2-4.6,2.2c-2.1,0-3.7-0.7-4.6-2.2C105.7,188.3,105.2,186.3,105.2,183.8z M114.1,183.8
	c0-1.1-0.1-2-0.2-2.7c-0.1-0.7-0.4-1.4-0.8-1.8c-0.4-0.5-1-0.7-1.8-0.7c-0.8,0-1.4,0.2-1.9,0.7c-0.4,0.5-0.7,1.1-0.8,1.8
	c-0.1,0.7-0.2,1.6-0.2,2.7c0,1.1,0.1,2.1,0.2,2.8c0.1,0.7,0.4,1.4,0.8,1.8c0.4,0.5,1,0.7,1.9,0.7c0.8,0,1.4-0.2,1.9-0.7
	c0.4-0.5,0.7-1.1,0.8-1.8C114,185.8,114.1,184.9,114.1,183.8z M135.5,176.6v2.5h-4.1V192h-3.1v-12.9h-4.1v-2.5H135.5z M143.2,192.2
	c-1.2,0-2.2-0.3-3.2-0.8c-0.9-0.5-1.7-1.3-2.2-2.2c-0.5-1-0.8-2.1-0.8-3.3c0-1.2,0.3-2.3,0.8-3.3c0.6-1,1.3-1.7,2.3-2.2
	c1-0.5,2-0.8,3.2-0.8c1.2,0,2.2,0.3,3.2,0.8c1,0.5,1.7,1.2,2.2,2.2c0.6,1,0.8,2.1,0.8,3.3c0,1.2-0.3,2.3-0.9,3.3
	c-0.6,1-1.3,1.7-2.3,2.2C145.4,191.9,144.4,192.2,143.2,192.2z M143.2,189.5c0.6,0,1.1-0.1,1.6-0.4c0.5-0.3,0.9-0.7,1.2-1.2
	c0.3-0.5,0.4-1.2,0.4-2c0-1.2-0.3-2-0.9-2.7c-0.6-0.6-1.3-0.9-2.2-0.9c-0.9,0-1.6,0.3-2.2,0.9c-0.6,0.6-0.9,1.5-0.9,2.7
	c0,1.2,0.3,2.1,0.9,2.7C141.6,189.2,142.3,189.5,143.2,189.5z M159,192l-4.1-5.2v5.2h-3.1v-16.3h3.1v9.3l4.1-5.2h4l-5.4,6.1l5.4,6.1
	H159z M176,185.6c0,0.4,0,0.8-0.1,1.2H167c0.1,0.9,0.4,1.6,0.9,2.1c0.5,0.5,1.2,0.7,2,0.7c1.1,0,2-0.5,2.4-1.5h3.3
	c-0.4,1.2-1,2.1-2,2.9c-1,0.7-2.2,1.1-3.7,1.1c-1.2,0-2.2-0.3-3.2-0.8c-0.9-0.5-1.6-1.3-2.2-2.2c-0.5-1-0.8-2.1-0.8-3.3
	c0-1.3,0.3-2.4,0.8-3.3s1.2-1.7,2.2-2.2c0.9-0.5,2-0.8,3.2-0.8c1.2,0,2.2,0.2,3.1,0.7c0.9,0.5,1.6,1.2,2.1,2.1
	C175.7,183.4,176,184.5,176,185.6z M172.8,184.8c0-0.8-0.3-1.4-0.9-1.9c-0.6-0.5-1.2-0.7-2-0.7c-0.8,0-1.4,0.2-1.9,0.7
	c-0.5,0.5-0.8,1.1-0.9,1.9H172.8z M185,179.6c1.5,0,2.6,0.5,3.5,1.4c0.9,0.9,1.3,2.2,1.3,3.8v7.1h-3.1v-6.7c0-1-0.2-1.7-0.7-2.2
	c-0.5-0.5-1.1-0.8-2-0.8c-0.8,0-1.5,0.3-2,0.8c-0.5,0.5-0.7,1.3-0.7,2.2v6.7h-3.1v-12.2h3.1v1.5c0.4-0.5,0.9-0.9,1.6-1.2
	C183.5,179.8,184.2,179.6,185,179.6z"/>
<path class="st1" d="M98.5,328.7v2.5h-4.1v12.9h-3.1v-12.9h-4.1v-2.5H98.5z M106.1,344.3c-1.2,0-2.2-0.3-3.2-0.8
	c-0.9-0.5-1.7-1.3-2.2-2.2c-0.5-1-0.8-2.1-0.8-3.3s0.3-2.3,0.8-3.3c0.6-1,1.3-1.7,2.3-2.2c1-0.5,2-0.8,3.2-0.8
	c1.2,0,2.2,0.3,3.2,0.8c1,0.5,1.7,1.2,2.2,2.2c0.6,1,0.8,2.1,0.8,3.3s-0.3,2.3-0.9,3.3c-0.6,1-1.3,1.7-2.3,2.2
	C108.4,344,107.3,344.3,106.1,344.3z M106.1,341.6c0.6,0,1.1-0.1,1.6-0.4c0.5-0.3,0.9-0.7,1.2-1.2c0.3-0.5,0.4-1.2,0.4-2
	c0-1.2-0.3-2-0.9-2.7c-0.6-0.6-1.3-0.9-2.2-0.9s-1.6,0.3-2.2,0.9c-0.6,0.6-0.9,1.5-0.9,2.7s0.3,2.1,0.9,2.7
	C104.5,341.3,105.3,341.6,106.1,341.6z M122,344.1l-4.1-5.2v5.2h-3.1v-16.3h3.1v9.3l4.1-5.2h4l-5.4,6.1l5.4,6.1H122z M138.9,337.7
	c0,0.4,0,0.8-0.1,1.2h-8.9c0.1,0.9,0.4,1.6,0.9,2.1c0.5,0.5,1.2,0.7,2,0.7c1.1,0,2-0.5,2.4-1.5h3.3c-0.4,1.2-1,2.1-2,2.9
	c-1,0.7-2.2,1.1-3.7,1.1c-1.2,0-2.2-0.3-3.2-0.8c-0.9-0.5-1.6-1.3-2.2-2.2c-0.5-1-0.8-2.1-0.8-3.3c0-1.3,0.3-2.4,0.8-3.3
	c0.5-1,1.2-1.7,2.2-2.2c0.9-0.5,2-0.8,3.2-0.8c1.2,0,2.2,0.2,3.1,0.7c0.9,0.5,1.6,1.2,2.1,2.1C138.7,335.5,138.9,336.5,138.9,337.7z
	 M135.7,336.8c0-0.8-0.3-1.4-0.9-1.9c-0.6-0.5-1.2-0.7-2-0.7c-0.8,0-1.4,0.2-1.9,0.7c-0.5,0.5-0.8,1.1-0.9,1.9H135.7z M147.9,331.7
	c1.5,0,2.6,0.5,3.5,1.4c0.9,0.9,1.3,2.2,1.3,3.8v7.1h-3.1v-6.7c0-1-0.2-1.7-0.7-2.2c-0.5-0.5-1.1-0.8-2-0.8c-0.9,0-1.5,0.3-2,0.8
	c-0.5,0.5-0.7,1.3-0.7,2.2v6.7h-3.1v-12.2h3.1v1.5c0.4-0.5,0.9-0.9,1.6-1.2C146.5,331.9,147.2,331.7,147.9,331.7z"/>
<path class="st0" d="M794,143h172c1.7,0,3,1.3,3,3v72c0,1.7-1.3,3-3,3H794c-1.7,0-3-1.3-3-3v-72C791,144.3,792.3,143,794,143z"/>
<path class="st1" d="M828.3,82.8h-5.5V98h-2.2V82.8h-5.5v-1.9h13.2V82.8z M837,98c-0.1-0.3-0.2-0.7-0.3-1.3c-1,1-2.2,1.6-3.6,1.6
	c-1.3,0-2.3-0.4-3.1-1.1c-0.8-0.7-1.2-1.6-1.2-2.7c0-1.3,0.5-2.3,1.5-3.1c1-0.7,2.4-1.1,4.2-1.1h2.1v-1c0-0.8-0.2-1.4-0.7-1.8
	c-0.5-0.5-1.1-0.7-2-0.7c-0.8,0-1.4,0.2-1.9,0.6c-0.5,0.4-0.8,0.9-0.8,1.4H829c0-0.6,0.2-1.2,0.7-1.8c0.5-0.6,1.1-1.1,1.8-1.4
	c0.8-0.3,1.6-0.5,2.5-0.5c1.5,0,2.6,0.4,3.4,1.1c0.8,0.7,1.3,1.7,1.3,3V95c0,1.2,0.1,2.1,0.4,2.8V98H837z M833.4,96.3
	c0.7,0,1.3-0.2,1.9-0.5c0.6-0.4,1.1-0.8,1.3-1.4v-2.6h-1.7c-2.7,0-4,0.8-4,2.3c0,0.7,0.2,1.2,0.7,1.6S832.6,96.3,833.4,96.3z
	 M845.7,92.1l-1.4,1.4V98h-2.2V80h2.2v10.9l1.2-1.4l4-4.2h2.6l-4.9,5.3l5.5,7.4h-2.5L845.7,92.1z M859.4,98.2
	c-1.7,0-3.1-0.6-4.2-1.7c-1.1-1.1-1.6-2.6-1.6-4.5v-0.4c0-1.3,0.2-2.4,0.7-3.4c0.5-1,1.2-1.8,2-2.3c0.9-0.6,1.8-0.8,2.8-0.8
	c1.6,0,2.9,0.5,3.8,1.6c0.9,1.1,1.4,2.6,1.4,4.7v0.9h-8.6c0,1.3,0.4,2.3,1.1,3c0.7,0.8,1.6,1.1,2.7,1.1c0.8,0,1.4-0.2,1.9-0.5
	c0.5-0.3,1-0.7,1.4-1.2l1.3,1C863.1,97.4,861.5,98.2,859.4,98.2z M859.1,86.9c-0.9,0-1.6,0.3-2.2,1c-0.6,0.6-1,1.5-1.1,2.7h6.4v-0.2
	c-0.1-1.1-0.4-2-0.9-2.6C860.7,87.2,860,86.9,859.1,86.9z M873,87.3c-0.3-0.1-0.7-0.1-1.1-0.1c-1.4,0-2.4,0.6-2.9,1.8v9h-2.2V85.3
	h2.1l0,1.5c0.7-1.1,1.7-1.7,3-1.7c0.4,0,0.7,0.1,1,0.2V87.3z M884.9,92.6l0.3,2.3l0.5-2l3.4-11.9h1.9l3.3,11.9l0.5,2.1l0.4-2.3
	l2.6-11.7h2.3L895.9,98h-2.1l-3.5-12.4l-0.3-1.3l-0.3,1.3L886.2,98h-2.1L880,80.9h2.3L884.9,92.6z M909.7,98
	c-0.1-0.3-0.2-0.7-0.3-1.3c-1,1-2.2,1.6-3.6,1.6c-1.3,0-2.3-0.4-3.1-1.1c-0.8-0.7-1.2-1.6-1.2-2.7c0-1.3,0.5-2.3,1.5-3.1
	c1-0.7,2.4-1.1,4.2-1.1h2.1v-1c0-0.8-0.2-1.4-0.7-1.8c-0.5-0.5-1.1-0.7-2-0.7c-0.8,0-1.4,0.2-1.9,0.6c-0.5,0.4-0.8,0.9-0.8,1.4h-2.2
	c0-0.6,0.2-1.2,0.7-1.8c0.5-0.6,1.1-1.1,1.8-1.4c0.8-0.3,1.6-0.5,2.5-0.5c1.5,0,2.6,0.4,3.4,1.1c0.8,0.7,1.3,1.7,1.3,3V95
	c0,1.2,0.1,2.1,0.4,2.8V98H909.7z M906.1,96.3c0.7,0,1.3-0.2,1.9-0.5c0.6-0.4,1.1-0.8,1.3-1.4v-2.6h-1.7c-2.7,0-4,0.8-4,2.3
	c0,0.7,0.2,1.2,0.7,1.6C904.8,96.2,905.4,96.3,906.1,96.3z M917.2,98h-2.2V80h2.2V98z M923.1,98h-2.2V80h2.2V98z M931.8,98.2
	c-1.7,0-3.1-0.6-4.2-1.7c-1.1-1.1-1.6-2.6-1.6-4.5v-0.4c0-1.3,0.2-2.4,0.7-3.4c0.5-1,1.2-1.8,2-2.3c0.9-0.6,1.8-0.8,2.8-0.8
	c1.6,0,2.9,0.5,3.8,1.6c0.9,1.1,1.4,2.6,1.4,4.7v0.9h-8.6c0,1.3,0.4,2.3,1.1,3c0.7,0.8,1.6,1.1,2.7,1.1c0.8,0,1.4-0.2,1.9-0.5
	s1-0.7,1.4-1.2l1.3,1C935.5,97.4,933.9,98.2,931.8,98.2z M931.6,86.9c-0.9,0-1.6,0.3-2.2,1c-0.6,0.6-1,1.5-1.1,2.7h6.4v-0.2
	c-0.1-1.1-0.4-2-0.9-2.6C933.2,87.2,932.5,86.9,931.6,86.9z M942.2,82.2v3.1h2.4V87h-2.4v7.9c0,0.5,0.1,0.9,0.3,1.1
	c0.2,0.3,0.6,0.4,1.1,0.4c0.3,0,0.6,0,1-0.1V98c-0.6,0.2-1.1,0.2-1.7,0.2c-1,0-1.7-0.3-2.2-0.9c-0.5-0.6-0.7-1.4-0.7-2.5V87h-2.3
	v-1.7h2.3v-3.1H942.2z"/>
<path class="st0" d="M794,283h172c1.7,0,3,1.3,3,3v72c0,1.7-1.3,3-3,3H794c-1.7,0-3-1.3-3-3v-72C791,284.3,792.3,283,794,283z"/>
<path class="st1" d="M296.8,474.6V490h-3.1v-10l-4.1,10h-2.3l-4.1-10v10h-3.1v-15.4h3.5l4.9,11.4l4.9-11.4H296.8z M301.4,476.4
	c-0.5,0-1-0.2-1.4-0.5c-0.4-0.4-0.5-0.8-0.5-1.3s0.2-0.9,0.5-1.3c0.4-0.4,0.8-0.5,1.4-0.5c0.5,0,1,0.2,1.3,0.5
	c0.4,0.3,0.6,0.8,0.6,1.3s-0.2,0.9-0.6,1.3C302.4,476.2,301.9,476.4,301.4,476.4z M302.9,477.8V490h-3.1v-12.2H302.9z M312.7,477.6
	c1.5,0,2.6,0.5,3.5,1.4c0.9,0.9,1.3,2.2,1.3,3.8v7.1h-3.1v-6.7c0-1-0.2-1.7-0.7-2.2c-0.5-0.5-1.1-0.8-2-0.8c-0.9,0-1.5,0.3-2,0.8
	c-0.5,0.5-0.7,1.3-0.7,2.2v6.7H306v-12.2h3.1v1.5c0.4-0.5,0.9-0.9,1.6-1.2C311.3,477.8,312,477.6,312.7,477.6z M331.8,483.6
	c0,0.4,0,0.8-0.1,1.2h-8.9c0.1,0.9,0.4,1.6,0.9,2.1c0.5,0.5,1.2,0.7,2,0.7c1.1,0,2-0.5,2.4-1.5h3.3c-0.4,1.2-1,2.1-2,2.9
	c-1,0.7-2.2,1.1-3.7,1.1c-1.2,0-2.2-0.3-3.2-0.8c-0.9-0.5-1.6-1.3-2.2-2.2c-0.5-1-0.8-2.1-0.8-3.3c0-1.3,0.3-2.4,0.8-3.3
	c0.5-1,1.2-1.7,2.2-2.2c0.9-0.5,2-0.8,3.2-0.8c1.2,0,2.2,0.2,3.1,0.7c0.9,0.5,1.6,1.2,2.1,2.1C331.6,481.4,331.8,482.5,331.8,483.6z
	 M328.6,482.8c0-0.8-0.3-1.4-0.9-1.9c-0.6-0.5-1.2-0.7-2-0.7c-0.8,0-1.4,0.2-1.9,0.7c-0.5,0.5-0.8,1.1-0.9,1.9H328.6z M337.2,479.7
	c0.4-0.6,0.9-1.2,1.5-1.5c0.6-0.4,1.4-0.6,2.2-0.6v3.2h-0.8c-1,0-1.7,0.2-2.2,0.7c-0.5,0.5-0.7,1.2-0.7,2.4v6.1h-3.1v-12.2h3.1
	V479.7z"/>
<path class="st1" d="M486.8,474.6V490h-3.1v-10l-4.1,10h-2.3l-4.1-10v10h-3.1v-15.4h3.5l4.9,11.4l4.9-11.4H486.8z M491.4,476.4
	c-0.5,0-1-0.2-1.4-0.5c-0.4-0.4-0.5-0.8-0.5-1.3s0.2-0.9,0.5-1.3c0.4-0.4,0.8-0.5,1.4-0.5c0.5,0,1,0.2,1.3,0.5
	c0.4,0.3,0.6,0.8,0.6,1.3s-0.2,0.9-0.6,1.3C492.4,476.2,491.9,476.4,491.4,476.4z M492.9,477.8V490h-3.1v-12.2H492.9z M502.7,477.6
	c1.5,0,2.6,0.5,3.5,1.4c0.9,0.9,1.3,2.2,1.3,3.8v7.1h-3.1v-6.7c0-1-0.2-1.7-0.7-2.2c-0.5-0.5-1.1-0.8-2-0.8c-0.9,0-1.5,0.3-2,0.8
	c-0.5,0.5-0.7,1.3-0.7,2.2v6.7H496v-12.2h3.1v1.5c0.4-0.5,0.9-0.9,1.6-1.2C501.3,477.8,502,477.6,502.7,477.6z M521.8,483.6
	c0,0.4,0,0.8-0.1,1.2h-8.9c0.1,0.9,0.4,1.6,0.9,2.1c0.5,0.5,1.2,0.7,2,0.7c1.1,0,2-0.5,2.4-1.5h3.3c-0.4,1.2-1,2.1-2,2.9
	c-1,0.7-2.2,1.1-3.7,1.1c-1.2,0-2.2-0.3-3.2-0.8c-0.9-0.5-1.6-1.3-2.2-2.2c-0.5-1-0.8-2.1-0.8-3.3c0-1.3,0.3-2.4,0.8-3.3
	c0.5-1,1.2-1.7,2.2-2.2s2-0.8,3.2-0.8c1.2,0,2.2,0.2,3.1,0.7c0.9,0.5,1.6,1.2,2.1,2.1C521.6,481.4,521.8,482.5,521.8,483.6z
	 M518.6,482.8c0-0.8-0.3-1.4-0.9-1.9c-0.6-0.5-1.2-0.7-2-0.7c-0.8,0-1.4,0.2-1.9,0.7c-0.5,0.5-0.8,1.1-0.9,1.9H518.6z M527.2,479.7
	c0.4-0.6,0.9-1.2,1.5-1.5c0.6-0.4,1.4-0.6,2.2-0.6v3.2h-0.8c-1,0-1.7,0.2-2.2,0.7c-0.5,0.5-0.7,1.2-0.7,2.4v6.1h-3.1v-12.2h3.1
	V479.7z"/>
<path class="st1" d="M676.8,474.6V490h-3.1v-10l-4.1,10h-2.3l-4.1-10v10h-3.1v-15.4h3.5l4.9,11.4l4.9-11.4H676.8z M681.4,476.4
	c-0.5,0-1-0.2-1.4-0.5c-0.4-0.4-0.5-0.8-0.5-1.3s0.2-0.9,0.5-1.3c0.4-0.4,0.8-0.5,1.4-0.5c0.5,0,1,0.2,1.3,0.5
	c0.4,0.3,0.5,0.8,0.5,1.3s-0.2,0.9-0.5,1.3C682.4,476.2,681.9,476.4,681.4,476.4z M682.9,477.8V490h-3.1v-12.2H682.9z M692.7,477.6
	c1.5,0,2.6,0.5,3.5,1.4c0.9,0.9,1.3,2.2,1.3,3.8v7.1h-3.1v-6.7c0-1-0.2-1.7-0.7-2.2c-0.5-0.5-1.1-0.8-2-0.8c-0.9,0-1.5,0.3-2,0.8
	c-0.5,0.5-0.7,1.3-0.7,2.2v6.7H686v-12.2h3.1v1.5c0.4-0.5,0.9-0.9,1.6-1.2C691.3,477.8,692,477.6,692.7,477.6z M711.8,483.6
	c0,0.4,0,0.8-0.1,1.2h-8.9c0.1,0.9,0.4,1.6,0.9,2.1c0.5,0.5,1.2,0.7,2,0.7c1.1,0,2-0.5,2.4-1.5h3.3c-0.4,1.2-1,2.1-2,2.9
	c-1,0.7-2.2,1.1-3.7,1.1c-1.2,0-2.2-0.3-3.2-0.8c-0.9-0.5-1.6-1.3-2.2-2.2c-0.5-1-0.8-2.1-0.8-3.3c0-1.3,0.3-2.4,0.8-3.3
	c0.5-1,1.2-1.7,2.2-2.2s2-0.8,3.2-0.8c1.2,0,2.2,0.2,3.1,0.7c0.9,0.5,1.6,1.2,2.1,2.1C711.6,481.4,711.8,482.5,711.8,483.6z
	 M708.6,482.8c0-0.8-0.3-1.4-0.9-1.9c-0.6-0.5-1.2-0.7-2-0.7c-0.8,0-1.4,0.2-1.9,0.7c-0.5,0.5-0.8,1.1-0.9,1.9H708.6z M717.2,479.7
	c0.4-0.6,0.9-1.2,1.5-1.5c0.6-0.4,1.4-0.6,2.2-0.6v3.2h-0.8c-1,0-1.7,0.2-2.2,0.7c-0.5,0.5-0.7,1.2-0.7,2.4v6.1h-3.1v-12.2h3.1
	V479.7z"/>
<path class="st0" d="M394,283h212c1.7,0,3,1.3,3,3v72c0,1.7-1.3,3-3,3H394c-1.7,0-3-1.3-3-3v-72C391,284.3,392.3,283,394,283z"/>
<path class="st0" d="M394,63h212c1.7,0,3,1.3,3,3v152c0,1.7-1.3,3-3,3H394c-1.7,0-3-1.3-3-3V66C391,64.3,392.3,63,394,63z"/>
<path class="st1" d="M813.4,179.1v3.8h5.2v2.4h-5.2v4.1h5.8v2.5h-8.9v-15.4h8.9v2.5H813.4z M829.9,192l-3.4-6h-1.5v6H822v-15.4h5.8
	c1.2,0,2.2,0.2,3,0.6c0.8,0.4,1.5,1,1.9,1.7c0.4,0.7,0.6,1.5,0.6,2.4c0,1-0.3,1.9-0.9,2.8c-0.6,0.8-1.5,1.4-2.6,1.7l3.7,6.2H829.9z
	 M825.1,183.7h2.6c0.8,0,1.5-0.2,1.9-0.6c0.4-0.4,0.6-1,0.6-1.7c0-0.7-0.2-1.2-0.6-1.6c-0.4-0.4-1-0.6-1.9-0.6h-2.6V183.7z
	 M835.3,184.3c0-1.5,0.3-2.9,1-4c0.7-1.2,1.6-2.1,2.8-2.8c1.2-0.7,2.5-1,4-1c1.7,0,3.2,0.4,4.5,1.3c1.3,0.9,2.2,2.1,2.7,3.7h-3.5
	c-0.4-0.7-0.9-1.3-1.5-1.6c-0.6-0.4-1.4-0.6-2.2-0.6c-0.9,0-1.7,0.2-2.4,0.6c-0.7,0.4-1.2,1-1.6,1.8c-0.4,0.8-0.6,1.7-0.6,2.7
	c0,1,0.2,1.9,0.6,2.7c0.4,0.8,0.9,1.4,1.6,1.8c0.7,0.4,1.5,0.6,2.4,0.6c0.8,0,1.6-0.2,2.2-0.6c0.6-0.4,1.1-0.9,1.5-1.7h3.5
	c-0.5,1.6-1.4,2.8-2.7,3.7c-1.3,0.9-2.8,1.3-4.5,1.3c-1.5,0-2.8-0.3-4-1c-1.2-0.7-2.1-1.6-2.8-2.8
	C835.7,187.2,835.3,185.8,835.3,184.3z M853.6,188.5c1.4-1.2,2.5-2.1,3.4-2.9c0.8-0.8,1.5-1.6,2.1-2.5c0.6-0.9,0.8-1.7,0.8-2.5
	c0-0.7-0.2-1.3-0.5-1.8c-0.4-0.4-0.9-0.6-1.6-0.6c-0.7,0-1.3,0.2-1.7,0.7c-0.4,0.5-0.6,1.2-0.6,2h-3c0.1-1.8,0.6-3.1,1.6-4
	c1-0.9,2.3-1.4,3.8-1.4c1.7,0,3,0.4,3.9,1.3c0.9,0.9,1.3,2,1.3,3.5c0,1.1-0.3,2.2-0.9,3.3c-0.6,1-1.3,2-2.1,2.7
	c-0.8,0.8-1.8,1.7-3.1,2.8h6.5v2.6h-10.9v-2.3L853.6,188.5z M865.2,183.8c0-2.5,0.5-4.5,1.4-6c0.9-1.4,2.4-2.2,4.6-2.2
	c2.1,0,3.6,0.7,4.6,2.2c0.9,1.4,1.4,3.4,1.4,6c0,2.6-0.5,4.6-1.4,6c-0.9,1.5-2.4,2.2-4.6,2.2c-2.1,0-3.7-0.7-4.6-2.2
	C865.7,188.3,865.2,186.3,865.2,183.8z M874.1,183.8c0-1.1-0.1-2-0.2-2.7c-0.1-0.7-0.4-1.4-0.8-1.8c-0.4-0.5-1-0.7-1.8-0.7
	c-0.8,0-1.4,0.2-1.9,0.7c-0.4,0.5-0.7,1.1-0.8,1.8c-0.1,0.7-0.2,1.6-0.2,2.7c0,1.1,0.1,2.1,0.2,2.8c0.1,0.7,0.4,1.4,0.8,1.8
	c0.4,0.5,1,0.7,1.9,0.7c0.8,0,1.4-0.2,1.9-0.7c0.4-0.5,0.7-1.1,0.8-1.8C874,185.8,874.1,184.9,874.1,183.8z M895.5,176.6v2.5h-4.1
	V192h-3.1v-12.9h-4.1v-2.5H895.5z M903.2,192.2c-1.2,0-2.2-0.3-3.2-0.8c-0.9-0.5-1.7-1.3-2.2-2.2c-0.5-1-0.8-2.1-0.8-3.3
	c0-1.2,0.3-2.3,0.8-3.3c0.6-1,1.3-1.7,2.3-2.2c1-0.5,2-0.8,3.2-0.8c1.2,0,2.2,0.3,3.2,0.8c1,0.5,1.7,1.2,2.2,2.2
	c0.6,1,0.8,2.1,0.8,3.3c0,1.2-0.3,2.3-0.9,3.3c-0.6,1-1.3,1.7-2.3,2.2C905.4,191.9,904.4,192.2,903.2,192.2z M903.2,189.5
	c0.6,0,1.1-0.1,1.6-0.4c0.5-0.3,0.9-0.7,1.2-1.2c0.3-0.5,0.4-1.2,0.4-2c0-1.2-0.3-2-0.9-2.7c-0.6-0.6-1.3-0.9-2.2-0.9
	s-1.6,0.3-2.2,0.9c-0.6,0.6-0.9,1.5-0.9,2.7c0,1.2,0.3,2.1,0.9,2.7C901.6,189.2,902.3,189.5,903.2,189.5z M919,192l-4.1-5.2v5.2
	h-3.1v-16.3h3.1v9.3l4.1-5.2h4l-5.4,6.1l5.4,6.1H919z M936,185.6c0,0.4,0,0.8-0.1,1.2H927c0.1,0.9,0.4,1.6,0.9,2.1
	c0.5,0.5,1.2,0.7,2,0.7c1.1,0,2-0.5,2.4-1.5h3.3c-0.4,1.2-1,2.1-2,2.9c-1,0.7-2.2,1.1-3.7,1.1c-1.2,0-2.2-0.3-3.2-0.8
	c-0.9-0.5-1.7-1.3-2.2-2.2c-0.5-1-0.8-2.1-0.8-3.3c0-1.3,0.3-2.4,0.8-3.3s1.2-1.7,2.2-2.2s2-0.8,3.2-0.8c1.2,0,2.2,0.2,3.1,0.7
	c0.9,0.5,1.6,1.2,2.1,2.1C935.7,183.4,936,184.5,936,185.6z M932.8,184.8c0-0.8-0.3-1.4-0.9-1.9c-0.6-0.5-1.2-0.7-2-0.7
	c-0.8,0-1.4,0.2-1.9,0.7c-0.5,0.5-0.8,1.1-0.9,1.9H932.8z M945,179.6c1.5,0,2.6,0.5,3.5,1.4c0.9,0.9,1.3,2.2,1.3,3.8v7.1h-3.1v-6.7
	c0-1-0.2-1.7-0.7-2.2c-0.5-0.5-1.1-0.8-2-0.8c-0.8,0-1.5,0.3-2,0.8c-0.5,0.5-0.7,1.3-0.7,2.2v6.7h-3.1v-12.2h3.1v1.5
	c0.4-0.5,0.9-0.9,1.6-1.2C943.5,179.8,944.2,179.6,945,179.6z"/>
<path class="st1" d="M447.6,119.1c0.9,0.2,1.6,0.6,2.2,1.3c0.5,0.7,0.8,1.5,0.8,2.4c0,1.3-0.5,2.3-1.4,3.1c-0.9,0.7-2.1,1.1-3.8,1.1
	h-7.2v-15.4h7c1.6,0,2.8,0.4,3.7,1.1c0.9,0.7,1.3,1.7,1.3,2.9c0,0.9-0.2,1.7-0.7,2.3C449,118.4,448.4,118.8,447.6,119.1z M442,117.8
	h2.5c0.6,0,1.1-0.1,1.4-0.4c0.3-0.3,0.5-0.7,0.5-1.2s-0.2-0.9-0.5-1.2c-0.3-0.3-0.8-0.4-1.4-0.4H442V117.8z M444.7,124
	c0.6,0,1.1-0.1,1.5-0.4c0.4-0.3,0.5-0.7,0.5-1.3s-0.2-1-0.6-1.3c-0.4-0.3-0.8-0.5-1.5-0.5H442v3.4H444.7z M456.5,110.7V127h-3.8
	v-16.3H456.5z M464.8,127.2c-1.2,0-2.3-0.3-3.3-0.8c-1-0.5-1.7-1.2-2.3-2.2c-0.5-1-0.8-2.1-0.8-3.3c0-1.3,0.3-2.4,0.8-3.3
	c0.6-1,1.3-1.7,2.3-2.2c1-0.5,2.1-0.8,3.3-0.8s2.3,0.3,3.3,0.8c1,0.5,1.7,1.3,2.3,2.2c0.6,1,0.8,2.1,0.8,3.3s-0.3,2.4-0.9,3.3
	c-0.6,1-1.3,1.7-2.3,2.2C467.1,126.9,466,127.2,464.8,127.2z M464.8,123.9c0.7,0,1.3-0.3,1.8-0.8c0.5-0.5,0.8-1.3,0.8-2.3
	s-0.2-1.7-0.7-2.3c-0.5-0.5-1.1-0.8-1.8-0.8c-0.7,0-1.3,0.3-1.8,0.8c-0.5,0.5-0.7,1.3-0.7,2.3c0,1,0.2,1.7,0.7,2.3
	C463.5,123.7,464.1,123.9,464.8,123.9z M472.5,120.9c0-1.3,0.3-2.4,0.8-3.3c0.5-1,1.3-1.7,2.2-2.2c0.9-0.5,2-0.8,3.2-0.8
	c1.5,0,2.8,0.4,3.9,1.2c1,0.8,1.7,1.9,2,3.4h-4c-0.3-0.9-1-1.4-2-1.4c-0.7,0-1.2,0.3-1.6,0.8c-0.4,0.5-0.6,1.3-0.6,2.3
	s0.2,1.8,0.6,2.3c0.4,0.5,1,0.8,1.6,0.8c1,0,1.6-0.5,2-1.4h4c-0.3,1.4-1,2.6-2,3.4c-1,0.8-2.3,1.2-3.9,1.2c-1.2,0-2.3-0.3-3.2-0.8
	c-0.9-0.5-1.6-1.2-2.2-2.2C472.7,123.3,472.5,122.1,472.5,120.9z M494,127l-3.7-5.1v5.1h-3.8v-16.3h3.8v9l3.7-5h4.6l-5.1,6.2
	l5.1,6.1H494z M499.4,120.9c0-1.3,0.3-2.4,0.8-3.3c0.5-1,1.3-1.7,2.2-2.2c0.9-0.5,2-0.8,3.2-0.8c1.5,0,2.8,0.4,3.9,1.2
	c1,0.8,1.7,1.9,2,3.4h-4c-0.3-0.9-1-1.4-2-1.4c-0.7,0-1.2,0.3-1.6,0.8c-0.4,0.5-0.6,1.3-0.6,2.3s0.2,1.8,0.6,2.3
	c0.4,0.5,1,0.8,1.6,0.8c1,0,1.6-0.5,2-1.4h4c-0.3,1.4-1,2.6-2,3.4c-1,0.8-2.3,1.2-3.9,1.2c-1.2,0-2.3-0.3-3.2-0.8
	c-0.9-0.5-1.7-1.2-2.2-2.2C499.6,123.3,499.4,122.1,499.4,120.9z M521,114.6c1.4,0,2.5,0.5,3.4,1.4c0.9,0.9,1.3,2.2,1.3,3.8v7.2
	h-3.7v-6.7c0-0.8-0.2-1.5-0.6-1.9s-1-0.7-1.7-0.7s-1.3,0.2-1.7,0.7s-0.6,1.1-0.6,1.9v6.7h-3.8v-16.3h3.8v5.7c0.4-0.5,0.9-1,1.6-1.3
	C519.4,114.8,520.2,114.6,521,114.6z M527.5,120.8c0-1.3,0.2-2.4,0.7-3.3c0.5-1,1.1-1.7,2-2.2c0.8-0.5,1.7-0.8,2.8-0.8
	c0.9,0,1.6,0.2,2.3,0.5c0.7,0.4,1.2,0.8,1.5,1.4v-1.7h3.8V127h-3.8v-1.7c-0.4,0.6-0.9,1-1.5,1.4c-0.6,0.4-1.4,0.5-2.3,0.5
	c-1,0-1.9-0.3-2.7-0.8c-0.8-0.5-1.5-1.3-2-2.2C527.8,123.2,527.5,122.1,527.5,120.8z M536.7,120.9c0-0.9-0.3-1.7-0.8-2.2
	c-0.5-0.5-1.1-0.8-1.9-0.8s-1.4,0.3-1.9,0.8c-0.5,0.5-0.8,1.3-0.8,2.2c0,0.9,0.3,1.7,0.8,2.2c0.5,0.5,1.2,0.8,1.9,0.8
	s1.4-0.3,1.9-0.8C536.5,122.5,536.7,121.8,536.7,120.9z M545.1,113.4c-0.7,0-1.2-0.2-1.6-0.6c-0.4-0.4-0.6-0.9-0.6-1.5
	c0-0.6,0.2-1.1,0.6-1.5c0.4-0.4,1-0.6,1.6-0.6c0.6,0,1.2,0.2,1.6,0.6c0.4,0.4,0.6,0.9,0.6,1.5c0,0.6-0.2,1.1-0.6,1.5
	C546.3,113.3,545.7,113.4,545.1,113.4z M547,114.7V127h-3.8v-12.3H547z M557.2,114.6c1.4,0,2.6,0.5,3.4,1.4c0.9,0.9,1.3,2.2,1.3,3.8
	v7.2h-3.7v-6.7c0-0.8-0.2-1.5-0.6-1.9c-0.4-0.5-1-0.7-1.7-0.7s-1.3,0.2-1.7,0.7s-0.6,1.1-0.6,1.9v6.7h-3.8v-12.3h3.8v1.6
	c0.4-0.5,0.9-1,1.5-1.3C555.6,114.8,556.4,114.6,557.2,114.6z"/>
<path class="st1" d="M450.2,315.1H444l-1,2.9h-3.2l5.5-15.4h3.6l5.5,15.4h-3.3L450.2,315.1z M449.3,312.6l-2.2-6.4l-2.2,6.4H449.3z
	 M468,305.8V318h-3.1v-1.5c-0.4,0.5-0.9,0.9-1.6,1.3c-0.6,0.3-1.3,0.4-2.1,0.4c-1,0-1.8-0.2-2.5-0.6c-0.7-0.4-1.3-1-1.7-1.8
	c-0.4-0.8-0.6-1.7-0.6-2.8v-7.1h3.1v6.7c0,1,0.2,1.7,0.7,2.2c0.5,0.5,1.1,0.8,2,0.8c0.9,0,1.5-0.3,2-0.8c0.5-0.5,0.7-1.3,0.7-2.2
	v-6.7H468z M474.6,308.3v5.9c0,0.4,0.1,0.7,0.3,0.9c0.2,0.2,0.5,0.3,1,0.3h1.4v2.6h-1.9c-2.6,0-3.9-1.3-3.9-3.8v-5.9h-1.5v-2.5h1.5
	v-3h3.1v3h2.7v2.5H474.6z M486.4,305.6c0.9,0,1.7,0.2,2.5,0.6c0.7,0.4,1.3,1,1.7,1.8c0.4,0.8,0.6,1.7,0.6,2.8v7.1h-3.1v-6.7
	c0-1-0.2-1.7-0.7-2.2c-0.5-0.5-1.1-0.8-2-0.8c-0.9,0-1.5,0.3-2,0.8c-0.5,0.5-0.7,1.3-0.7,2.2v6.7h-3.1v-16.3h3.1v5.6
	c0.4-0.5,0.9-0.9,1.6-1.2C484.9,305.8,485.6,305.6,486.4,305.6z M499.5,318.2c-1.2,0-2.2-0.3-3.2-0.8c-0.9-0.5-1.7-1.3-2.2-2.2
	c-0.5-1-0.8-2.1-0.8-3.3s0.3-2.3,0.8-3.3c0.6-1,1.3-1.7,2.3-2.2c1-0.5,2-0.8,3.2-0.8c1.2,0,2.2,0.3,3.2,0.8c1,0.5,1.7,1.2,2.2,2.2
	c0.6,1,0.8,2.1,0.8,3.3s-0.3,2.3-0.9,3.3c-0.6,1-1.3,1.7-2.3,2.2C501.8,317.9,500.7,318.2,499.5,318.2z M499.5,315.5
	c0.6,0,1.1-0.1,1.6-0.4c0.5-0.3,0.9-0.7,1.2-1.2c0.3-0.5,0.4-1.2,0.4-2c0-1.2-0.3-2-0.9-2.7c-0.6-0.6-1.3-0.9-2.2-0.9
	s-1.6,0.3-2.2,0.9c-0.6,0.6-0.9,1.5-0.9,2.7s0.3,2.1,0.9,2.7C497.9,315.2,498.6,315.5,499.5,315.5z M511.2,307.7
	c0.4-0.6,0.9-1.2,1.5-1.5c0.6-0.4,1.4-0.6,2.2-0.6v3.2h-0.8c-1,0-1.7,0.2-2.2,0.7c-0.5,0.5-0.7,1.2-0.7,2.4v6.1h-3.1v-12.2h3.1
	V307.7z M518.6,304.4c-0.5,0-1-0.2-1.4-0.5c-0.4-0.4-0.5-0.8-0.5-1.3s0.2-0.9,0.5-1.3c0.4-0.4,0.8-0.5,1.4-0.5c0.5,0,1,0.2,1.3,0.5
	c0.4,0.3,0.6,0.8,0.6,1.3s-0.2,0.9-0.6,1.3C519.6,304.2,519.1,304.4,518.6,304.4z M520.1,305.8V318H517v-12.2H520.1z M526,315.5h5.4
	v2.5h-8.9v-2.5l5.3-7.2h-5.3v-2.5h8.8v2.5L526,315.5z M545.1,311.6c0,0.4,0,0.8-0.1,1.2h-8.9c0.1,0.9,0.4,1.6,0.9,2.1
	c0.5,0.5,1.2,0.7,2,0.7c1.1,0,2-0.5,2.4-1.5h3.3c-0.4,1.2-1,2.1-2,2.9c-1,0.7-2.2,1.1-3.7,1.1c-1.2,0-2.2-0.3-3.2-0.8
	c-0.9-0.5-1.6-1.3-2.2-2.2c-0.5-1-0.8-2.1-0.8-3.3c0-1.3,0.3-2.4,0.8-3.3c0.5-1,1.2-1.7,2.2-2.2s2-0.8,3.2-0.8
	c1.2,0,2.2,0.2,3.1,0.7c0.9,0.5,1.6,1.2,2.1,2.1C544.9,309.4,545.1,310.5,545.1,311.6z M541.9,310.8c0-0.8-0.3-1.4-0.9-1.9
	c-0.6-0.5-1.2-0.7-2-0.7c-0.8,0-1.4,0.2-1.9,0.7c-0.5,0.5-0.8,1.1-0.9,1.9H541.9z M546.6,311.9c0-1.2,0.2-2.3,0.7-3.3
	c0.5-1,1.2-1.7,2-2.2c0.9-0.5,1.8-0.8,2.8-0.8c0.8,0,1.5,0.2,2.3,0.5c0.7,0.3,1.3,0.8,1.7,1.4v-5.8h3.1V318h-3.1v-1.8
	c-0.4,0.6-0.9,1.1-1.6,1.5c-0.7,0.4-1.5,0.5-2.4,0.5c-1,0-2-0.3-2.8-0.8c-0.8-0.5-1.5-1.3-2-2.2
	C546.8,314.2,546.6,313.1,546.6,311.9z M556.2,311.9c0-0.7-0.1-1.4-0.4-1.9c-0.3-0.5-0.7-1-1.2-1.2c-0.5-0.3-1-0.4-1.6-0.4
	c-0.6,0-1.1,0.1-1.6,0.4c-0.5,0.3-0.9,0.7-1.2,1.2c-0.3,0.5-0.4,1.2-0.4,1.9s0.1,1.4,0.4,1.9c0.3,0.5,0.7,1,1.2,1.3
	c0.5,0.3,1,0.4,1.6,0.4c0.6,0,1.1-0.1,1.6-0.4c0.5-0.3,0.9-0.7,1.2-1.2C556,313.3,556.2,312.7,556.2,311.9z M467.5,327.6V343h-3.1
	v-10l-4.1,10H458l-4.1-10v10h-3.1v-15.4h3.5l4.9,11.4l4.9-11.4H467.5z M469.7,336.9c0-1.2,0.2-2.3,0.7-3.3c0.5-1,1.2-1.7,2-2.2
	c0.9-0.5,1.8-0.8,2.8-0.8c0.9,0,1.7,0.2,2.4,0.5c0.7,0.4,1.2,0.8,1.7,1.4v-1.7h3.1V343h-3.1v-1.8c-0.4,0.6-0.9,1-1.7,1.4
	c-0.7,0.4-1.5,0.5-2.4,0.5c-1,0-2-0.3-2.8-0.8c-0.8-0.5-1.5-1.3-2-2.2C470,339.2,469.7,338.1,469.7,336.9z M479.3,336.9
	c0-0.7-0.1-1.4-0.4-1.9c-0.3-0.5-0.7-1-1.2-1.2c-0.5-0.3-1-0.4-1.6-0.4s-1.1,0.1-1.6,0.4c-0.5,0.3-0.9,0.7-1.2,1.2
	c-0.3,0.5-0.4,1.2-0.4,1.9s0.1,1.4,0.4,1.9c0.3,0.5,0.7,1,1.2,1.3c0.5,0.3,1,0.4,1.6,0.4c0.6,0,1.1-0.1,1.6-0.4
	c0.5-0.3,0.9-0.7,1.2-1.2C479.2,338.3,479.3,337.7,479.3,336.9z M492.2,330.6c1.5,0,2.6,0.5,3.5,1.4c0.9,0.9,1.3,2.2,1.3,3.8v7.1
	H494v-6.7c0-1-0.2-1.7-0.7-2.2c-0.5-0.5-1.1-0.8-2-0.8c-0.9,0-1.5,0.3-2,0.8c-0.5,0.5-0.7,1.3-0.7,2.2v6.7h-3.1v-12.2h3.1v1.5
	c0.4-0.5,0.9-0.9,1.6-1.2C490.7,330.8,491.4,330.6,492.2,330.6z M499.2,336.9c0-1.2,0.2-2.3,0.7-3.3c0.5-1,1.2-1.7,2-2.2
	c0.9-0.5,1.8-0.8,2.8-0.8c0.9,0,1.7,0.2,2.4,0.5c0.7,0.4,1.2,0.8,1.6,1.4v-1.7h3.1V343h-3.1v-1.8c-0.4,0.6-0.9,1-1.6,1.4
	c-0.7,0.4-1.5,0.5-2.4,0.5c-1,0-2-0.3-2.8-0.8c-0.8-0.5-1.5-1.3-2-2.2C499.4,339.2,499.2,338.1,499.2,336.9z M508.8,336.9
	c0-0.7-0.1-1.4-0.4-1.9c-0.3-0.5-0.7-1-1.2-1.2c-0.5-0.3-1-0.4-1.6-0.4c-0.6,0-1.1,0.1-1.6,0.4s-0.9,0.7-1.2,1.2
	c-0.3,0.5-0.4,1.2-0.4,1.9s0.1,1.4,0.4,1.9c0.3,0.5,0.7,1,1.2,1.3c0.5,0.3,1,0.4,1.6,0.4c0.6,0,1.1-0.1,1.6-0.4
	c0.5-0.3,0.9-0.7,1.2-1.2C508.6,338.3,508.8,337.7,508.8,336.9z M519.7,330.6c0.9,0,1.7,0.2,2.4,0.5c0.7,0.4,1.2,0.8,1.6,1.4v-1.7
	h3.1v12.3c0,1.1-0.2,2.1-0.7,3c-0.5,0.9-1.1,1.6-2,2.1c-0.9,0.5-2,0.8-3.3,0.8c-1.7,0-3.2-0.4-4.3-1.2c-1.1-0.8-1.7-1.9-1.9-3.3h3.1
	c0.2,0.6,0.5,1,1,1.3c0.5,0.3,1.2,0.5,2,0.5c0.9,0,1.6-0.3,2.2-0.8c0.6-0.5,0.8-1.3,0.8-2.4v-1.9c-0.4,0.6-0.9,1-1.7,1.4
	c-0.7,0.4-1.5,0.6-2.4,0.6c-1,0-2-0.3-2.8-0.8c-0.9-0.5-1.5-1.3-2-2.2c-0.5-1-0.7-2.1-0.7-3.3c0-1.2,0.2-2.3,0.7-3.3
	c0.5-1,1.2-1.7,2-2.2C517.7,330.9,518.6,330.6,519.7,330.6z M523.7,336.9c0-0.7-0.1-1.4-0.4-1.9c-0.3-0.5-0.7-1-1.2-1.2
	c-0.5-0.3-1-0.4-1.6-0.4s-1.1,0.1-1.6,0.4s-0.9,0.7-1.2,1.2c-0.3,0.5-0.4,1.2-0.4,1.9s0.1,1.4,0.4,1.9c0.3,0.5,0.7,1,1.2,1.3
	c0.5,0.3,1,0.4,1.6,0.4c0.6,0,1.1-0.1,1.6-0.4c0.5-0.3,0.9-0.7,1.2-1.2C523.6,338.3,523.7,337.7,523.7,336.9z M541.1,336.6
	c0,0.4,0,0.8-0.1,1.2h-8.9c0.1,0.9,0.4,1.6,0.9,2.1c0.5,0.5,1.2,0.7,2,0.7c1.1,0,2-0.5,2.4-1.5h3.3c-0.4,1.2-1,2.1-2,2.9
	c-1,0.7-2.2,1.1-3.7,1.1c-1.2,0-2.2-0.3-3.2-0.8c-0.9-0.5-1.7-1.3-2.2-2.2c-0.5-1-0.8-2.1-0.8-3.3c0-1.3,0.3-2.4,0.8-3.3
	c0.5-1,1.2-1.7,2.2-2.2c0.9-0.5,2-0.8,3.2-0.8c1.2,0,2.2,0.2,3.1,0.7c0.9,0.5,1.6,1.2,2.1,2.1C540.9,334.4,541.1,335.5,541.1,336.6z
	 M538,335.8c0-0.8-0.3-1.4-0.9-1.9c-0.6-0.5-1.2-0.7-2-0.7c-0.8,0-1.4,0.2-1.9,0.7c-0.5,0.5-0.8,1.1-0.9,1.9H538z M546.5,332.7
	c0.4-0.6,0.9-1.2,1.5-1.5c0.6-0.4,1.4-0.6,2.2-0.6v3.2h-0.8c-1,0-1.7,0.2-2.2,0.7c-0.5,0.5-0.7,1.2-0.7,2.4v6.1h-3.1v-12.2h3.1
	V332.7z"/>
<path class="st1" d="M409,151h182c2.2,0,4,1.8,4,4v46c0,2.2-1.8,4-4,4H409c-2.2,0-4-1.8-4-4v-46C405,152.8,406.8,151,409,151z"/>
<path class="st2" d="M432,179c-1.8-0.5-3.1-1.1-3.9-1.9c-0.8-0.7-1.2-1.7-1.2-2.8c0-1.2,0.5-2.2,1.5-3.1c1-0.8,2.3-1.2,3.8-1.2
	c1.1,0,2,0.2,2.9,0.6c0.8,0.4,1.5,1,2,1.7c0.5,0.7,0.7,1.5,0.7,2.4h-2.1c0-0.9-0.3-1.7-0.9-2.2c-0.6-0.5-1.5-0.8-2.5-0.8
	c-1,0-1.8,0.2-2.4,0.7c-0.6,0.4-0.8,1.1-0.8,1.9c0,0.6,0.3,1.2,0.8,1.6c0.5,0.4,1.5,0.8,2.8,1.2c1.3,0.4,2.3,0.8,3,1.2
	c0.7,0.4,1.3,0.9,1.6,1.5c0.4,0.6,0.5,1.3,0.5,2.1c0,1.3-0.5,2.3-1.5,3.1c-1,0.8-2.3,1.1-4,1.1c-1.1,0-2.1-0.2-3-0.6
	c-0.9-0.4-1.7-1-2.2-1.7c-0.5-0.7-0.8-1.5-0.8-2.4h2.1c0,0.9,0.3,1.7,1,2.2c0.7,0.5,1.6,0.8,2.8,0.8c1.1,0,1.9-0.2,2.5-0.7
	c0.6-0.4,0.9-1,0.9-1.8c0-0.8-0.3-1.4-0.8-1.8C434.4,179.9,433.4,179.4,432,179z M442,174.4l0.1,1.3c0.9-1,2-1.5,3.4-1.5
	c1.6,0,2.7,0.6,3.3,1.9c0.4-0.6,0.9-1,1.5-1.4c0.6-0.3,1.4-0.5,2.2-0.5c2.5,0,3.8,1.3,3.9,4.1v7.8h-2v-7.7c0-0.8-0.2-1.4-0.6-1.9
	c-0.4-0.4-1-0.6-1.9-0.6c-0.7,0-1.3,0.2-1.8,0.7c-0.5,0.4-0.8,1-0.8,1.8v7.7h-2v-7.6c0-1.7-0.8-2.5-2.5-2.5c-1.3,0-2.2,0.6-2.7,1.7
	v8.5h-2v-11.6H442z M466.6,186c-0.1-0.2-0.2-0.6-0.3-1.2c-0.9,1-2,1.4-3.3,1.4c-1.1,0-2.1-0.3-2.8-1c-0.7-0.7-1.1-1.5-1.1-2.5
	c0-1.2,0.5-2.1,1.4-2.8c0.9-0.7,2.2-1,3.9-1h1.9V178c0-0.7-0.2-1.2-0.6-1.7c-0.4-0.4-1-0.6-1.8-0.6c-0.7,0-1.3,0.2-1.8,0.5
	c-0.5,0.4-0.7,0.8-0.7,1.3h-2c0-0.6,0.2-1.1,0.6-1.7c0.4-0.5,1-1,1.7-1.3c0.7-0.3,1.5-0.5,2.3-0.5c1.3,0,2.4,0.3,3.1,1
	c0.8,0.7,1.2,1.6,1.2,2.8v5.3c0,1.1,0.1,1.9,0.4,2.5v0.2H466.6z M463.3,184.5c0.6,0,1.2-0.2,1.8-0.5c0.6-0.3,1-0.7,1.2-1.3v-2.4
	h-1.6c-2.4,0-3.7,0.7-3.7,2.1c0,0.6,0.2,1.1,0.6,1.5C462.1,184.3,462.6,184.5,463.3,184.5z M477,176.2c-0.3-0.1-0.6-0.1-1-0.1
	c-1.3,0-2.2,0.6-2.7,1.7v8.3h-2v-11.6h1.9l0,1.3c0.7-1,1.6-1.6,2.8-1.6c0.4,0,0.7,0.1,0.9,0.1V176.2z M482.1,171.6v2.8h2.2v1.5h-2.2
	v7.2c0,0.5,0.1,0.8,0.3,1.1c0.2,0.2,0.5,0.3,1,0.3c0.2,0,0.5,0,0.9-0.1v1.6c-0.5,0.1-1,0.2-1.5,0.2c-0.9,0-1.6-0.3-2-0.8
	c-0.5-0.5-0.7-1.3-0.7-2.3v-7.2H478v-1.5h2.1v-2.8H482.1z M503.8,181c-0.2,1.7-0.8,2.9-1.8,3.8c-1,0.9-2.4,1.3-4.1,1.3
	c-1.8,0-3.3-0.7-4.4-2c-1.1-1.3-1.7-3.1-1.7-5.3v-1.5c0-1.5,0.3-2.7,0.8-3.8c0.5-1.1,1.3-1.9,2.2-2.5c1-0.6,2.1-0.9,3.3-0.9
	c1.7,0,3,0.5,4,1.4c1,0.9,1.6,2.2,1.8,3.8h-2.1c-0.2-1.2-0.6-2.1-1.2-2.7c-0.6-0.6-1.4-0.8-2.5-0.8c-1.3,0-2.4,0.5-3.1,1.5
	c-0.7,1-1.1,2.4-1.1,4.2v1.5c0,1.7,0.4,3,1.1,4c0.7,1,1.7,1.5,3,1.5c1.1,0,2-0.3,2.6-0.8c0.6-0.5,1-1.4,1.2-2.7H503.8z M505.8,180.1
	c0-1.1,0.2-2.2,0.7-3.1c0.5-0.9,1.1-1.6,1.9-2.1c0.8-0.5,1.7-0.7,2.7-0.7c1.6,0,2.9,0.5,3.8,1.6c1,1.1,1.5,2.6,1.5,4.4v0.1
	c0,1.1-0.2,2.1-0.7,3.1c-0.4,0.9-1,1.6-1.9,2.1c-0.8,0.5-1.7,0.8-2.8,0.8c-1.6,0-2.9-0.5-3.8-1.6c-1-1.1-1.5-2.5-1.5-4.4V180.1z
	 M507.8,180.3c0,1.3,0.3,2.3,0.9,3.1c0.6,0.8,1.4,1.2,2.4,1.2c1,0,1.8-0.4,2.4-1.2c0.6-0.8,0.9-1.9,0.9-3.3c0-1.3-0.3-2.3-0.9-3.1
	c-0.6-0.8-1.4-1.2-2.4-1.2c-1,0-1.8,0.4-2.4,1.2C508.1,177.7,507.8,178.9,507.8,180.3z M520.8,174.4l0.1,1.5c0.9-1.1,2-1.7,3.5-1.7
	c2.5,0,3.7,1.4,3.7,4.2v7.7h-2v-7.7c0-0.8-0.2-1.5-0.6-1.9c-0.4-0.4-1-0.6-1.8-0.6c-0.6,0-1.2,0.2-1.7,0.5c-0.5,0.3-0.9,0.8-1.1,1.4
	v8.3h-2v-11.6H520.8z M533.7,171.6v2.8h2.2v1.5h-2.2v7.2c0,0.5,0.1,0.8,0.3,1.1c0.2,0.2,0.5,0.3,1,0.3c0.2,0,0.5,0,0.9-0.1v1.6
	c-0.5,0.1-1,0.2-1.5,0.2c-0.9,0-1.6-0.3-2-0.8c-0.5-0.5-0.7-1.3-0.7-2.3v-7.2h-2.1v-1.5h2.1v-2.8H533.7z M543.9,176.2
	c-0.3-0.1-0.6-0.1-1-0.1c-1.3,0-2.2,0.6-2.7,1.7v8.3h-2v-11.6h1.9l0,1.3c0.7-1,1.6-1.6,2.8-1.6c0.4,0,0.7,0.1,0.9,0.1V176.2z
	 M552.4,186c-0.1-0.2-0.2-0.6-0.3-1.2c-0.9,1-2,1.4-3.3,1.4c-1.1,0-2.1-0.3-2.8-1c-0.7-0.7-1.1-1.5-1.1-2.5c0-1.2,0.5-2.1,1.4-2.8
	c0.9-0.7,2.2-1,3.9-1h1.9V178c0-0.7-0.2-1.2-0.6-1.7c-0.4-0.4-1-0.6-1.8-0.6c-0.7,0-1.3,0.2-1.8,0.5c-0.5,0.4-0.7,0.8-0.7,1.3h-2
	c0-0.6,0.2-1.1,0.6-1.7c0.4-0.5,1-1,1.7-1.3c0.7-0.3,1.5-0.5,2.3-0.5c1.3,0,2.4,0.3,3.1,1c0.8,0.7,1.2,1.6,1.2,2.8v5.3
	c0,1.1,0.1,1.9,0.4,2.5v0.2H552.4z M549.1,184.5c0.6,0,1.2-0.2,1.8-0.5c0.6-0.3,1-0.7,1.2-1.3v-2.4h-1.6c-2.4,0-3.7,0.7-3.7,2.1
	c0,0.6,0.2,1.1,0.6,1.5C548,184.3,548.5,184.5,549.1,184.5z M561.9,184.6c0.7,0,1.3-0.2,1.9-0.6c0.5-0.4,0.8-1,0.9-1.6h1.9
	c0,0.7-0.3,1.3-0.7,1.9c-0.4,0.6-1,1.1-1.7,1.4c-0.7,0.4-1.4,0.5-2.2,0.5c-1.6,0-2.8-0.5-3.8-1.6c-0.9-1.1-1.4-2.5-1.4-4.3V180
	c0-1.1,0.2-2.1,0.6-3c0.4-0.9,1-1.6,1.8-2.1c0.8-0.5,1.7-0.7,2.8-0.7c1.3,0,2.4,0.4,3.2,1.2c0.9,0.8,1.3,1.8,1.4,3h-1.9
	c-0.1-0.8-0.3-1.4-0.9-1.8c-0.5-0.5-1.1-0.7-1.9-0.7c-1,0-1.8,0.4-2.4,1.1c-0.6,0.7-0.8,1.8-0.8,3.1v0.4c0,1.3,0.3,2.4,0.8,3.1
	C560.1,184.2,560.9,184.6,561.9,184.6z M571.4,171.6v2.8h2.2v1.5h-2.2v7.2c0,0.5,0.1,0.8,0.3,1.1c0.2,0.2,0.5,0.3,1,0.3
	c0.2,0,0.5,0,0.9-0.1v1.6c-0.5,0.1-1,0.2-1.5,0.2c-0.9,0-1.6-0.3-2-0.8s-0.7-1.3-0.7-2.3v-7.2h-2.1v-1.5h2.1v-2.8H571.4z"/>
<path class="st1" d="M499.3,447.7c0.4,0.4,1,0.4,1.4,0l6.4-6.4c0.4-0.4,0.4-1,0-1.4c-0.4-0.4-1-0.4-1.4,0l-5.7,5.7l-5.7-5.7
	c-0.4-0.4-1-0.4-1.4,0c-0.4,0.4-0.4,1,0,1.4L499.3,447.7z M500.7,396.3c-0.4-0.4-1-0.4-1.4,0l-6.4,6.4c-0.4,0.4-0.4,1,0,1.4
	c0.4,0.4,1,0.4,1.4,0l5.7-5.7l5.7,5.7c0.4,0.4,1,0.4,1.4,0c0.4-0.4,0.4-1,0-1.4L500.7,396.3z M501,447v-50h-2v50H501z"/>
<path class="st1" d="M119.3,277.7c0.4,0.4,1,0.4,1.4,0l6.4-6.4c0.4-0.4,0.4-1,0-1.4c-0.4-0.4-1-0.4-1.4,0l-5.7,5.7l-5.7-5.7
	c-0.4-0.4-1-0.4-1.4,0c-0.4,0.4-0.4,1,0,1.4L119.3,277.7z M120.7,226.3c-0.4-0.4-1-0.4-1.4,0l-6.4,6.4c-0.4,0.4-0.4,1,0,1.4
	c0.4,0.4,1,0.4,1.4,0l5.7-5.7l5.7,5.7c0.4,0.4,1,0.4,1.4,0c0.4-0.4,0.4-1,0-1.4L120.7,226.3z M121,277v-50h-2v50H121z"/>
<path class="st1" d="M879.3,277.7c0.4,0.4,1,0.4,1.4,0l6.4-6.4c0.4-0.4,0.4-1,0-1.4c-0.4-0.4-1-0.4-1.4,0l-5.7,5.7l-5.7-5.7
	c-0.4-0.4-1-0.4-1.4,0c-0.4,0.4-0.4,1,0,1.4L879.3,277.7z M880.7,226.3c-0.4-0.4-1-0.4-1.4,0l-6.4,6.4c-0.4,0.4-0.4,1,0,1.4
	c0.4,0.4,1,0.4,1.4,0l5.7-5.7l5.7,5.7c0.4,0.4,1,0.4,1.4,0c0.4-0.4,0.4-1,0-1.4L880.7,226.3z M881,277v-50h-2v50H881z"/>
<path class="st1" d="M499.3,277.7c0.4,0.4,1,0.4,1.4,0l6.4-6.4c0.4-0.4,0.4-1,0-1.4c-0.4-0.4-1-0.4-1.4,0l-5.7,5.7l-5.7-5.7
	c-0.4-0.4-1-0.4-1.4,0c-0.4,0.4-0.4,1,0,1.4L499.3,277.7z M500.7,226.3c-0.4-0.4-1-0.4-1.4,0l-6.4,6.4c-0.4,0.4-0.4,1,0,1.4
	c0.4,0.4,1,0.4,1.4,0l5.7-5.7l5.7,5.7c0.4,0.4,1,0.4,1.4,0c0.4-0.4,0.4-1,0-1.4L500.7,226.3z M501,277v-50h-2v50H501z"/>
<path class="st1" d="M617.3,322.3c-0.4,0.4-0.4,1,0,1.4l6.4,6.4c0.4,0.4,1,0.4,1.4,0c0.4-0.4,0.4-1,0-1.4l-5.7-5.7l5.7-5.7
	c0.4-0.4,0.4-1,0-1.4c-0.4-0.4-1-0.4-1.4,0L617.3,322.3z M782.7,323.7c0.4-0.4,0.4-1,0-1.4l-6.4-6.4c-0.4-0.4-1-0.4-1.4,0
	c-0.4,0.4-0.4,1,0,1.4l5.7,5.7l-5.7,5.7c-0.4,0.4-0.4,1,0,1.4c0.4,0.4,1,0.4,1.4,0L782.7,323.7z M618,324h164v-2H618V324z"/>
<path class="st1" d="M217.3,322.3c-0.4,0.4-0.4,1,0,1.4l6.4,6.4c0.4,0.4,1,0.4,1.4,0c0.4-0.4,0.4-1,0-1.4l-5.7-5.7l5.7-5.7
	c0.4-0.4,0.4-1,0-1.4c-0.4-0.4-1-0.4-1.4,0L217.3,322.3z M382.7,323.7c0.4-0.4,0.4-1,0-1.4l-6.4-6.4c-0.4-0.4-1-0.4-1.4,0
	c-0.4,0.4-0.4,1,0,1.4l5.7,5.7l-5.7,5.7c-0.4,0.4-0.4,1,0,1.4c0.4,0.4,1,0.4,1.4,0L382.7,323.7z M218,324h164v-2H218V324z"/>
<path class="st1" d="M668.2,444.6c0.5,0.1,1.1-0.2,1.2-0.7l2.3-8.7c0.1-0.5-0.2-1.1-0.7-1.2c-0.5-0.1-1.1,0.2-1.2,0.7l-2.1,7.7
	l-7.7-2.1c-0.5-0.1-1.1,0.2-1.2,0.7c-0.1,0.5,0.2,1.1,0.7,1.2L668.2,444.6z M643.8,399.4c-0.5-0.1-1.1,0.2-1.2,0.7l-2.3,8.7
	c-0.1,0.5,0.2,1.1,0.7,1.2c0.5,0.1,1.1-0.2,1.2-0.7l2.1-7.7l7.7,2.1c0.5,0.1,1.1-0.2,1.2-0.7c0.1-0.5-0.2-1.1-0.7-1.2L643.8,399.4z
	 M669.4,443.2l-25-43.3l-1.7,1l25,43.3L669.4,443.2z"/>
<path class="st1" d="M329.3,444.3c-0.5,0.1-1.1-0.2-1.2-0.7l-2.3-8.7c-0.1-0.5,0.2-1.1,0.7-1.2c0.5-0.1,1.1,0.2,1.2,0.7l2.1,7.7
	l7.7-2.1c0.5-0.1,1.1,0.2,1.2,0.7c0.1,0.5-0.2,1.1-0.7,1.2L329.3,444.3z M353.7,399c0.5-0.1,1.1,0.2,1.2,0.7l2.3,8.7
	c0.1,0.5-0.2,1.1-0.7,1.2c-0.5,0.1-1.1-0.2-1.2-0.7l-2.1-7.7l-7.7,2.1c-0.5,0.1-1.1-0.2-1.2-0.7c-0.1-0.5,0.2-1.1,0.7-1.2L353.7,399
	z M328.1,442.8l25-43.3l1.7,1l-25,43.3L328.1,442.8z"/>
<g>
	<path class="st3" d="M449.4,88v1.5h-6v4.6h4.8v1.5h-4.8v6.2h-1.8V88H449.4z"/>
	<path class="st3" d="M455.3,87.2v14.6h-1.8V87.2H455.3z"/>
	<path class="st3" d="M460.3,93.4c0.4-0.8,1.1-1.5,1.8-1.9c0.8-0.5,1.7-0.7,2.6-0.7c0.9,0,1.8,0.2,2.5,0.6c0.7,0.4,1.2,0.9,1.6,1.5
		v-2h1.8v10.8h-1.8v-2c-0.4,0.6-0.9,1.2-1.6,1.6s-1.5,0.6-2.5,0.6c-1,0-1.8-0.2-2.6-0.7s-1.4-1.1-1.8-2c-0.4-0.9-0.7-1.8-0.7-2.9
		C459.7,95.2,459.9,94.2,460.3,93.4z M468.3,94.2c-0.3-0.6-0.8-1.1-1.3-1.4c-0.6-0.3-1.2-0.5-1.8-0.5s-1.3,0.2-1.8,0.5
		s-1,0.8-1.3,1.4c-0.3,0.6-0.5,1.3-0.5,2.1c0,0.8,0.2,1.5,0.5,2.2s0.8,1.1,1.3,1.4c0.6,0.3,1.2,0.5,1.8,0.5s1.3-0.2,1.8-0.5
		c0.6-0.3,1-0.8,1.3-1.4s0.5-1.3,0.5-2.1S468.6,94.8,468.3,94.2z"/>
	<path class="st3" d="M477.2,101.5c-0.7-0.3-1.2-0.7-1.6-1.2c-0.4-0.5-0.6-1.1-0.6-1.7h1.9c0.1,0.5,0.3,1,0.8,1.3
		c0.5,0.3,1,0.5,1.8,0.5c0.7,0,1.2-0.2,1.6-0.5c0.4-0.3,0.6-0.7,0.6-1.1c0-0.5-0.2-0.8-0.6-1.1c-0.4-0.2-1.1-0.5-1.9-0.7
		c-0.8-0.2-1.5-0.4-2-0.6c-0.5-0.2-0.9-0.5-1.3-1c-0.4-0.4-0.5-1-0.5-1.7c0-0.6,0.2-1.1,0.5-1.5c0.3-0.5,0.8-0.8,1.4-1.1
		c0.6-0.3,1.3-0.4,2.1-0.4c1.2,0,2.2,0.3,2.9,0.9c0.7,0.6,1.1,1.4,1.2,2.5h-1.8c0-0.6-0.3-1-0.7-1.4s-1-0.5-1.7-0.5
		c-0.6,0-1.2,0.1-1.5,0.4c-0.4,0.3-0.6,0.6-0.6,1.1c0,0.4,0.1,0.6,0.3,0.9c0.2,0.2,0.5,0.4,0.9,0.6c0.3,0.1,0.8,0.3,1.4,0.5
		c0.8,0.2,1.4,0.4,1.9,0.6c0.5,0.2,0.9,0.5,1.3,0.9c0.3,0.4,0.5,0.9,0.5,1.6c0,0.6-0.2,1.1-0.5,1.6s-0.8,0.8-1.4,1.1
		c-0.6,0.3-1.3,0.4-2.1,0.4C478.6,101.9,477.9,101.8,477.2,101.5z"/>
	<path class="st3" d="M495.4,91.3c0.7,0.3,1.2,0.9,1.5,1.6c0.4,0.7,0.6,1.5,0.6,2.5v6.4h-1.8v-6.1c0-1.1-0.3-1.9-0.8-2.5
		s-1.3-0.9-2.2-0.9c-0.9,0-1.7,0.3-2.3,0.9c-0.6,0.6-0.8,1.5-0.8,2.6v6h-1.8V87.2h1.8v5.3c0.4-0.6,0.8-1,1.5-1.3
		c0.6-0.3,1.3-0.5,2.1-0.5C494,90.7,494.8,90.9,495.4,91.3z"/>
	<path class="st3" d="M504,101.5c-0.7-0.3-1.2-0.7-1.6-1.2c-0.4-0.5-0.6-1.1-0.6-1.7h1.9c0.1,0.5,0.3,1,0.8,1.3s1,0.5,1.8,0.5
		c0.7,0,1.2-0.2,1.6-0.5c0.4-0.3,0.6-0.7,0.6-1.1c0-0.5-0.2-0.8-0.6-1.1c-0.4-0.2-1.1-0.5-1.9-0.7c-0.8-0.2-1.5-0.4-2-0.6
		c-0.5-0.2-0.9-0.5-1.3-1c-0.4-0.4-0.5-1-0.5-1.7c0-0.6,0.2-1.1,0.5-1.5c0.3-0.5,0.8-0.8,1.4-1.1c0.6-0.3,1.3-0.4,2.1-0.4
		c1.2,0,2.2,0.3,2.9,0.9c0.7,0.6,1.1,1.4,1.2,2.5h-1.8c0-0.6-0.3-1-0.7-1.4c-0.4-0.3-1-0.5-1.7-0.5c-0.6,0-1.2,0.1-1.5,0.4
		c-0.4,0.3-0.6,0.6-0.6,1.1c0,0.4,0.1,0.6,0.3,0.9s0.5,0.4,0.9,0.6c0.3,0.1,0.8,0.3,1.4,0.5c0.8,0.2,1.4,0.4,1.9,0.6
		c0.5,0.2,0.9,0.5,1.3,0.9c0.3,0.4,0.5,0.9,0.5,1.6c0,0.6-0.2,1.1-0.5,1.6s-0.8,0.8-1.4,1.1c-0.6,0.3-1.3,0.4-2.1,0.4
		C505.4,101.9,504.7,101.8,504,101.5z"/>
	<path class="st3" d="M529,90.9l-3.4,10.8h-1.9l-2.6-8.6l-2.6,8.6h-1.9l-3.4-10.8h1.8l2.5,9.1l2.7-9.1h1.8l2.6,9.1l2.4-9.1H529z"/>
	<path class="st3" d="M532.8,93.4c0.4-0.8,1.1-1.5,1.8-1.9c0.8-0.5,1.7-0.7,2.6-0.7c0.9,0,1.8,0.2,2.5,0.6c0.7,0.4,1.2,0.9,1.6,1.5
		v-2h1.8v10.8h-1.8v-2c-0.4,0.6-0.9,1.2-1.6,1.6s-1.5,0.6-2.5,0.6c-1,0-1.8-0.2-2.6-0.7c-0.8-0.5-1.4-1.1-1.8-2
		c-0.4-0.9-0.7-1.8-0.7-2.9C532.1,95.2,532.3,94.2,532.8,93.4z M540.8,94.2c-0.3-0.6-0.8-1.1-1.3-1.4c-0.6-0.3-1.2-0.5-1.8-0.5
		c-0.7,0-1.3,0.2-1.8,0.5c-0.6,0.3-1,0.8-1.3,1.4c-0.3,0.6-0.5,1.3-0.5,2.1c0,0.8,0.2,1.5,0.5,2.2s0.8,1.1,1.3,1.4
		c0.6,0.3,1.2,0.5,1.8,0.5c0.7,0,1.3-0.2,1.8-0.5c0.6-0.3,1-0.8,1.3-1.4s0.5-1.3,0.5-2.1S541.1,94.8,540.8,94.2z"/>
	<path class="st3" d="M551.4,91.4c0.7-0.4,1.5-0.6,2.5-0.6c1,0,1.8,0.2,2.6,0.7c0.8,0.5,1.4,1.1,1.8,1.9s0.7,1.8,0.7,2.9
		c0,1.1-0.2,2.1-0.7,2.9c-0.4,0.9-1.1,1.5-1.8,2c-0.8,0.5-1.7,0.7-2.6,0.7c-0.9,0-1.7-0.2-2.4-0.6s-1.2-0.9-1.6-1.5v7.1h-1.8V90.9
		h1.8v2C550.2,92.3,550.7,91.8,551.4,91.4z M556.7,94.2c-0.3-0.6-0.8-1.1-1.3-1.4c-0.6-0.3-1.2-0.5-1.8-0.5c-0.7,0-1.3,0.2-1.8,0.5
		c-0.6,0.3-1,0.8-1.3,1.4c-0.3,0.6-0.5,1.3-0.5,2.1c0,0.8,0.2,1.5,0.5,2.1c0.3,0.6,0.8,1.1,1.3,1.4c0.6,0.3,1.2,0.5,1.8,0.5
		c0.7,0,1.3-0.2,1.8-0.5c0.6-0.3,1-0.8,1.3-1.4s0.5-1.3,0.5-2.2C557.2,95.5,557,94.8,556.7,94.2z"/>
</g>
<path class="st0" d="M468.7,93c0,0,0.7,1.7,1.1,2.4c0.4,0.7,0.2-2.8,0.2-2.8L468.7,93z"/>
<polygon class="st2" points="517,102.7 518.5,102.7 519.1,104.2 516.8,103.8 "/>
<polygon class="st2" points="524.1,102.7 525.6,102.7 526.2,104.2 523.9,103.8 "/>
<g>
	<path class="st4" d="M76.9,300.6v1.5H71v4.6h4.8v1.5H71v6.2h-1.8v-13.7H76.9z"/>
	<path class="st4" d="M81.9,299.8v14.5h-1.8v-14.5H81.9z"/>
	<path class="st4" d="M85.9,306c0.4-0.8,1.1-1.5,1.8-1.9c0.8-0.5,1.6-0.7,2.6-0.7c0.9,0,1.8,0.2,2.4,0.6c0.7,0.4,1.2,0.9,1.5,1.5v-2
		h1.8v10.7h-1.8v-2c-0.4,0.6-0.9,1.1-1.6,1.6c-0.7,0.4-1.5,0.6-2.4,0.6c-1,0-1.8-0.2-2.6-0.7c-0.8-0.5-1.4-1.1-1.8-2
		c-0.4-0.8-0.7-1.8-0.7-2.9C85.2,307.8,85.4,306.8,85.9,306z M93.8,306.8c-0.3-0.6-0.8-1.1-1.3-1.4c-0.6-0.3-1.2-0.5-1.8-0.5
		c-0.7,0-1.3,0.2-1.8,0.5s-1,0.8-1.3,1.4c-0.3,0.6-0.5,1.3-0.5,2.1c0,0.8,0.2,1.5,0.5,2.1c0.3,0.6,0.8,1.1,1.3,1.4s1.2,0.5,1.8,0.5
		c0.7,0,1.3-0.2,1.8-0.5c0.6-0.3,1-0.8,1.3-1.4c0.3-0.6,0.5-1.3,0.5-2.1S94.1,307.4,93.8,306.8z"/>
	<path class="st4" d="M101.7,314c-0.7-0.3-1.2-0.7-1.5-1.2c-0.4-0.5-0.6-1.1-0.6-1.7h1.8c0.1,0.5,0.3,1,0.8,1.3s1,0.5,1.8,0.5
		c0.7,0,1.2-0.2,1.6-0.5c0.4-0.3,0.6-0.7,0.6-1.1c0-0.5-0.2-0.8-0.6-1c-0.4-0.2-1.1-0.5-1.9-0.7c-0.8-0.2-1.4-0.4-1.9-0.6
		c-0.5-0.2-0.9-0.5-1.3-1c-0.4-0.4-0.5-1-0.5-1.7c0-0.5,0.2-1.1,0.5-1.5c0.3-0.5,0.8-0.8,1.4-1.1s1.3-0.4,2.1-0.4
		c1.2,0,2.1,0.3,2.9,0.9s1.1,1.4,1.2,2.5h-1.8c0-0.6-0.3-1-0.7-1.4c-0.4-0.3-1-0.5-1.7-0.5c-0.6,0-1.1,0.1-1.5,0.4s-0.6,0.6-0.6,1.1
		c0,0.4,0.1,0.6,0.3,0.9s0.5,0.4,0.9,0.5c0.3,0.1,0.8,0.3,1.4,0.5c0.8,0.2,1.4,0.4,1.9,0.6s0.9,0.5,1.2,0.9c0.3,0.4,0.5,0.9,0.5,1.6
		c0,0.6-0.2,1.1-0.5,1.6c-0.3,0.5-0.8,0.8-1.4,1.1c-0.6,0.3-1.3,0.4-2,0.4C103.1,314.4,102.3,314.3,101.7,314z"/>
	<path class="st4" d="M118.8,303.9c0.7,0.3,1.2,0.9,1.5,1.6c0.4,0.7,0.6,1.5,0.6,2.5v6.3h-1.8v-6.1c0-1.1-0.3-1.9-0.8-2.5
		c-0.5-0.6-1.3-0.9-2.2-0.9c-0.9,0-1.7,0.3-2.2,0.9c-0.6,0.6-0.8,1.4-0.8,2.6v5.9h-1.8v-14.5h1.8v5.3c0.4-0.5,0.8-1,1.5-1.3
		c0.6-0.3,1.3-0.5,2.1-0.5C117.4,303.3,118.2,303.5,118.8,303.9z"/>
	<path class="st4" d="M126.4,314c-0.7-0.3-1.2-0.7-1.5-1.2c-0.4-0.5-0.6-1.1-0.6-1.7h1.8c0.1,0.5,0.3,1,0.8,1.3s1,0.5,1.8,0.5
		c0.7,0,1.2-0.2,1.6-0.5c0.4-0.3,0.6-0.7,0.6-1.1c0-0.5-0.2-0.8-0.6-1c-0.4-0.2-1.1-0.5-1.9-0.7c-0.8-0.2-1.4-0.4-1.9-0.6
		c-0.5-0.2-0.9-0.5-1.3-1c-0.4-0.4-0.5-1-0.5-1.7c0-0.5,0.2-1.1,0.5-1.5c0.3-0.5,0.8-0.8,1.4-1.1s1.3-0.4,2.1-0.4
		c1.2,0,2.1,0.3,2.9,0.9s1.1,1.4,1.2,2.5h-1.8c0-0.6-0.3-1-0.7-1.4c-0.4-0.3-1-0.5-1.7-0.5c-0.6,0-1.1,0.1-1.5,0.4s-0.6,0.6-0.6,1.1
		c0,0.4,0.1,0.6,0.3,0.9s0.5,0.4,0.9,0.5c0.3,0.1,0.8,0.3,1.4,0.5c0.8,0.2,1.4,0.4,1.9,0.6s0.9,0.5,1.2,0.9c0.3,0.4,0.5,0.9,0.5,1.6
		c0,0.6-0.2,1.1-0.5,1.6c-0.3,0.5-0.8,0.8-1.4,1.1c-0.6,0.3-1.3,0.4-2,0.4C127.8,314.4,127.1,314.3,126.4,314z"/>
	<path class="st4" d="M150.3,303.5l-3.3,10.7h-1.8l-2.6-8.5l-2.6,8.5h-1.8l-3.4-10.7h1.8l2.5,9l2.7-9h1.8l2.6,9l2.4-9H150.3z"/>
	<path class="st4" d="M153.1,306c0.4-0.8,1.1-1.5,1.8-1.9c0.8-0.5,1.6-0.7,2.6-0.7c0.9,0,1.8,0.2,2.4,0.6c0.7,0.4,1.2,0.9,1.5,1.5
		v-2h1.8v10.7h-1.8v-2c-0.4,0.6-0.9,1.1-1.6,1.6c-0.7,0.4-1.5,0.6-2.4,0.6c-1,0-1.8-0.2-2.6-0.7c-0.8-0.5-1.4-1.1-1.8-2
		c-0.4-0.8-0.7-1.8-0.7-2.9C152.4,307.8,152.6,306.8,153.1,306z M161,306.8c-0.3-0.6-0.8-1.1-1.3-1.4c-0.6-0.3-1.2-0.5-1.8-0.5
		c-0.7,0-1.3,0.2-1.8,0.5s-1,0.8-1.3,1.4c-0.3,0.6-0.5,1.3-0.5,2.1c0,0.8,0.2,1.5,0.5,2.1c0.3,0.6,0.8,1.1,1.3,1.4s1.2,0.5,1.8,0.5
		c0.7,0,1.3-0.2,1.8-0.5c0.6-0.3,1-0.8,1.3-1.4c0.3-0.6,0.5-1.3,0.5-2.1S161.3,307.4,161,306.8z"/>
	<path class="st4" d="M170.7,304c0.7-0.4,1.5-0.6,2.4-0.6c1,0,1.8,0.2,2.6,0.7c0.8,0.5,1.4,1.1,1.8,1.9c0.4,0.8,0.7,1.8,0.7,2.9
		c0,1.1-0.2,2.1-0.7,2.9c-0.4,0.8-1.1,1.5-1.8,2c-0.8,0.5-1.6,0.7-2.6,0.7c-0.9,0-1.7-0.2-2.4-0.6c-0.7-0.4-1.2-0.9-1.6-1.5v7.1
		h-1.8v-15.8h1.8v2C169.4,304.9,170,304.4,170.7,304z M175.9,306.7c-0.3-0.6-0.8-1.1-1.3-1.4c-0.6-0.3-1.2-0.5-1.8-0.5
		c-0.7,0-1.3,0.2-1.8,0.5c-0.6,0.3-1,0.8-1.3,1.4c-0.3,0.6-0.5,1.3-0.5,2.1c0,0.8,0.2,1.5,0.5,2.1c0.3,0.6,0.8,1.1,1.3,1.4
		c0.6,0.3,1.2,0.5,1.8,0.5c0.7,0,1.3-0.2,1.8-0.5c0.6-0.3,1-0.8,1.3-1.4c0.3-0.6,0.5-1.3,0.5-2.1C176.4,308,176.2,307.3,175.9,306.7
		z"/>
</g>
<g>
	<path class="st1" d="M457.4,10.6h-7v7.3h-2.2V1.3h10.3v1.8h-8.1v5.7h7V10.6z"/>
	<path class="st1" d="M463.1,17.9H461V0.4h2.1V17.9z"/>
	<path class="st1" d="M474.1,17.9c-0.1-0.2-0.2-0.7-0.3-1.3c-1,1-2.1,1.5-3.5,1.5c-1.2,0-2.2-0.3-3-1c-0.8-0.7-1.2-1.6-1.2-2.6
		c0-1.3,0.5-2.3,1.5-3c1-0.7,2.3-1.1,4.1-1.1h2v-1c0-0.7-0.2-1.3-0.7-1.8c-0.4-0.4-1.1-0.7-1.9-0.7c-0.8,0-1.4,0.2-1.9,0.6
		c-0.5,0.4-0.8,0.8-0.8,1.4h-2.1c0-0.6,0.2-1.2,0.7-1.8s1-1,1.8-1.4s1.6-0.5,2.5-0.5c1.4,0,2.5,0.4,3.3,1.1c0.8,0.7,1.2,1.7,1.3,2.9
		V15c0,1.1,0.1,2,0.4,2.7v0.2H474.1z M470.6,16.3c0.7,0,1.3-0.2,1.9-0.5c0.6-0.3,1-0.8,1.3-1.3v-2.5h-1.7c-2.6,0-3.9,0.8-3.9,2.3
		c0,0.7,0.2,1.2,0.7,1.5C469.3,16.1,469.9,16.3,470.6,16.3z"/>
	<path class="st1" d="M486.4,14.6c0-0.6-0.2-1-0.6-1.3s-1.2-0.6-2.2-0.8c-1.1-0.2-1.9-0.5-2.5-0.8c-0.6-0.3-1.1-0.7-1.4-1.1
		c-0.3-0.4-0.5-1-0.5-1.6c0-1,0.4-1.9,1.3-2.6c0.9-0.7,1.9-1,3.3-1c1.4,0,2.5,0.4,3.4,1.1s1.3,1.6,1.3,2.8h-2.1
		c0-0.6-0.2-1.1-0.7-1.5c-0.5-0.4-1.1-0.6-1.9-0.6c-0.8,0-1.4,0.2-1.8,0.5s-0.6,0.8-0.6,1.3c0,0.5,0.2,0.9,0.6,1.1
		c0.4,0.3,1.1,0.5,2.2,0.7c1.1,0.2,1.9,0.5,2.6,0.8c0.7,0.3,1.1,0.7,1.5,1.2c0.3,0.5,0.5,1,0.5,1.7c0,1.1-0.4,2-1.3,2.6s-2,1-3.4,1
		c-1,0-1.9-0.2-2.6-0.5s-1.4-0.8-1.8-1.5c-0.4-0.6-0.6-1.3-0.6-2h2.1c0,0.7,0.3,1.3,0.8,1.7c0.5,0.4,1.2,0.6,2.1,0.6
		c0.8,0,1.4-0.2,1.9-0.5C486.1,15.6,486.4,15.2,486.4,14.6z"/>
	<path class="st1" d="M493.3,7.1c0.9-1.1,2.1-1.7,3.6-1.7c2.6,0,3.9,1.5,3.9,4.4v8.1h-2.1V9.8c0-0.9-0.2-1.5-0.6-2
		c-0.4-0.4-1-0.6-1.9-0.6c-0.7,0-1.3,0.2-1.8,0.5c-0.5,0.4-0.9,0.8-1.2,1.4v8.8h-2.1V0.4h2.1V7.1z"/>
	<path class="st1" d="M511.2,14.6c0-0.6-0.2-1-0.6-1.3s-1.2-0.6-2.2-0.8c-1.1-0.2-1.9-0.5-2.5-0.8c-0.6-0.3-1.1-0.7-1.4-1.1
		c-0.3-0.4-0.5-1-0.5-1.6c0-1,0.4-1.9,1.3-2.6c0.9-0.7,1.9-1,3.3-1c1.4,0,2.5,0.4,3.4,1.1s1.3,1.6,1.3,2.8h-2.1
		c0-0.6-0.2-1.1-0.7-1.5c-0.5-0.4-1.1-0.6-1.9-0.6c-0.8,0-1.4,0.2-1.8,0.5s-0.6,0.8-0.6,1.3c0,0.5,0.2,0.9,0.6,1.1
		c0.4,0.3,1.1,0.5,2.2,0.7c1.1,0.2,1.9,0.5,2.6,0.8c0.7,0.3,1.1,0.7,1.5,1.2c0.3,0.5,0.5,1,0.5,1.7c0,1.1-0.4,2-1.3,2.6s-2,1-3.4,1
		c-1,0-1.9-0.2-2.6-0.5c-0.8-0.3-1.4-0.8-1.8-1.5c-0.4-0.6-0.6-1.3-0.6-2h2.1c0,0.7,0.3,1.3,0.8,1.7c0.5,0.4,1.2,0.6,2.1,0.6
		c0.8,0,1.4-0.2,1.9-0.5C511,15.6,511.2,15.2,511.2,14.6z"/>
	<path class="st1" d="M527,15l2.4-9.4h2.1l-3.6,12.3h-1.7l-3-9.3l-2.9,9.3h-1.7L515,5.6h2.1l2.4,9.2l2.9-9.2h1.7L527,15z"/>
	<path class="st1" d="M541.2,17.9c-0.1-0.2-0.2-0.7-0.3-1.3c-1,1-2.1,1.5-3.5,1.5c-1.2,0-2.2-0.3-3-1s-1.2-1.6-1.2-2.6
		c0-1.3,0.5-2.3,1.5-3s2.3-1.1,4.1-1.1h2v-1c0-0.7-0.2-1.3-0.7-1.8s-1.1-0.7-1.9-0.7c-0.8,0-1.4,0.2-1.9,0.6
		c-0.5,0.4-0.8,0.8-0.8,1.4h-2.1c0-0.6,0.2-1.2,0.7-1.8s1-1,1.8-1.4s1.6-0.5,2.5-0.5c1.4,0,2.5,0.4,3.3,1.1c0.8,0.7,1.2,1.7,1.3,2.9
		V15c0,1.1,0.1,2,0.4,2.7v0.2H541.2z M537.7,16.3c0.7,0,1.3-0.2,1.9-0.5c0.6-0.3,1-0.8,1.3-1.3v-2.5h-1.7c-2.6,0-3.9,0.8-3.9,2.3
		c0,0.7,0.2,1.2,0.7,1.5C536.5,16.1,537,16.3,537.7,16.3z"/>
	<path class="st1" d="M556.7,11.9c0,1.9-0.4,3.4-1.3,4.5c-0.9,1.1-2,1.7-3.5,1.7c-1.5,0-2.7-0.5-3.5-1.4v5.9h-2.1V5.6h1.9l0.1,1.4
		c0.9-1.1,2-1.6,3.6-1.6c1.5,0,2.7,0.6,3.5,1.7c0.9,1.1,1.3,2.7,1.3,4.7V11.9z M554.6,11.7c0-1.4-0.3-2.5-0.9-3.3
		c-0.6-0.8-1.4-1.2-2.4-1.2c-1.3,0-2.2,0.6-2.9,1.7v5.9c0.6,1.1,1.6,1.7,2.9,1.7c1,0,1.8-0.4,2.4-1.2
		C554.3,14.4,554.6,13.2,554.6,11.7z"/>
</g>
<path class="st1" d="M859,328.7v2.5h-4.1v12.9h-3.1v-12.9h-4.1v-2.5H859z M866.7,344.3c-1.2,0-2.2-0.3-3.2-0.8
	c-0.9-0.5-1.7-1.3-2.2-2.2c-0.5-1-0.8-2.1-0.8-3.3s0.3-2.3,0.8-3.3c0.6-1,1.3-1.7,2.3-2.2c1-0.5,2-0.8,3.2-0.8
	c1.2,0,2.2,0.3,3.2,0.8c1,0.5,1.7,1.2,2.2,2.2c0.6,1,0.8,2.1,0.8,3.3s-0.3,2.3-0.9,3.3c-0.6,1-1.3,1.7-2.3,2.2
	C868.9,344,867.9,344.3,866.7,344.3z M866.7,341.6c0.6,0,1.1-0.1,1.6-0.4c0.5-0.3,0.9-0.7,1.2-1.2c0.3-0.5,0.4-1.2,0.4-2
	c0-1.2-0.3-2-0.9-2.7c-0.6-0.6-1.3-0.9-2.2-0.9s-1.6,0.3-2.2,0.9c-0.6,0.6-0.9,1.5-0.9,2.7s0.3,2.1,0.9,2.7
	C865.1,341.3,865.8,341.6,866.7,341.6z M882.5,344.1l-4.1-5.2v5.2h-3.1v-16.3h3.1v9.3l4.1-5.2h4l-5.4,6.1l5.4,6.1H882.5z
	 M899.5,337.7c0,0.4,0,0.8-0.1,1.2h-8.9c0.1,0.9,0.4,1.6,0.9,2.1c0.5,0.5,1.2,0.7,2,0.7c1.1,0,2-0.5,2.4-1.5h3.3
	c-0.4,1.2-1,2.1-2,2.9c-1,0.7-2.2,1.1-3.7,1.1c-1.2,0-2.2-0.3-3.2-0.8c-0.9-0.5-1.6-1.3-2.2-2.2c-0.5-1-0.8-2.1-0.8-3.3
	c0-1.3,0.3-2.4,0.8-3.3c0.5-1,1.2-1.7,2.2-2.2s2-0.8,3.2-0.8c1.2,0,2.2,0.2,3.1,0.7c0.9,0.5,1.6,1.2,2.1,2.1
	C899.2,335.5,899.5,336.5,899.5,337.7z M896.3,336.8c0-0.8-0.3-1.4-0.9-1.9c-0.6-0.5-1.2-0.7-2-0.7c-0.8,0-1.4,0.2-1.9,0.7
	c-0.5,0.5-0.8,1.1-0.9,1.9H896.3z M908.5,331.7c1.5,0,2.6,0.5,3.5,1.4c0.9,0.9,1.3,2.2,1.3,3.8v7.1h-3.1v-6.7c0-1-0.2-1.7-0.7-2.2
	c-0.5-0.5-1.1-0.8-2-0.8c-0.9,0-1.5,0.3-2,0.8c-0.5,0.5-0.7,1.3-0.7,2.2v6.7h-3.1v-12.2h3.1v1.5c0.4-0.5,0.9-0.9,1.6-1.2
	C907,331.9,907.7,331.7,908.5,331.7z"/>
<g>
	<path class="st4" d="M837.5,300.6v1.5h-5.9v4.6h4.8v1.5h-4.8v6.2h-1.8v-13.7H837.5z"/>
	<path class="st4" d="M842.4,299.8v14.5h-1.8v-14.5H842.4z"/>
	<path class="st4" d="M846.4,306c0.4-0.8,1.1-1.5,1.8-1.9c0.8-0.5,1.6-0.7,2.6-0.7c0.9,0,1.8,0.2,2.4,0.6c0.7,0.4,1.2,0.9,1.5,1.5
		v-2h1.8v10.7h-1.8v-2c-0.4,0.6-0.9,1.1-1.6,1.6c-0.7,0.4-1.5,0.6-2.4,0.6c-1,0-1.8-0.2-2.6-0.7c-0.8-0.5-1.4-1.1-1.8-2
		c-0.4-0.8-0.7-1.8-0.7-2.9C845.8,307.8,846,306.8,846.4,306z M854.4,306.8c-0.3-0.6-0.8-1.1-1.3-1.4c-0.6-0.3-1.2-0.5-1.8-0.5
		c-0.7,0-1.3,0.2-1.8,0.5s-1,0.8-1.3,1.4c-0.3,0.6-0.5,1.3-0.5,2.1c0,0.8,0.2,1.5,0.5,2.1c0.3,0.6,0.8,1.1,1.3,1.4s1.2,0.5,1.8,0.5
		c0.7,0,1.3-0.2,1.8-0.5c0.6-0.3,1-0.8,1.3-1.4c0.3-0.6,0.5-1.3,0.5-2.1S854.7,307.4,854.4,306.8z"/>
	<path class="st4" d="M862.2,314c-0.7-0.3-1.2-0.7-1.5-1.2c-0.4-0.5-0.6-1.1-0.6-1.7h1.8c0.1,0.5,0.3,1,0.8,1.3s1,0.5,1.8,0.5
		c0.7,0,1.2-0.2,1.6-0.5c0.4-0.3,0.6-0.7,0.6-1.1c0-0.5-0.2-0.8-0.6-1c-0.4-0.2-1.1-0.5-1.9-0.7c-0.8-0.2-1.4-0.4-1.9-0.6
		c-0.5-0.2-0.9-0.5-1.3-1c-0.4-0.4-0.5-1-0.5-1.7c0-0.5,0.2-1.1,0.5-1.5c0.3-0.5,0.8-0.8,1.4-1.1s1.3-0.4,2.1-0.4
		c1.2,0,2.1,0.3,2.9,0.9s1.1,1.4,1.2,2.5h-1.8c0-0.6-0.3-1-0.7-1.4c-0.4-0.3-1-0.5-1.7-0.5c-0.6,0-1.1,0.1-1.5,0.4s-0.6,0.6-0.6,1.1
		c0,0.4,0.1,0.6,0.3,0.9s0.5,0.4,0.9,0.5c0.3,0.1,0.8,0.3,1.4,0.5c0.8,0.2,1.4,0.4,1.9,0.6s0.9,0.5,1.2,0.9c0.3,0.4,0.5,0.9,0.5,1.6
		c0,0.6-0.2,1.1-0.5,1.6c-0.3,0.5-0.8,0.8-1.4,1.1c-0.6,0.3-1.3,0.4-2,0.4C863.6,314.4,862.9,314.3,862.2,314z"/>
	<path class="st4" d="M879.4,303.9c0.7,0.3,1.2,0.9,1.5,1.6c0.4,0.7,0.6,1.5,0.6,2.5v6.3h-1.8v-6.1c0-1.1-0.3-1.9-0.8-2.5
		c-0.5-0.6-1.3-0.9-2.2-0.9c-0.9,0-1.7,0.3-2.2,0.9c-0.6,0.6-0.8,1.4-0.8,2.6v5.9h-1.8v-14.5h1.8v5.3c0.4-0.5,0.8-1,1.5-1.3
		c0.6-0.3,1.3-0.5,2.1-0.5C878,303.3,878.7,303.5,879.4,303.9z"/>
	<path class="st4" d="M887,314c-0.7-0.3-1.2-0.7-1.5-1.2c-0.4-0.5-0.6-1.1-0.6-1.7h1.8c0.1,0.5,0.3,1,0.8,1.3s1,0.5,1.8,0.5
		c0.7,0,1.2-0.2,1.6-0.5c0.4-0.3,0.6-0.7,0.6-1.1c0-0.5-0.2-0.8-0.6-1c-0.4-0.2-1.1-0.5-1.9-0.7c-0.8-0.2-1.4-0.4-1.9-0.6
		c-0.5-0.2-0.9-0.5-1.3-1c-0.4-0.4-0.5-1-0.5-1.7c0-0.5,0.2-1.1,0.5-1.5c0.3-0.5,0.8-0.8,1.4-1.1s1.3-0.4,2.1-0.4
		c1.2,0,2.1,0.3,2.9,0.9s1.1,1.4,1.2,2.5h-1.8c0-0.6-0.3-1-0.7-1.4c-0.4-0.3-1-0.5-1.7-0.5c-0.6,0-1.1,0.1-1.5,0.4s-0.6,0.6-0.6,1.1
		c0,0.4,0.1,0.6,0.3,0.9s0.5,0.4,0.9,0.5c0.3,0.1,0.8,0.3,1.4,0.5c0.8,0.2,1.4,0.4,1.9,0.6s0.9,0.5,1.2,0.9c0.3,0.4,0.5,0.9,0.5,1.6
		c0,0.6-0.2,1.1-0.5,1.6c-0.3,0.5-0.8,0.8-1.4,1.1c-0.6,0.3-1.3,0.4-2,0.4C888.3,314.4,887.6,314.3,887,314z"/>
	<path class="st4" d="M910.9,303.5l-3.3,10.7h-1.8l-2.6-8.5l-2.6,8.5h-1.8l-3.4-10.7h1.8l2.5,9l2.7-9h1.8l2.6,9l2.4-9H910.9z"/>
	<path class="st4" d="M913.6,306c0.4-0.8,1.1-1.5,1.8-1.9c0.8-0.5,1.6-0.7,2.6-0.7c0.9,0,1.8,0.2,2.4,0.6c0.7,0.4,1.2,0.9,1.5,1.5
		v-2h1.8v10.7H922v-2c-0.4,0.6-0.9,1.1-1.6,1.6c-0.7,0.4-1.5,0.6-2.4,0.6c-1,0-1.8-0.2-2.6-0.7c-0.8-0.5-1.4-1.1-1.8-2
		c-0.4-0.8-0.7-1.8-0.7-2.9C912.9,307.8,913.2,306.8,913.6,306z M921.5,306.8c-0.3-0.6-0.8-1.1-1.3-1.4c-0.6-0.3-1.2-0.5-1.8-0.5
		c-0.7,0-1.3,0.2-1.8,0.5s-1,0.8-1.3,1.4c-0.3,0.6-0.5,1.3-0.5,2.1c0,0.8,0.2,1.5,0.5,2.1c0.3,0.6,0.8,1.1,1.3,1.4s1.2,0.5,1.8,0.5
		c0.7,0,1.3-0.2,1.8-0.5c0.6-0.3,1-0.8,1.3-1.4c0.3-0.6,0.5-1.3,0.5-2.1S921.9,307.4,921.5,306.8z"/>
	<path class="st4" d="M931.2,304c0.7-0.4,1.5-0.6,2.4-0.6c1,0,1.8,0.2,2.6,0.7c0.8,0.5,1.4,1.1,1.8,1.9c0.4,0.8,0.7,1.8,0.7,2.9
		c0,1.1-0.2,2.1-0.7,2.9c-0.4,0.8-1.1,1.5-1.8,2c-0.8,0.5-1.6,0.7-2.6,0.7c-0.9,0-1.7-0.2-2.4-0.6c-0.7-0.4-1.2-0.9-1.6-1.5v7.1
		h-1.8v-15.8h1.8v2C930,304.9,930.5,304.4,931.2,304z M936.4,306.7c-0.3-0.6-0.8-1.1-1.3-1.4c-0.6-0.3-1.2-0.5-1.8-0.5
		c-0.7,0-1.3,0.2-1.8,0.5c-0.6,0.3-1,0.8-1.3,1.4c-0.3,0.6-0.5,1.3-0.5,2.1c0,0.8,0.2,1.5,0.5,2.1c0.3,0.6,0.8,1.1,1.3,1.4
		c0.6,0.3,1.2,0.5,1.8,0.5c0.7,0,1.3-0.2,1.8-0.5c0.6-0.3,1-0.8,1.3-1.4c0.3-0.6,0.5-1.3,0.5-2.1C936.9,308,936.7,307.3,936.4,306.7
		z"/>
</g>
</svg>
