<svg width="156" height="44" viewBox="0 0 156 44" fill="none" xmlns="http://www.w3.org/2000/svg">
<path d="M28.3926 22.338C28.0223 22.2434 28.036 21.7431 28.3926 21.6484C33.3305 20.3909 36.9379 15.9017 36.7458 10.6011C36.5401 4.63798 31.3965 0 25.3476 0H3.01758C1.34419 0 0 1.32514 0 2.9748V41.0252C0 42.6613 1.34419 44 3.01758 44H25.6082C31.7668 44 36.7596 39.0781 36.7596 33.0068C36.7596 32.3442 36.7047 31.7087 36.595 31.0867C35.8406 26.8138 32.5898 23.4063 28.3926 22.338ZM24.7167 31.5464H11.7137C10.877 31.5464 10.1089 30.8027 10.1089 29.9914V13.5353C10.1089 12.8998 10.5889 12.4401 11.2336 12.4401H24.168C25.0184 12.4401 25.5808 13.4813 25.0322 14.0086L17.886 21.0264C17.3511 21.5538 17.4334 22.4868 18.078 23.1223L25.1556 30.0725C25.7454 30.6675 25.4848 31.5464 24.7167 31.5464Z" fill="#F3C640"/>
<path d="M76.6873 21.1886C81.0079 19.6607 83.1065 16.6994 82.983 12.3183C82.8596 6.16589 78.6624 3.02883 70.3915 2.92065H52.6701C51.7237 2.92065 50.9556 3.67788 50.9556 4.61088V6.58507C50.9556 7.51807 51.7237 8.27529 52.6701 8.27529L68.046 8.24825C72.1198 8.24825 74.1635 9.91143 74.1635 13.2108C74.2869 16.6453 72.3666 18.349 68.4027 18.349H61.3113C60.3649 18.349 59.5968 17.5918 59.5968 16.6588V11.6557C59.5968 10.7227 58.8287 9.96552 57.8823 9.96552H52.6701C51.7237 9.96552 50.9556 10.7227 50.9556 11.6557V32.6416C50.9556 33.5746 51.7237 34.3318 52.6701 34.3318H57.8823C58.8287 34.3318 59.5968 33.5746 59.5968 32.6416V26.4216C59.5968 25.4886 60.3649 24.7313 61.3113 24.7313H69.3216C73.6423 24.7313 75.7957 26.692 75.7957 30.5863C75.9192 34.2507 73.752 36.0897 69.3216 36.0897L52.6701 36.0356C51.7237 36.0356 50.9556 36.7928 50.9556 37.7258V39.3755C50.9556 40.3085 51.7237 41.0657 52.6701 41.0657H70.0349C80.1163 41.2956 84.9719 37.6312 84.6153 30.0725C84.3547 25.5697 81.7211 22.6084 76.6873 21.1886Z" fill="#F3C640"/>
<path d="M96.3843 13.9141H91.1584C90.212 13.9141 89.4438 14.6713 89.4438 15.6043V39.3757C89.4438 40.3087 90.212 41.0659 91.1584 41.0659H96.3843C97.3307 41.0659 98.0988 40.3087 98.0988 39.3757V15.6043C98.0988 14.6713 97.3307 13.9141 96.3843 13.9141Z" fill="#F3C640"/>
<path d="M96.3843 3.31287H91.1584C90.212 3.31287 89.4438 4.07009 89.4438 5.00309V8.53229C89.4438 9.46529 90.212 10.2225 91.1584 10.2225H96.3843C97.3307 10.2225 98.0988 9.46529 98.0988 8.53229V5.00309C98.0988 4.08361 97.3307 3.31287 96.3843 3.31287Z" fill="#F3C640"/>
<path d="M127.685 20.4179C127.122 19.6742 127.191 18.5113 127.836 17.8487L141.14 4.13762C141.785 3.46153 141.552 2.92065 140.606 2.92065H132.87C131.923 2.92065 130.648 3.48857 130.017 4.19171L116.095 19.7418C115.477 20.4449 114.956 20.2421 114.956 19.3226V4.61088C114.956 3.67788 114.188 2.92065 113.242 2.92065H108.029C107.083 2.92065 106.315 3.67788 106.315 4.61088V39.3755C106.315 40.3085 107.083 41.0657 108.029 41.0657H113.242C114.188 41.0657 114.956 40.3085 114.956 39.3755V32.9932C114.956 32.0602 115.491 30.7486 116.136 30.0725L119.908 26.1376C120.552 25.4615 121.54 25.5156 122.116 26.2593L132.307 39.7C132.87 40.4437 134.104 41.0522 135.05 41.0522H141.703C142.649 41.0522 142.951 40.4437 142.389 39.7L127.685 20.4179Z" fill="#F3C640"/>
<path d="M153.704 13.9141H148.492C147.545 13.9141 146.777 14.6713 146.777 15.6043V39.3757C146.777 40.3087 147.545 41.0659 148.492 41.0659H153.704C154.65 41.0659 155.419 40.3087 155.419 39.3757V15.6043C155.419 14.6713 154.65 13.9141 153.704 13.9141Z" fill="#F3C640"/>
<path d="M153.705 3.31287H148.479C147.533 3.31287 146.765 4.07009 146.765 5.00309V8.53229C146.765 9.46529 147.533 10.2225 148.479 10.2225H153.705C154.652 10.2225 155.42 9.46529 155.42 8.53229V5.00309C155.42 4.08361 154.652 3.31287 153.705 3.31287Z" fill="#F3C640"/>
</svg>