<svg width="237" height="44" viewBox="0 0 237 44" fill="none" xmlns="http://www.w3.org/2000/svg">
<path opacity="0.6" d="M13.7417 30.3901L27.5 22.4064L13.7417 16.2763L0 22.4064L13.7417 30.3901Z" fill="black"/>
<path opacity="0.45" d="M13.7417 16.2764V0L0 22.4065L13.7417 30.3902V16.2764Z" fill="black"/>
<path opacity="0.8" d="M13.7422 30.3902L27.5005 22.4065L13.7422 3.05176e-05V16.2764V30.3902Z" fill="black"/>
<path opacity="0.45" d="M13.7417 32.9431L0 24.9756L13.7417 44V32.9431Z" fill="black"/>
<path opacity="0.8" d="M27.5005 24.9756L13.7422 32.9431V44L27.5005 24.9756Z" fill="black"/>
<path d="M65.1084 26.3661C65.1084 26.7906 64.7546 27.1481 64.3123 27.1481H49.6509C50.0268 30.8123 52.7468 34.1637 56.5946 34.1637C59.2261 34.1637 61.1721 33.1583 62.6317 31.0357C62.7864 30.8123 63.0076 30.6559 63.273 30.6559C63.6931 30.6559 64.0027 30.9687 64.0027 31.3932C64.0027 31.5496 63.9585 31.6613 63.8921 31.773C62.4105 34.3648 59.4694 35.6383 56.5946 35.6383C51.6632 35.6383 48.125 31.1698 48.125 26.4108C48.125 21.6295 51.6411 17.1833 56.5946 17.1833C61.526 17.1833 65.0863 21.6071 65.1084 26.3661ZM63.5383 25.6735C63.2287 22.0093 60.4424 18.6579 56.5946 18.6579C52.7468 18.6579 50.0268 22.0093 49.6509 25.6735H63.5383ZM82.91 17.5408C83.3302 17.5408 83.6398 17.9206 83.6398 18.2781C83.6398 18.7026 83.3302 19.0154 82.91 19.0154H78.9737V34.6329C78.9737 35.0127 78.6642 35.3702 78.244 35.3702C77.8238 35.3702 77.5142 34.9903 77.5142 34.6329V19.0154H73.7328C73.3126 19.0154 73.003 18.7026 73.003 18.2781C73.003 17.8983 73.3126 17.5408 73.7328 17.5408H77.5142V11.8434C77.5142 11.4636 77.8017 11.1061 78.1776 11.0614C78.642 11.0168 78.9959 11.3519 78.9959 11.7987V17.5408H82.91ZM106.926 25.0926V34.5435C106.926 34.968 106.55 35.2808 106.196 35.2808C105.776 35.2808 105.466 34.968 105.466 34.5435V25.0926C105.466 21.8976 103.675 18.7249 100.159 18.7249C95.6476 18.7249 93.7015 22.7019 93.9669 26.7906C93.9669 26.9023 94.0111 27.3715 94.0111 27.4386V34.5212C94.0111 34.901 93.7236 35.2585 93.3477 35.3031C92.8833 35.3478 92.5295 35.0127 92.5295 34.5658V3.48731C92.5295 3.10748 92.8391 2.75 93.2593 2.75C93.6794 2.75 93.989 3.12982 93.989 3.48731V21.0486C95.2495 18.7696 97.5051 17.228 100.137 17.228C104.471 17.228 106.926 21.0486 106.926 25.0926ZM133.263 26.3661C133.263 26.7906 132.909 27.1481 132.467 27.1481H117.806C118.182 30.8123 120.902 34.1637 124.749 34.1637C127.381 34.1637 129.327 33.1583 130.786 31.0357C130.941 30.8123 131.162 30.6559 131.428 30.6559C131.848 30.6559 132.157 30.9687 132.157 31.3932C132.157 31.5496 132.113 31.6613 132.047 31.773C130.565 34.3648 127.624 35.6383 124.749 35.6383C119.818 35.6383 116.28 31.1698 116.28 26.4108C116.28 21.6295 119.796 17.1833 124.749 17.1833C129.659 17.1833 133.219 21.6071 133.263 26.3661ZM131.671 25.6735C131.361 22.0093 128.575 18.6579 124.727 18.6579C120.901 18.6579 118.159 22.0093 117.783 25.6735H131.671ZM151.264 18.2334C151.264 18.7026 150.998 18.9707 150.578 19.0377C146.266 19.6857 144.32 23.2381 144.32 27.3715V34.4541C144.32 34.8339 144.033 35.1914 143.657 35.2361C143.192 35.2808 142.838 34.9457 142.838 34.4988V18.3451C142.838 17.9653 143.126 17.6078 143.502 17.5631C143.966 17.5184 144.32 17.8536 144.32 18.3004V21.5848C145.536 19.5069 147.947 17.5408 150.468 17.5408C150.844 17.5408 151.264 17.8089 151.264 18.2334ZM175.39 26.3661C175.39 26.7906 175.036 27.1481 174.594 27.1481H159.932C160.308 30.8123 163.028 34.1637 166.876 34.1637C169.508 34.1637 171.454 33.1583 172.913 31.0357C173.068 30.8123 173.289 30.6559 173.554 30.6559C173.975 30.6559 174.284 30.9687 174.284 31.3932C174.284 31.5496 174.24 31.6613 174.174 31.773C172.692 34.3648 169.751 35.6383 166.876 35.6383C161.945 35.6383 158.406 31.1698 158.406 26.4108C158.406 21.6295 161.923 17.1833 166.876 17.1833C171.807 17.1833 175.368 21.6071 175.39 26.3661ZM173.82 25.6735C173.51 22.0093 170.724 18.6579 166.876 18.6579C163.028 18.6579 160.308 22.0093 159.932 25.6735H173.82ZM199.096 18.4121V34.6329C199.096 35.0574 198.72 35.3702 198.366 35.3702C197.946 35.3702 197.636 35.0574 197.636 34.6329V31.5496C196.42 33.9849 194.275 35.75 191.533 35.75C187.177 35.75 184.766 31.9294 184.766 27.8854V18.3898C184.766 18.01 185.076 17.6525 185.496 17.6525C185.916 17.6525 186.226 18.0323 186.226 18.3898V27.8854C186.226 31.0804 188.017 34.253 191.533 34.253C196.464 34.253 197.636 29.5834 197.636 24.4223V18.3675C197.636 17.9206 198.101 17.4738 198.631 17.6748C198.897 17.8089 199.096 18.0994 199.096 18.4121ZM236.225 25.0256V34.5212C236.225 34.9457 235.849 35.2585 235.495 35.2585C235.075 35.2585 234.765 34.9457 234.765 34.5212V25.0256C234.765 21.8306 232.974 18.7026 229.458 18.7026C225.035 18.7026 223.355 23.4839 223.355 27.1928V34.5212C223.355 34.9457 222.979 35.2585 222.625 35.2585C222.205 35.2585 221.895 34.9457 221.895 34.5212V25.0256C221.895 21.8306 220.104 18.7026 216.588 18.7026C212.121 18.7026 210.285 22.2551 210.44 26.9917C210.44 27.1034 210.484 27.3045 210.44 27.3715V34.4988C210.44 34.8786 210.153 35.2361 209.777 35.2808C209.312 35.3255 208.959 34.9903 208.959 34.5435V18.3451C208.959 17.9653 209.246 17.6078 209.622 17.5631C210.086 17.5184 210.44 17.8536 210.44 18.3004V21.0039C211.701 18.7249 213.956 17.228 216.588 17.228C219.573 17.228 221.895 19.1495 222.846 21.9423C224.062 19.1718 226.429 17.228 229.458 17.228C233.77 17.228 236.225 21.0039 236.225 25.0256Z" fill="#3B3B3B"/>
</svg>