<?xml version="1.0" encoding="utf-8"?>
<!-- Generator: Adobe Illustrator 24.0.1, SVG Export Plug-In . SVG Version: 6.00 Build 0)  -->
<svg version="1.1" id="图层_1" xmlns="http://www.w3.org/2000/svg" xmlns:xlink="http://www.w3.org/1999/xlink" x="0px" y="0px"
	 viewBox="0 0 245.2 42" style="enable-background:new 0 0 245.2 42;" xml:space="preserve">
<style type="text/css">
	.st0{fill-rule:evenodd;clip-rule:evenodd;fill:#FFFFFF;}
	.st1{fill:#FFFFFF;}
	.st2{font-family:'Roboto-Regular';}
	.st3{font-size:31.6383px;}
</style>
<path class="st0" d="M15.5,3.4C7,3.4,0.2,10.3,0.2,18.7S7,34,15.5,34c8.4,0,15.3-6.8,15.3-15.3S23.9,3.4,15.5,3.4z M16,30.3
	c-6.2,0-11.2-5-11.2-11.2S9.8,7.8,16,7.8s11.2,5,11.2,11.2S22.2,30.3,16,30.3z"/>
<text transform="matrix(1 0 0 1 46.8483 32.2892)" class="st1 st2 st3">FLASHSWAP</text>
<polygon class="st1" points="23.3,0 6,22.4 14.7,20.2 4.7,42.1 24.6,14.9 16,17 "/>
</svg>
