<svg width="38" height="42" viewBox="0 0 38 42" fill="none" xmlns="http://www.w3.org/2000/svg">
<path fill-rule="evenodd" clip-rule="evenodd" d="M18.291 0.130005C18.6129 -0.0425539 18.9996 -0.0433774 19.3222 0.127809L37.2179 9.62346C37.5761 9.81351 37.8 10.1858 37.8 10.5913V31.4087C37.8 31.8142 37.5761 32.1865 37.2179 32.3765L19.3222 41.8722C18.9996 42.0434 18.6129 42.0426 18.291 41.87L0.577986 32.3743C0.222101 32.1836 0 31.8125 0 31.4087V10.5913C0 10.1875 0.222101 9.81644 0.577986 9.62566L18.291 0.130005ZM18.8113 2.33739L2.1913 11.2471V30.7529L18.8113 39.6626L35.6087 30.7497V11.2503L18.8113 2.33739Z" fill="white"/>
<path fill-rule="evenodd" clip-rule="evenodd" d="M0.329209 10.0438C0.524877 9.70459 0.886689 9.49561 1.27827 9.49561H36.5218C36.9142 9.49561 37.2767 9.70552 37.472 10.0459C37.6674 10.3863 37.6657 10.8052 37.4677 11.144L19.7547 41.4571C19.5578 41.794 19.1965 42.0008 18.8062 42C18.416 41.9991 18.0556 41.7907 17.8602 41.4528L0.329802 11.1398C0.133768 10.8008 0.133541 10.383 0.329209 10.0438ZM3.17758 11.6869L18.8136 38.7242L34.6125 11.6869H3.17758Z" fill="white"/>
</svg>
