<?xml version="1.0" encoding="utf-8"?>
<!-- Generator: Adobe Illustrator 24.0.1, SVG Export Plug-In . SVG Version: 6.00 Build 0)  -->
<svg version="1.1" id="图层_1" xmlns="http://www.w3.org/2000/svg" xmlns:xlink="http://www.w3.org/1999/xlink" x="0px" y="0px"
	 viewBox="0 0 1140 581" style="enable-background:new 0 0 1140 581;" xml:space="preserve">
<style type="text/css">
	.st0{fill:#FFFFFF;stroke:#122672;stroke-width:2;}
	.st1{fill:#122672;}
	.st2{fill:none;stroke:#122672;stroke-width:2;}
	.st3{fill:#122672;stroke:#122672;stroke-miterlimit:10;}
	.st4{font-family:'Poppins-Regular';}
	.st5{font-size:19.5907px;}
</style>
<path class="st0" d="M70,96h116c38.1,0,69,30.9,69,69l0,0c0,38.1-30.9,69-69,69H70c-38.1,0-69-30.9-69-69l0,0C1,126.9,31.9,96,70,96
	z"/>
<path class="st0" d="M4,316h248c1.7,0,3,1.3,3,3v132c0,1.7-1.3,3-3,3H4c-1.7,0-3-1.3-3-3V319C1,317.3,2.3,316,4,316z"/>
<path class="st0" d="M604,96h272c1.7,0,3,1.3,3,3v352c0,1.7-1.3,3-3,3H604c-1.7,0-3-1.3-3-3V99C601,97.3,602.3,96,604,96z"/>
<path class="st1" d="M29.8,159.1c-0.9,0-1.7-0.2-2.4-0.5c-0.7-0.3-1.2-0.7-1.7-1.3c-0.4-0.6-0.6-1.2-0.6-2h2.7
	c0,0.5,0.2,0.9,0.5,1.2c0.3,0.3,0.8,0.4,1.4,0.4c0.6,0,1-0.1,1.4-0.4c0.3-0.3,0.5-0.7,0.5-1.1c0-0.4-0.1-0.7-0.3-0.9
	c-0.2-0.2-0.5-0.4-0.9-0.6c-0.3-0.1-0.8-0.3-1.4-0.5c-0.8-0.2-1.5-0.5-2-0.7c-0.5-0.2-0.9-0.6-1.3-1.1c-0.4-0.5-0.5-1.1-0.5-1.9
	c0-0.7,0.2-1.4,0.6-1.9s0.9-1,1.6-1.3c0.7-0.3,1.4-0.4,2.3-0.4c1.3,0,2.3,0.3,3.2,1c0.8,0.6,1.3,1.5,1.3,2.6h-2.8
	c0-0.4-0.2-0.8-0.6-1.1c-0.3-0.3-0.8-0.4-1.4-0.4c-0.5,0-0.9,0.1-1.2,0.4c-0.3,0.3-0.4,0.6-0.4,1.1c0,0.3,0.1,0.6,0.3,0.8
	c0.2,0.2,0.5,0.4,0.8,0.5c0.3,0.1,0.8,0.3,1.4,0.5c0.8,0.2,1.5,0.5,2,0.7c0.5,0.2,1,0.6,1.3,1.1c0.4,0.5,0.6,1.1,0.6,1.9
	c0,0.7-0.2,1.3-0.5,1.9c-0.3,0.6-0.9,1-1.5,1.4C31.5,159,30.7,159.1,29.8,159.1z M39.4,151.1v4.8c0,0.3,0.1,0.6,0.2,0.7
	c0.2,0.1,0.4,0.2,0.8,0.2h1.2v2.1H40c-2.1,0-3.2-1-3.2-3.1v-4.8h-1.2V149h1.2v-2.5h2.5v2.5h2.2v2.1H39.4z M42.8,154
	c0-1,0.2-1.9,0.6-2.7c0.4-0.8,1-1.4,1.6-1.8c0.7-0.4,1.5-0.6,2.3-0.6c0.7,0,1.4,0.2,1.9,0.4c0.6,0.3,1,0.7,1.4,1.1V149h2.5v10h-2.5
	v-1.5c-0.3,0.5-0.8,0.9-1.4,1.2c-0.6,0.3-1.2,0.4-2,0.4c-0.8,0-1.6-0.2-2.3-0.6c-0.7-0.4-1.2-1-1.6-1.8C43,155.9,42.8,155,42.8,154z
	 M50.6,154c0-0.6-0.1-1.1-0.4-1.6c-0.2-0.4-0.6-0.8-1-1c-0.4-0.2-0.8-0.4-1.3-0.4c-0.5,0-0.9,0.1-1.3,0.3s-0.7,0.6-1,1
	c-0.2,0.4-0.4,0.9-0.4,1.5c0,0.6,0.1,1.1,0.4,1.6c0.3,0.4,0.6,0.8,1,1c0.4,0.2,0.8,0.4,1.3,0.4c0.5,0,0.9-0.1,1.3-0.3
	c0.4-0.2,0.7-0.6,1-1C50.5,155.2,50.6,154.6,50.6,154z M61.5,159l-3.4-4.2v4.2h-2.5v-13.3h2.5v7.6l3.3-4.2h3.3l-4.4,5l4.4,5H61.5z
	 M67.4,147.8c-0.4,0-0.8-0.1-1.1-0.4c-0.3-0.3-0.4-0.6-0.4-1.1s0.1-0.8,0.4-1c0.3-0.3,0.7-0.4,1.1-0.4s0.8,0.1,1.1,0.4
	c0.3,0.3,0.4,0.6,0.4,1s-0.2,0.8-0.4,1.1C68.2,147.7,67.8,147.8,67.4,147.8z M68.6,149v10h-2.5v-10H68.6z M76.7,148.9
	c1.2,0,2.1,0.4,2.9,1.1c0.7,0.7,1.1,1.8,1.1,3.1v5.9h-2.5v-5.5c0-0.8-0.2-1.4-0.6-1.8c-0.4-0.4-0.9-0.6-1.6-0.6
	c-0.7,0-1.2,0.2-1.7,0.6c-0.4,0.4-0.6,1-0.6,1.8v5.5h-2.5v-10h2.5v1.2c0.3-0.4,0.8-0.8,1.3-1C75.5,149,76,148.9,76.7,148.9z
	 M86.9,148.9c0.7,0,1.4,0.2,2,0.4c0.6,0.3,1,0.7,1.3,1.1V149h2.5v10c0,0.9-0.2,1.7-0.6,2.5c-0.4,0.7-0.9,1.3-1.7,1.7
	c-0.7,0.4-1.6,0.6-2.7,0.6c-1.4,0-2.6-0.3-3.5-1c-0.9-0.7-1.4-1.6-1.5-2.7h2.5c0.1,0.5,0.4,0.8,0.8,1.1c0.4,0.3,1,0.4,1.6,0.4
	c0.7,0,1.3-0.2,1.8-0.7c0.5-0.4,0.7-1.1,0.7-2v-1.5c-0.3,0.5-0.8,0.9-1.4,1.2c-0.6,0.3-1.2,0.5-1.9,0.5c-0.8,0-1.6-0.2-2.3-0.6
	c-0.7-0.4-1.2-1-1.7-1.8c-0.4-0.8-0.6-1.7-0.6-2.7c0-1,0.2-1.9,0.6-2.7c0.4-0.8,1-1.4,1.6-1.8C85.3,149.1,86.1,148.9,86.9,148.9z
	 M90.2,154c0-0.6-0.1-1.1-0.4-1.6c-0.2-0.4-0.6-0.8-1-1c-0.4-0.2-0.8-0.4-1.3-0.4s-0.9,0.1-1.3,0.3c-0.4,0.2-0.7,0.6-1,1
	c-0.2,0.4-0.4,0.9-0.4,1.5c0,0.6,0.1,1.1,0.4,1.6c0.3,0.4,0.6,0.8,1,1c0.4,0.2,0.8,0.4,1.3,0.4c0.5,0,0.9-0.1,1.3-0.3
	c0.4-0.2,0.7-0.6,1-1C90.1,155.2,90.2,154.6,90.2,154z M105,148.9c1.2,0,2.1,0.4,2.9,1.1c0.7,0.7,1.1,1.8,1.1,3.1v5.9h-2.5v-5.5
	c0-0.8-0.2-1.4-0.6-1.8c-0.4-0.4-0.9-0.6-1.6-0.6c-0.7,0-1.2,0.2-1.7,0.6c-0.4,0.4-0.6,1-0.6,1.8v5.5h-2.5v-10h2.5v1.2
	c0.3-0.4,0.8-0.8,1.3-1C103.8,149,104.4,148.9,105,148.9z M115.8,159.2c-1,0-1.8-0.2-2.6-0.6c-0.8-0.4-1.4-1-1.8-1.8
	c-0.4-0.8-0.6-1.7-0.6-2.7c0-1,0.2-1.9,0.7-2.7c0.5-0.8,1.1-1.4,1.9-1.8c0.8-0.4,1.7-0.6,2.6-0.6s1.8,0.2,2.6,0.6
	c0.8,0.4,1.4,1,1.8,1.8c0.5,0.8,0.7,1.7,0.7,2.7c0,1-0.2,1.9-0.7,2.7c-0.5,0.8-1.1,1.4-1.9,1.8C117.7,159,116.8,159.2,115.8,159.2z
	 M115.8,157c0.5,0,0.9-0.1,1.3-0.3c0.4-0.2,0.7-0.6,1-1s0.4-1,0.4-1.6c0-0.9-0.3-1.7-0.8-2.2c-0.5-0.5-1.1-0.8-1.8-0.8
	c-0.7,0-1.3,0.3-1.8,0.8c-0.5,0.5-0.7,1.2-0.7,2.2c0,0.9,0.2,1.7,0.7,2.2C114.5,156.7,115.1,157,115.8,157z M122.2,154
	c0-1,0.2-1.9,0.6-2.7c0.4-0.8,1-1.4,1.7-1.8s1.5-0.6,2.3-0.6c0.6,0,1.3,0.1,1.9,0.4c0.6,0.3,1.1,0.6,1.4,1.1v-4.7h2.6V159h-2.6v-1.5
	c-0.3,0.5-0.8,0.9-1.3,1.2c-0.6,0.3-1.2,0.4-2,0.4c-0.8,0-1.6-0.2-2.3-0.6c-0.7-0.4-1.2-1-1.7-1.8C122.4,155.9,122.2,155,122.2,154z
	 M130.1,154c0-0.6-0.1-1.1-0.4-1.6c-0.2-0.4-0.6-0.8-1-1c-0.4-0.2-0.8-0.4-1.3-0.4c-0.5,0-0.9,0.1-1.3,0.3c-0.4,0.2-0.7,0.6-1,1
	c-0.2,0.4-0.4,0.9-0.4,1.5c0,0.6,0.1,1.1,0.4,1.6c0.3,0.4,0.6,0.8,1,1c0.4,0.2,0.8,0.4,1.3,0.4c0.5,0,0.9-0.1,1.3-0.3
	c0.4-0.2,0.7-0.6,1-1C130,155.2,130.1,154.6,130.1,154z M144.4,153.8c0,0.4,0,0.7-0.1,1H137c0.1,0.7,0.3,1.3,0.8,1.7
	c0.4,0.4,1,0.6,1.6,0.6c0.9,0,1.6-0.4,2-1.2h2.7c-0.3,1-0.8,1.8-1.7,2.4c-0.8,0.6-1.8,0.9-3,0.9c-1,0-1.8-0.2-2.6-0.6
	c-0.8-0.4-1.4-1-1.8-1.8c-0.4-0.8-0.6-1.7-0.6-2.7c0-1,0.2-1.9,0.6-2.7s1-1.4,1.8-1.8c0.8-0.4,1.6-0.6,2.6-0.6
	c0.9,0,1.8,0.2,2.5,0.6c0.8,0.4,1.3,1,1.7,1.7C144.2,152,144.4,152.8,144.4,153.8z M141.8,153.1c0-0.6-0.2-1.2-0.7-1.5
	c-0.5-0.4-1-0.6-1.7-0.6c-0.6,0-1.2,0.2-1.6,0.6c-0.4,0.4-0.7,0.9-0.8,1.6H141.8z M150,159.2c-0.8,0-1.5-0.1-2.2-0.4
	c-0.6-0.3-1.2-0.7-1.5-1.2c-0.4-0.5-0.6-1.1-0.6-1.7h2.5c0,0.4,0.2,0.7,0.6,1c0.3,0.3,0.8,0.4,1.2,0.4c0.5,0,0.9-0.1,1.1-0.3
	c0.3-0.2,0.4-0.4,0.4-0.7c0-0.3-0.2-0.6-0.5-0.7c-0.3-0.2-0.8-0.3-1.6-0.5c-0.7-0.2-1.4-0.4-1.8-0.6c-0.5-0.2-0.9-0.5-1.2-0.9
	c-0.3-0.4-0.5-0.9-0.5-1.6c0-0.6,0.2-1.1,0.5-1.5c0.3-0.5,0.8-0.8,1.4-1.1c0.6-0.3,1.3-0.4,2.1-0.4c1.2,0,2.1,0.3,2.8,0.9
	c0.7,0.6,1.1,1.4,1.2,2.4h-2.4c0-0.4-0.2-0.7-0.5-0.9c-0.3-0.2-0.7-0.4-1.2-0.4c-0.5,0-0.8,0.1-1.1,0.3c-0.2,0.2-0.4,0.4-0.4,0.7
	c0,0.3,0.2,0.6,0.5,0.8c0.3,0.2,0.9,0.3,1.6,0.5c0.7,0.2,1.3,0.4,1.8,0.6s0.9,0.5,1.2,0.9c0.3,0.4,0.5,0.9,0.5,1.6
	c0,0.6-0.2,1.1-0.5,1.5c-0.3,0.5-0.8,0.8-1.4,1.1C151.5,159,150.8,159.2,150,159.2z M159.7,154c0-1,0.2-1.9,0.6-2.7
	c0.4-0.8,1-1.4,1.7-1.8c0.7-0.4,1.6-0.6,2.6-0.6c1.2,0,2.3,0.3,3.1,0.9c0.8,0.6,1.4,1.5,1.6,2.6h-2.7c-0.1-0.4-0.4-0.8-0.7-1
	c-0.3-0.3-0.8-0.4-1.3-0.4c-0.7,0-1.3,0.3-1.7,0.8c-0.4,0.5-0.6,1.3-0.6,2.2c0,0.9,0.2,1.7,0.6,2.2c0.4,0.5,1,0.8,1.7,0.8
	c1,0,1.7-0.5,2-1.4h2.7c-0.3,1.1-0.8,1.9-1.6,2.6c-0.8,0.6-1.8,1-3.1,1c-1,0-1.8-0.2-2.6-0.6c-0.7-0.4-1.3-1-1.7-1.8
	C159.9,156,159.7,155,159.7,154z M173.7,145.7V159h-2.5v-13.3H173.7z M185.6,149v10H183v-1.3c-0.3,0.4-0.8,0.8-1.3,1
	c-0.5,0.2-1.1,0.4-1.7,0.4c-0.8,0-1.5-0.2-2.1-0.5c-0.6-0.3-1.1-0.8-1.4-1.5c-0.3-0.6-0.5-1.4-0.5-2.3V149h2.5v5.5
	c0,0.8,0.2,1.4,0.6,1.8c0.4,0.4,0.9,0.6,1.6,0.6c0.7,0,1.2-0.2,1.6-0.6c0.4-0.4,0.6-1,0.6-1.8V149H185.6z M191.9,159.2
	c-0.8,0-1.5-0.1-2.2-0.4c-0.6-0.3-1.2-0.7-1.5-1.2c-0.4-0.5-0.6-1.1-0.6-1.7h2.5c0,0.4,0.2,0.7,0.6,1c0.3,0.3,0.8,0.4,1.2,0.4
	c0.5,0,0.9-0.1,1.1-0.3c0.3-0.2,0.4-0.4,0.4-0.7c0-0.3-0.2-0.6-0.5-0.7c-0.3-0.2-0.8-0.3-1.6-0.5c-0.7-0.2-1.4-0.4-1.8-0.6
	c-0.5-0.2-0.9-0.5-1.2-0.9c-0.3-0.4-0.5-0.9-0.5-1.6c0-0.6,0.2-1.1,0.5-1.5c0.3-0.5,0.8-0.8,1.4-1.1c0.6-0.3,1.3-0.4,2.1-0.4
	c1.2,0,2.1,0.3,2.8,0.9c0.7,0.6,1.1,1.4,1.2,2.4h-2.4c0-0.4-0.2-0.7-0.5-0.9c-0.3-0.2-0.7-0.4-1.2-0.4c-0.5,0-0.8,0.1-1.1,0.3
	c-0.2,0.2-0.4,0.4-0.4,0.7c0,0.3,0.2,0.6,0.5,0.8c0.3,0.2,0.9,0.3,1.6,0.5c0.7,0.2,1.3,0.4,1.8,0.6s0.9,0.5,1.2,0.9
	c0.3,0.4,0.5,0.9,0.5,1.6c0,0.6-0.2,1.1-0.5,1.5c-0.3,0.5-0.8,0.8-1.4,1.1C193.3,159,192.6,159.2,191.9,159.2z M200.8,151.1v4.8
	c0,0.3,0.1,0.6,0.2,0.7c0.2,0.1,0.4,0.2,0.8,0.2h1.2v2.1h-1.6c-2.1,0-3.2-1-3.2-3.1v-4.8h-1.2V149h1.2v-2.5h2.5v2.5h2.2v2.1H200.8z
	 M214.1,153.8c0,0.4,0,0.7-0.1,1h-7.3c0.1,0.7,0.3,1.3,0.8,1.7c0.4,0.4,1,0.6,1.6,0.6c0.9,0,1.6-0.4,2-1.2h2.7
	c-0.3,1-0.8,1.8-1.7,2.4c-0.8,0.6-1.8,0.9-3,0.9c-1,0-1.8-0.2-2.6-0.6c-0.8-0.4-1.3-1-1.8-1.8c-0.4-0.8-0.6-1.7-0.6-2.7
	c0-1,0.2-1.9,0.6-2.7s1-1.4,1.8-1.8c0.8-0.4,1.6-0.6,2.6-0.6c0.9,0,1.8,0.2,2.5,0.6c0.8,0.4,1.3,1,1.7,1.7
	C213.9,152,214.1,152.8,214.1,153.8z M211.5,153.1c0-0.6-0.2-1.2-0.7-1.5c-0.5-0.4-1-0.6-1.7-0.6c-0.6,0-1.2,0.2-1.6,0.6
	c-0.4,0.4-0.7,0.9-0.8,1.6H211.5z M218.5,150.6c0.3-0.5,0.7-0.9,1.3-1.2c0.5-0.3,1.1-0.4,1.8-0.4v2.6h-0.7c-0.8,0-1.4,0.2-1.8,0.6
	c-0.4,0.4-0.6,1-0.6,1.9v5h-2.5v-10h2.5V150.6z M227,159.2c-0.8,0-1.5-0.1-2.2-0.4c-0.6-0.3-1.2-0.7-1.5-1.2
	c-0.4-0.5-0.6-1.1-0.6-1.7h2.5c0,0.4,0.2,0.7,0.6,1c0.3,0.3,0.8,0.4,1.2,0.4c0.5,0,0.9-0.1,1.1-0.3c0.3-0.2,0.4-0.4,0.4-0.7
	c0-0.3-0.2-0.6-0.5-0.7c-0.3-0.2-0.8-0.3-1.6-0.5c-0.7-0.2-1.4-0.4-1.8-0.6c-0.5-0.2-0.9-0.5-1.2-0.9c-0.3-0.4-0.5-0.9-0.5-1.6
	c0-0.6,0.2-1.1,0.5-1.5c0.3-0.5,0.8-0.8,1.4-1.1c0.6-0.3,1.3-0.4,2.1-0.4c1.2,0,2.1,0.3,2.8,0.9c0.7,0.6,1.1,1.4,1.2,2.4h-2.4
	c0-0.4-0.2-0.7-0.5-0.9c-0.3-0.2-0.7-0.4-1.2-0.4c-0.5,0-0.8,0.1-1.1,0.3c-0.2,0.2-0.4,0.4-0.4,0.7c0,0.3,0.2,0.6,0.5,0.8
	c0.3,0.2,0.9,0.3,1.6,0.5c0.7,0.2,1.3,0.4,1.8,0.6s0.9,0.5,1.2,0.9c0.3,0.4,0.5,0.9,0.5,1.6c0,0.6-0.2,1.1-0.5,1.5
	c-0.3,0.5-0.8,0.8-1.4,1.1C228.5,159,227.8,159.2,227,159.2z M83.7,178.4c1.3,0,2.5,0.3,3.5,0.8c1,0.5,1.8,1.3,2.3,2.2
	c0.6,0.9,0.8,2.1,0.8,3.3c0,1.3-0.3,2.4-0.8,3.3c-0.5,0.9-1.3,1.7-2.3,2.2c-1,0.5-2.2,0.8-3.5,0.8h-4.4v-12.6H83.7z M83.6,188.9
	c1.3,0,2.3-0.4,3.1-1.1s1.1-1.7,1.1-3c0-1.3-0.4-2.3-1.1-3.1c-0.7-0.7-1.7-1.1-3.1-1.1h-1.8v8.3H83.6z M101.5,185.8
	c0,0.4,0,0.7-0.1,1h-7.3c0.1,0.7,0.3,1.3,0.8,1.7c0.4,0.4,1,0.6,1.6,0.6c0.9,0,1.6-0.4,2-1.2h2.7c-0.3,1-0.8,1.8-1.7,2.4
	c-0.8,0.6-1.8,0.9-3,0.9c-1,0-1.8-0.2-2.6-0.6c-0.8-0.4-1.3-1-1.8-1.8c-0.4-0.8-0.6-1.7-0.6-2.7c0-1,0.2-1.9,0.6-2.7s1-1.4,1.8-1.8
	c0.8-0.4,1.6-0.6,2.6-0.6c0.9,0,1.8,0.2,2.5,0.6c0.8,0.4,1.3,1,1.7,1.7C101.3,184,101.5,184.8,101.5,185.8z M98.9,185.1
	c0-0.6-0.2-1.2-0.7-1.5c-0.5-0.4-1-0.6-1.7-0.6c-0.6,0-1.2,0.2-1.6,0.6c-0.4,0.4-0.7,0.9-0.8,1.6H98.9z M105.8,177.7V191h-2.5v-13.3
	H105.8z M117.6,185.8c0,0.4,0,0.7-0.1,1h-7.3c0.1,0.7,0.3,1.3,0.8,1.7c0.4,0.4,1,0.6,1.6,0.6c0.9,0,1.6-0.4,2-1.2h2.7
	c-0.3,1-0.8,1.8-1.7,2.4c-0.8,0.6-1.8,0.9-3,0.9c-1,0-1.8-0.2-2.6-0.6c-0.8-0.4-1.4-1-1.8-1.8c-0.4-0.8-0.6-1.7-0.6-2.7
	c0-1,0.2-1.9,0.6-2.7c0.4-0.8,1-1.4,1.8-1.8c0.8-0.4,1.6-0.6,2.6-0.6c0.9,0,1.8,0.2,2.5,0.6c0.8,0.4,1.3,1,1.7,1.7
	C117.4,184,117.6,184.8,117.6,185.8z M115,185.1c0-0.6-0.2-1.2-0.7-1.5c-0.5-0.4-1-0.6-1.7-0.6c-0.6,0-1.2,0.2-1.6,0.6
	c-0.4,0.4-0.7,0.9-0.8,1.6H115z M123.3,180.9c0.7,0,1.4,0.2,2,0.4c0.6,0.3,1,0.7,1.3,1.1V181h2.5v10c0,0.9-0.2,1.7-0.6,2.5
	c-0.4,0.7-0.9,1.3-1.7,1.7c-0.7,0.4-1.6,0.6-2.7,0.6c-1.4,0-2.6-0.3-3.5-1c-0.9-0.7-1.4-1.6-1.5-2.7h2.5c0.1,0.5,0.4,0.8,0.8,1.1
	c0.4,0.3,1,0.4,1.6,0.4c0.7,0,1.3-0.2,1.8-0.7c0.5-0.4,0.7-1.1,0.7-2v-1.5c-0.3,0.5-0.8,0.9-1.3,1.2c-0.6,0.3-1.2,0.5-1.9,0.5
	c-0.8,0-1.6-0.2-2.3-0.6c-0.7-0.4-1.2-1-1.7-1.8c-0.4-0.8-0.6-1.7-0.6-2.7c0-1,0.2-1.9,0.6-2.7c0.4-0.8,1-1.4,1.6-1.8
	C121.7,181.1,122.5,180.9,123.3,180.9z M126.6,186c0-0.6-0.1-1.1-0.4-1.6c-0.2-0.4-0.6-0.8-1-1c-0.4-0.2-0.8-0.4-1.3-0.4
	c-0.5,0-0.9,0.1-1.3,0.3c-0.4,0.2-0.7,0.6-1,1c-0.2,0.4-0.4,0.9-0.4,1.5c0,0.6,0.1,1.1,0.4,1.6c0.3,0.4,0.6,0.8,1,1
	c0.4,0.2,0.8,0.4,1.3,0.4c0.5,0,0.9-0.1,1.3-0.3c0.4-0.2,0.7-0.6,1-1C126.5,187.2,126.6,186.6,126.6,186z M131,186
	c0-1,0.2-1.9,0.6-2.7c0.4-0.8,1-1.4,1.6-1.8c0.7-0.4,1.5-0.6,2.3-0.6c0.7,0,1.4,0.2,1.9,0.4c0.6,0.3,1,0.7,1.4,1.1V181h2.5v10h-2.5
	v-1.5c-0.3,0.5-0.8,0.9-1.4,1.2c-0.6,0.3-1.2,0.4-2,0.4c-0.8,0-1.6-0.2-2.3-0.6c-0.7-0.4-1.2-1-1.6-1.8C131.2,187.9,131,187,131,186
	z M138.8,186c0-0.6-0.1-1.1-0.4-1.6c-0.2-0.4-0.6-0.8-1-1c-0.4-0.2-0.8-0.4-1.3-0.4c-0.5,0-0.9,0.1-1.3,0.3c-0.4,0.2-0.7,0.6-1,1
	c-0.2,0.4-0.4,0.9-0.4,1.5c0,0.6,0.1,1.1,0.4,1.6c0.3,0.4,0.6,0.8,1,1c0.4,0.2,0.8,0.4,1.3,0.4c0.5,0,0.9-0.1,1.3-0.3
	c0.4-0.2,0.7-0.6,1-1C138.7,187.2,138.8,186.6,138.8,186z M146.8,183.1v4.8c0,0.3,0.1,0.6,0.2,0.7c0.2,0.1,0.4,0.2,0.8,0.2h1.2v2.1
	h-1.6c-2.1,0-3.2-1-3.2-3.1v-4.8H143V181h1.2v-2.5h2.5v2.5h2.2v2.1H146.8z M152.1,179.8c-0.4,0-0.8-0.1-1.1-0.4
	c-0.3-0.3-0.4-0.6-0.4-1.1s0.1-0.8,0.4-1c0.3-0.3,0.7-0.4,1.1-0.4s0.8,0.1,1.1,0.4c0.3,0.3,0.5,0.6,0.5,1s-0.2,0.8-0.5,1.1
	C152.9,179.7,152.5,179.8,152.1,179.8z M153.3,181v10h-2.5v-10H153.3z M160.2,191.2c-1,0-1.8-0.2-2.6-0.6c-0.8-0.4-1.4-1-1.8-1.8
	c-0.4-0.8-0.6-1.7-0.6-2.7c0-1,0.2-1.9,0.7-2.7c0.5-0.8,1.1-1.4,1.9-1.8c0.8-0.4,1.6-0.6,2.6-0.6c1,0,1.8,0.2,2.6,0.6
	c0.8,0.4,1.4,1,1.8,1.8c0.5,0.8,0.7,1.7,0.7,2.7c0,1-0.2,1.9-0.7,2.7c-0.5,0.8-1.1,1.4-1.9,1.8C162.1,191,161.2,191.2,160.2,191.2z
	 M160.2,189c0.5,0,0.9-0.1,1.3-0.3c0.4-0.2,0.7-0.6,1-1s0.4-1,0.4-1.6c0-0.9-0.3-1.7-0.8-2.2c-0.5-0.5-1.1-0.8-1.8-0.8
	s-1.3,0.3-1.8,0.8c-0.5,0.5-0.7,1.2-0.7,2.2c0,0.9,0.2,1.7,0.7,2.2C158.9,188.7,159.5,189,160.2,189z M172.8,180.9
	c1.2,0,2.1,0.4,2.9,1.1c0.7,0.7,1.1,1.8,1.1,3.1v5.9h-2.5v-5.5c0-0.8-0.2-1.4-0.6-1.8c-0.4-0.4-0.9-0.6-1.6-0.6
	c-0.7,0-1.2,0.2-1.7,0.6c-0.4,0.4-0.6,1-0.6,1.8v5.5h-2.5v-10h2.5v1.2c0.3-0.4,0.8-0.8,1.3-1C171.6,181,172.2,180.9,172.8,180.9z"/>
<path class="st1" d="M81.8,368.2c-0.3-0.5-0.7-0.9-1.2-1.2c-0.5-0.3-1.1-0.4-1.8-0.4c-0.7,0-1.4,0.2-2,0.5c-0.6,0.3-1,0.8-1.4,1.4
	c-0.3,0.6-0.5,1.3-0.5,2.2c0,0.8,0.2,1.6,0.5,2.2c0.3,0.6,0.8,1.1,1.4,1.4c0.6,0.3,1.3,0.5,2.1,0.5c1,0,1.7-0.3,2.4-0.8
	c0.6-0.5,1-1.2,1.2-2.1h-4.3V370H85v2.2c-0.2,0.9-0.5,1.7-1.1,2.4c-0.6,0.7-1.3,1.3-2.1,1.8c-0.9,0.4-1.8,0.7-2.9,0.7
	c-1.2,0-2.3-0.3-3.3-0.8c-1-0.6-1.7-1.3-2.3-2.3c-0.6-1-0.8-2.1-0.8-3.3c0-1.2,0.3-2.3,0.8-3.3c0.6-1,1.3-1.7,2.3-2.3
	c1-0.6,2.1-0.8,3.3-0.8c1.4,0,2.6,0.3,3.7,1c1,0.7,1.8,1.6,2.2,2.9H81.8z M91.3,377.2c-1,0-1.8-0.2-2.6-0.6c-0.8-0.4-1.4-1-1.8-1.8
	c-0.4-0.8-0.6-1.7-0.6-2.7c0-1,0.2-1.9,0.7-2.7c0.5-0.8,1.1-1.4,1.9-1.8c0.8-0.4,1.7-0.6,2.6-0.6s1.8,0.2,2.6,0.6
	c0.8,0.4,1.4,1,1.8,1.8c0.5,0.8,0.7,1.7,0.7,2.7c0,1-0.2,1.9-0.7,2.7c-0.5,0.8-1.1,1.4-1.9,1.8C93.1,377,92.3,377.2,91.3,377.2z
	 M91.3,375c0.5,0,0.9-0.1,1.3-0.3c0.4-0.2,0.7-0.6,1-1s0.4-1,0.4-1.6c0-0.9-0.3-1.7-0.8-2.2c-0.5-0.5-1.1-0.8-1.8-0.8
	c-0.7,0-1.3,0.3-1.8,0.8c-0.5,0.5-0.7,1.2-0.7,2.2s0.2,1.7,0.7,2.2C90,374.7,90.6,375,91.3,375z M102.5,374.7l2.5-7.6h2.7l-3.7,10
	h-3.1l-3.7-10h2.7L102.5,374.7z M118.4,371.8c0,0.4,0,0.7-0.1,1H111c0.1,0.7,0.3,1.3,0.8,1.7c0.4,0.4,1,0.6,1.6,0.6
	c0.9,0,1.6-0.4,2-1.2h2.7c-0.3,1-0.8,1.8-1.7,2.4c-0.8,0.6-1.8,0.9-3,0.9c-1,0-1.8-0.2-2.6-0.6c-0.8-0.4-1.3-1-1.8-1.8
	c-0.4-0.8-0.6-1.7-0.6-2.7c0-1,0.2-1.9,0.6-2.7s1-1.4,1.8-1.8c0.8-0.4,1.6-0.6,2.6-0.6c0.9,0,1.8,0.2,2.5,0.6c0.8,0.4,1.3,1,1.7,1.7
	C118.2,370,118.4,370.8,118.4,371.8z M115.8,371.1c0-0.6-0.2-1.2-0.7-1.5c-0.5-0.4-1-0.6-1.7-0.6c-0.6,0-1.2,0.2-1.6,0.6
	c-0.4,0.4-0.7,0.9-0.8,1.6H115.8z M122.7,368.6c0.3-0.5,0.7-0.9,1.3-1.2c0.5-0.3,1.1-0.5,1.8-0.5v2.6h-0.7c-0.8,0-1.4,0.2-1.8,0.6
	c-0.4,0.4-0.6,1-0.6,1.9v5h-2.5v-10h2.5V368.6z M133,366.9c1.2,0,2.1,0.4,2.9,1.1c0.7,0.7,1.1,1.8,1.1,3.1v5.9h-2.5v-5.5
	c0-0.8-0.2-1.4-0.6-1.8c-0.4-0.4-0.9-0.6-1.6-0.6c-0.7,0-1.2,0.2-1.7,0.6c-0.4,0.4-0.6,1-0.6,1.8v5.5h-2.5v-10h2.5v1.2
	c0.3-0.4,0.8-0.8,1.3-1C131.8,367,132.4,366.9,133,366.9z M138.8,372c0-1,0.2-1.9,0.6-2.7c0.4-0.8,1-1.4,1.6-1.8
	c0.7-0.4,1.5-0.6,2.3-0.6c0.7,0,1.4,0.1,1.9,0.5c0.6,0.3,1,0.7,1.4,1.1V367h2.5v10h-2.5v-1.5c-0.3,0.5-0.8,0.9-1.4,1.2
	c-0.6,0.3-1.2,0.4-2,0.4c-0.8,0-1.6-0.2-2.3-0.6c-0.7-0.4-1.2-1-1.6-1.8C139,373.9,138.8,373,138.8,372z M146.6,372
	c0-0.6-0.1-1.1-0.4-1.6c-0.2-0.4-0.6-0.8-1-1c-0.4-0.2-0.8-0.4-1.3-0.4c-0.5,0-0.9,0.1-1.3,0.3s-0.7,0.6-1,1
	c-0.2,0.4-0.4,0.9-0.4,1.5s0.1,1.1,0.4,1.6c0.3,0.4,0.6,0.8,1,1c0.4,0.2,0.8,0.4,1.3,0.4c0.5,0,0.9-0.1,1.3-0.3c0.4-0.2,0.7-0.6,1-1
	C146.5,373.2,146.6,372.6,146.6,372z M157.1,366.9c1.2,0,2.1,0.4,2.9,1.1c0.7,0.7,1.1,1.8,1.1,3.1v5.9h-2.5v-5.5
	c0-0.8-0.2-1.4-0.6-1.8c-0.4-0.4-0.9-0.6-1.6-0.6c-0.7,0-1.2,0.2-1.7,0.6c-0.4,0.4-0.6,1-0.6,1.8v5.5h-2.5v-10h2.5v1.2
	c0.3-0.4,0.8-0.8,1.3-1C155.9,367,156.5,366.9,157.1,366.9z M162.9,372c0-1,0.2-1.9,0.6-2.7c0.4-0.8,1-1.4,1.7-1.8
	c0.7-0.4,1.6-0.6,2.6-0.6c1.2,0,2.3,0.3,3.1,0.9c0.8,0.6,1.4,1.5,1.6,2.6h-2.7c-0.1-0.4-0.4-0.8-0.7-1c-0.3-0.3-0.8-0.4-1.3-0.4
	c-0.7,0-1.3,0.3-1.7,0.8c-0.4,0.5-0.6,1.3-0.6,2.2c0,0.9,0.2,1.7,0.6,2.2c0.4,0.5,1,0.8,1.7,0.8c1,0,1.7-0.5,2-1.4h2.7
	c-0.3,1.1-0.8,1.9-1.6,2.6c-0.8,0.6-1.8,1-3.1,1c-1,0-1.8-0.2-2.6-0.6c-0.7-0.4-1.3-1-1.7-1.8C163.1,374,162.9,373,162.9,372z
	 M183.6,371.8c0,0.4,0,0.7-0.1,1h-7.3c0.1,0.7,0.3,1.3,0.8,1.7c0.4,0.4,1,0.6,1.6,0.6c0.9,0,1.6-0.4,2-1.2h2.7
	c-0.3,1-0.8,1.8-1.7,2.4c-0.8,0.6-1.8,0.9-3,0.9c-1,0-1.8-0.2-2.6-0.6c-0.8-0.4-1.3-1-1.8-1.8c-0.4-0.8-0.6-1.7-0.6-2.7
	c0-1,0.2-1.9,0.6-2.7s1-1.4,1.8-1.8c0.8-0.4,1.6-0.6,2.6-0.6c0.9,0,1.8,0.2,2.5,0.6c0.8,0.4,1.3,1,1.7,1.7
	C183.4,370,183.6,370.8,183.6,371.8z M181,371.1c0-0.6-0.2-1.2-0.7-1.5c-0.5-0.4-1-0.6-1.7-0.6c-0.6,0-1.2,0.2-1.6,0.6
	c-0.4,0.4-0.7,0.9-0.8,1.6H181z M110.3,396.4l-4.6,12.6h-3.1l-4.6-12.6h2.7l3.5,10l3.4-10H110.3z M116.3,409.2c-1,0-1.8-0.2-2.6-0.6
	c-0.8-0.4-1.4-1-1.8-1.8c-0.4-0.8-0.6-1.7-0.6-2.7c0-1,0.2-1.9,0.7-2.7c0.5-0.8,1.1-1.4,1.9-1.8c0.8-0.4,1.7-0.6,2.6-0.6
	s1.8,0.2,2.6,0.6c0.8,0.4,1.4,1,1.8,1.8c0.5,0.8,0.7,1.7,0.7,2.7c0,1-0.2,1.9-0.7,2.7c-0.5,0.8-1.1,1.4-1.9,1.8
	C118.1,409,117.3,409.2,116.3,409.2z M116.3,407c0.5,0,0.9-0.1,1.3-0.3c0.4-0.2,0.7-0.6,1-1c0.2-0.4,0.4-1,0.4-1.6
	c0-0.9-0.3-1.7-0.8-2.2c-0.5-0.5-1.1-0.8-1.8-0.8s-1.3,0.3-1.8,0.8c-0.5,0.5-0.7,1.2-0.7,2.2s0.2,1.7,0.7,2.2
	C115,406.7,115.6,407,116.3,407z M126.3,401.1v4.8c0,0.3,0.1,0.6,0.2,0.7c0.2,0.1,0.4,0.2,0.8,0.2h1.2v2.1h-1.6
	c-2.1,0-3.2-1-3.2-3.1v-4.8h-1.2V399h1.2v-2.5h2.5v2.5h2.2v2.1H126.3z M131.6,397.8c-0.4,0-0.8-0.1-1.1-0.4
	c-0.3-0.3-0.4-0.6-0.4-1.1c0-0.4,0.1-0.8,0.4-1c0.3-0.3,0.7-0.4,1.1-0.4s0.8,0.1,1.1,0.4c0.3,0.3,0.4,0.6,0.4,1
	c0,0.4-0.1,0.8-0.4,1.1C132.4,397.7,132,397.8,131.6,397.8z M132.8,399v10h-2.5v-10H132.8z M140.9,398.9c1.2,0,2.1,0.4,2.9,1.1
	c0.7,0.7,1.1,1.8,1.1,3.1v5.9h-2.5v-5.5c0-0.8-0.2-1.4-0.6-1.8c-0.4-0.4-0.9-0.6-1.6-0.6c-0.7,0-1.2,0.2-1.7,0.6
	c-0.4,0.4-0.6,1-0.6,1.8v5.5h-2.5v-10h2.5v1.2c0.3-0.4,0.8-0.8,1.3-1C139.6,399,140.2,398.9,140.9,398.9z M151.1,398.9
	c0.7,0,1.4,0.1,2,0.5c0.6,0.3,1,0.7,1.3,1.1V399h2.5v10c0,0.9-0.2,1.7-0.6,2.5c-0.4,0.7-0.9,1.3-1.7,1.7c-0.7,0.4-1.6,0.6-2.7,0.6
	c-1.4,0-2.6-0.3-3.5-1c-0.9-0.7-1.4-1.6-1.5-2.7h2.5c0.1,0.5,0.4,0.8,0.8,1.1c0.4,0.3,1,0.4,1.6,0.4c0.7,0,1.3-0.2,1.8-0.7
	c0.5-0.4,0.7-1.1,0.7-2v-1.5c-0.3,0.5-0.8,0.9-1.3,1.2c-0.6,0.3-1.2,0.5-1.9,0.5c-0.8,0-1.6-0.2-2.3-0.6s-1.2-1-1.7-1.8
	c-0.4-0.8-0.6-1.7-0.6-2.7c0-1,0.2-1.9,0.6-2.7c0.4-0.8,1-1.4,1.6-1.8C149.5,399.1,150.3,398.9,151.1,398.9z M154.4,404
	c0-0.6-0.1-1.1-0.4-1.6c-0.2-0.4-0.6-0.8-1-1c-0.4-0.2-0.8-0.4-1.3-0.4s-0.9,0.1-1.3,0.3c-0.4,0.2-0.7,0.6-1,1
	c-0.2,0.4-0.4,0.9-0.4,1.5s0.1,1.1,0.4,1.6c0.3,0.4,0.6,0.8,1,1c0.4,0.2,0.8,0.4,1.3,0.4c0.5,0,0.9-0.1,1.3-0.3c0.4-0.2,0.7-0.6,1-1
	C154.3,405.2,154.4,404.6,154.4,404z"/>
<path class="st1" d="M730.1,258.9c0-1.2,0.2-2.3,0.7-3.3c0.5-1,1.2-1.7,2-2.2c0.8-0.5,1.8-0.8,2.8-0.8c0.8,0,1.5,0.2,2.3,0.5
	c0.7,0.3,1.3,0.8,1.7,1.4v-5.8h3.1V265h-3.1v-1.8c-0.4,0.6-0.9,1.1-1.6,1.5c-0.7,0.4-1.5,0.5-2.4,0.5c-1,0-2-0.3-2.8-0.8
	c-0.9-0.5-1.5-1.3-2-2.2C730.3,261.2,730.1,260.1,730.1,258.9z M739.7,258.9c0-0.7-0.1-1.4-0.4-1.9c-0.3-0.5-0.7-1-1.2-1.2
	c-0.5-0.3-1-0.4-1.6-0.4c-0.6,0-1.1,0.1-1.6,0.4c-0.5,0.3-0.9,0.7-1.2,1.2c-0.3,0.5-0.4,1.2-0.4,1.9s0.1,1.4,0.4,1.9
	c0.3,0.5,0.7,1,1.2,1.3c0.5,0.3,1,0.4,1.6,0.4c0.6,0,1.1-0.1,1.6-0.4c0.5-0.3,0.9-0.7,1.2-1.2C739.5,260.3,739.7,259.7,739.7,258.9z
	 M757.1,258.6c0,0.4,0,0.8-0.1,1.2h-8.9c0.1,0.9,0.4,1.6,0.9,2.1c0.5,0.5,1.2,0.7,2,0.7c1.1,0,2-0.5,2.4-1.5h3.3
	c-0.4,1.2-1,2.1-2,2.9c-1,0.7-2.2,1.1-3.7,1.1c-1.2,0-2.2-0.3-3.2-0.8c-0.9-0.5-1.7-1.3-2.2-2.2c-0.5-1-0.8-2.1-0.8-3.3
	c0-1.3,0.3-2.4,0.8-3.3c0.5-1,1.2-1.7,2.2-2.2s2-0.8,3.2-0.8c1.2,0,2.2,0.2,3.1,0.7c0.9,0.5,1.6,1.2,2.1,2.1
	C756.8,256.4,757.1,257.5,757.1,258.6z M753.9,257.8c0-0.8-0.3-1.4-0.9-1.9c-0.6-0.5-1.2-0.7-2-0.7c-0.8,0-1.4,0.2-1.9,0.7
	c-0.5,0.5-0.8,1.1-0.9,1.9H753.9z M762.4,254.7c0.4-0.6,0.9-1.2,1.5-1.5c0.6-0.4,1.4-0.6,2.2-0.6v3.2h-0.8c-1,0-1.7,0.2-2.2,0.7
	c-0.5,0.5-0.7,1.2-0.7,2.4v6.1h-3.1v-12.2h3.1V254.7z M769.8,251.4c-0.5,0-1-0.2-1.4-0.5c-0.4-0.4-0.5-0.8-0.5-1.3s0.2-0.9,0.5-1.3
	c0.4-0.4,0.8-0.5,1.4-0.5c0.5,0,1,0.2,1.3,0.5c0.4,0.3,0.5,0.8,0.5,1.3s-0.2,0.9-0.5,1.3C770.8,251.2,770.4,251.4,769.8,251.4z
	 M771.3,252.8V265h-3.1v-12.2H771.3z M779.5,262.2l3.1-9.3h3.3l-4.5,12.2h-3.7l-4.5-12.2h3.3L779.5,262.2z M786.7,258.9
	c0-1.2,0.2-2.3,0.7-3.3c0.5-1,1.2-1.7,2-2.2c0.9-0.5,1.8-0.8,2.8-0.8c0.9,0,1.7,0.2,2.4,0.6c0.7,0.4,1.2,0.8,1.7,1.4v-1.7h3.1V265
	h-3.1v-1.8c-0.4,0.6-0.9,1-1.7,1.4c-0.7,0.4-1.5,0.5-2.4,0.5c-1,0-2-0.3-2.8-0.8c-0.8-0.5-1.5-1.3-2-2.2
	C787,261.2,786.7,260.1,786.7,258.9z M796.3,258.9c0-0.7-0.1-1.4-0.4-1.9c-0.3-0.5-0.7-1-1.2-1.2c-0.5-0.3-1-0.4-1.6-0.4
	c-0.6,0-1.1,0.1-1.6,0.4c-0.5,0.3-0.9,0.7-1.2,1.2c-0.3,0.5-0.4,1.2-0.4,1.9s0.1,1.4,0.4,1.9c0.3,0.5,0.7,1,1.2,1.3
	c0.5,0.3,1,0.4,1.6,0.4c0.6,0,1.1-0.1,1.6-0.4c0.5-0.3,0.9-0.7,1.2-1.2C796.2,260.3,796.3,259.7,796.3,258.9z M806,255.3v5.9
	c0,0.4,0.1,0.7,0.3,0.9c0.2,0.2,0.5,0.3,1,0.3h1.4v2.6h-1.9c-2.6,0-3.9-1.3-3.9-3.8v-5.9h-1.5v-2.5h1.5v-3h3.1v3h2.7v2.5H806z
	 M812.5,251.4c-0.5,0-1-0.2-1.4-0.5c-0.4-0.4-0.5-0.8-0.5-1.3s0.2-0.9,0.5-1.3c0.4-0.4,0.8-0.5,1.4-0.5c0.5,0,1,0.2,1.3,0.5
	c0.4,0.3,0.6,0.8,0.6,1.3s-0.2,0.9-0.6,1.3C813.5,251.2,813.1,251.4,812.5,251.4z M814.1,252.8V265H811v-12.2H814.1z M822.2,262.2
	l3.1-9.3h3.3L824,265h-3.7l-4.5-12.2h3.3L822.2,262.2z M841.6,258.6c0,0.4,0,0.8-0.1,1.2h-8.9c0.1,0.9,0.4,1.6,0.9,2.1
	c0.5,0.5,1.2,0.7,2,0.7c1.1,0,2-0.5,2.4-1.5h3.3c-0.4,1.2-1,2.1-2,2.9c-1,0.7-2.2,1.1-3.7,1.1c-1.2,0-2.2-0.3-3.2-0.8
	c-0.9-0.5-1.7-1.3-2.2-2.2c-0.5-1-0.8-2.1-0.8-3.3c0-1.3,0.3-2.4,0.8-3.3c0.5-1,1.2-1.7,2.2-2.2s2-0.8,3.2-0.8
	c1.2,0,2.2,0.2,3.1,0.7c0.9,0.5,1.6,1.2,2.1,2.1C841.3,256.4,841.6,257.5,841.6,258.6z M838.4,257.8c0-0.8-0.3-1.4-0.9-1.9
	c-0.6-0.5-1.2-0.7-2-0.7c-0.8,0-1.4,0.2-1.9,0.7c-0.5,0.5-0.8,1.1-0.9,1.9H838.4z M848.5,265.2c-1,0-1.9-0.2-2.7-0.5
	c-0.8-0.4-1.4-0.9-1.9-1.5c-0.5-0.6-0.7-1.3-0.7-2h3.1c0.1,0.5,0.3,0.9,0.7,1.2c0.4,0.3,0.9,0.5,1.5,0.5c0.6,0,1-0.1,1.4-0.4
	c0.3-0.2,0.5-0.5,0.5-0.9c0-0.4-0.2-0.7-0.6-0.9c-0.4-0.2-1-0.4-1.9-0.7c-0.9-0.2-1.7-0.4-2.2-0.7c-0.6-0.2-1.1-0.6-1.5-1.1
	c-0.4-0.5-0.6-1.1-0.6-2c0-0.7,0.2-1.3,0.6-1.8c0.4-0.6,1-1,1.7-1.3c0.7-0.3,1.6-0.5,2.6-0.5c1.5,0,2.6,0.4,3.5,1.1
	c0.9,0.7,1.3,1.7,1.4,2.9h-2.9c0-0.5-0.2-0.9-0.6-1.1c-0.4-0.3-0.8-0.4-1.4-0.4c-0.6,0-1,0.1-1.3,0.3c-0.3,0.2-0.4,0.5-0.4,0.9
	c0,0.4,0.2,0.7,0.6,0.9c0.4,0.2,1,0.4,1.9,0.6c0.9,0.2,1.6,0.4,2.2,0.7c0.6,0.2,1.1,0.6,1.5,1.1c0.4,0.5,0.6,1.1,0.7,1.9
	c0,0.7-0.2,1.3-0.6,1.9c-0.4,0.6-0.9,1-1.7,1.3C850.3,265,849.5,265.2,848.5,265.2z M717.7,279.3v5.9c0,0.4,0.1,0.7,0.3,0.9
	c0.2,0.2,0.5,0.3,1,0.3h1.4v2.6h-1.9c-2.6,0-3.9-1.3-3.9-3.8v-5.9h-1.5v-2.5h1.5v-3h3.1v3h2.7v2.5H717.7z M725.7,278.7
	c0.4-0.6,0.9-1.2,1.5-1.5c0.6-0.4,1.4-0.6,2.2-0.6v3.2h-0.8c-1,0-1.7,0.2-2.2,0.7c-0.5,0.5-0.7,1.2-0.7,2.4v6.1h-3.1v-12.2h3.1
	V278.7z M730.7,282.9c0-1.2,0.2-2.3,0.7-3.3c0.5-1,1.2-1.7,2-2.2c0.9-0.5,1.8-0.8,2.8-0.8c0.9,0,1.7,0.2,2.4,0.5
	c0.7,0.4,1.2,0.8,1.6,1.4v-1.7h3.1V289h-3.1v-1.8c-0.4,0.6-0.9,1-1.6,1.4c-0.7,0.4-1.5,0.5-2.4,0.5c-1,0-2-0.3-2.8-0.8
	c-0.8-0.5-1.5-1.3-2-2.2C731,285.2,730.7,284.1,730.7,282.9z M740.3,282.9c0-0.7-0.1-1.4-0.4-1.9c-0.3-0.5-0.7-1-1.2-1.2
	c-0.5-0.3-1-0.4-1.6-0.4c-0.6,0-1.1,0.1-1.6,0.4s-0.9,0.7-1.2,1.2c-0.3,0.5-0.4,1.2-0.4,1.9s0.1,1.4,0.4,1.9c0.3,0.5,0.7,1,1.2,1.3
	c0.5,0.3,1,0.4,1.6,0.4c0.6,0,1.1-0.1,1.6-0.4c0.5-0.3,0.9-0.7,1.2-1.2C740.2,284.3,740.3,283.7,740.3,282.9z M745.6,282.9
	c0-1.2,0.2-2.3,0.7-3.3c0.5-1,1.2-1.7,2-2.2s1.8-0.8,2.8-0.8c0.8,0,1.5,0.2,2.3,0.5c0.7,0.3,1.3,0.8,1.7,1.4v-5.8h3.1V289h-3.1v-1.8
	c-0.4,0.6-0.9,1.1-1.6,1.5c-0.7,0.4-1.5,0.5-2.4,0.5c-1,0-2-0.3-2.8-0.8c-0.9-0.5-1.5-1.3-2-2.2
	C745.9,285.2,745.6,284.1,745.6,282.9z M755.2,282.9c0-0.7-0.1-1.4-0.4-1.9c-0.3-0.5-0.7-1-1.2-1.2c-0.5-0.3-1-0.4-1.6-0.4
	c-0.6,0-1.1,0.1-1.6,0.4c-0.5,0.3-0.9,0.7-1.2,1.2c-0.3,0.5-0.4,1.2-0.4,1.9s0.1,1.4,0.4,1.9c0.3,0.5,0.7,1,1.2,1.3
	c0.5,0.3,1,0.4,1.6,0.4c0.6,0,1.1-0.1,1.6-0.4c0.5-0.3,0.9-0.7,1.2-1.2C755.1,284.3,755.2,283.7,755.2,282.9z M762.9,275.4
	c-0.5,0-1-0.2-1.4-0.5c-0.4-0.4-0.5-0.8-0.5-1.3s0.2-0.9,0.5-1.3c0.4-0.4,0.8-0.5,1.4-0.5c0.5,0,1,0.2,1.3,0.5
	c0.4,0.3,0.5,0.8,0.5,1.3s-0.2,0.9-0.5,1.3C763.9,275.2,763.5,275.4,762.9,275.4z M764.4,276.8V289h-3.1v-12.2H764.4z M774.2,276.6
	c1.5,0,2.6,0.5,3.5,1.4c0.9,0.9,1.3,2.2,1.3,3.8v7.1H776v-6.7c0-1-0.2-1.7-0.7-2.2c-0.5-0.5-1.1-0.8-2-0.8c-0.9,0-1.5,0.3-2,0.8
	c-0.5,0.5-0.7,1.3-0.7,2.2v6.7h-3.1v-12.2h3.1v1.5c0.4-0.5,0.9-0.9,1.6-1.2C772.8,276.8,773.5,276.6,774.2,276.6z M786.8,276.6
	c0.9,0,1.7,0.2,2.4,0.5c0.7,0.4,1.2,0.8,1.6,1.4v-1.7h3.1v12.3c0,1.1-0.2,2.1-0.7,3c-0.5,0.9-1.1,1.6-2,2.1c-0.9,0.5-2,0.8-3.3,0.8
	c-1.7,0-3.2-0.4-4.3-1.2c-1.1-0.8-1.7-1.9-1.9-3.3h3.1c0.2,0.6,0.5,1,1,1.3c0.5,0.3,1.2,0.5,2,0.5c0.9,0,1.6-0.3,2.2-0.8
	c0.6-0.5,0.8-1.3,0.8-2.4v-1.9c-0.4,0.6-0.9,1-1.6,1.4c-0.7,0.4-1.5,0.6-2.4,0.6c-1,0-2-0.3-2.8-0.8c-0.9-0.5-1.5-1.3-2-2.2
	c-0.5-1-0.7-2.1-0.7-3.3c0-1.2,0.2-2.3,0.7-3.3c0.5-1,1.2-1.7,2-2.2C784.8,276.9,785.8,276.6,786.8,276.6z M790.8,282.9
	c0-0.7-0.1-1.4-0.4-1.9c-0.3-0.5-0.7-1-1.2-1.2c-0.5-0.3-1-0.4-1.6-0.4c-0.6,0-1.1,0.1-1.6,0.4c-0.5,0.3-0.9,0.7-1.2,1.2
	c-0.3,0.5-0.4,1.2-0.4,1.9s0.1,1.4,0.4,1.9c0.3,0.5,0.7,1,1.2,1.3c0.5,0.3,1,0.4,1.6,0.4c0.6,0,1.1-0.1,1.6-0.4
	c0.5-0.3,0.9-0.7,1.2-1.2C790.7,284.3,790.8,283.7,790.8,282.9z"/>
<path class="st1" d="M884.3,270.3c-0.4,0.4-0.4,1,0,1.4l6.4,6.4c0.4,0.4,1,0.4,1.4,0c0.4-0.4,0.4-1,0-1.4l-5.7-5.7l5.7-5.7
	c0.4-0.4,0.4-1,0-1.4c-0.4-0.4-1-0.4-1.4,0L884.3,270.3z M885,272h160v-2H885V272z"/>
<path class="st1" d="M534.3,274.3c-0.4,0.4-0.4,1,0,1.4l6.4,6.4c0.4,0.4,1,0.4,1.4,0c0.4-0.4,0.4-1,0-1.4l-5.7-5.7l5.7-5.7
	c0.4-0.4,0.4-1,0-1.4c-0.4-0.4-1-0.4-1.4,0L534.3,274.3z M535,276h60v-2h-60V276z"/>
<path class="st1" d="M443.7,110.3c-0.4-0.4-1-0.4-1.4,0l-6.4,6.4c-0.4,0.4-0.4,1,0,1.4c0.4,0.4,1,0.4,1.4,0l5.7-5.7l5.7,5.7
	c0.4,0.4,1,0.4,1.4,0c0.4-0.4,0.4-1,0-1.4L443.7,110.3z M442,111v72h2v-72H442z"/>
<path class="st1" d="M260.8,384.3c-0.4,0.4-0.4,1,0,1.4l6.4,6.4c0.4,0.4,1,0.4,1.4,0c0.4-0.4,0.4-1,0-1.4l-5.7-5.7l5.7-5.7
	c0.4-0.4,0.4-1,0-1.4c-0.4-0.4-1-0.4-1.4,0L260.8,384.3z M261.5,386h50v-2h-50V386z"/>
<path class="st1" d="M260.8,165.3c-0.4,0.4-0.4,1,0,1.4l6.4,6.4c0.4,0.4,1,0.4,1.4,0c0.4-0.4,0.4-1,0-1.4l-5.7-5.7l5.7-5.7
	c0.4-0.4,0.4-1,0-1.4c-0.4-0.4-1-0.4-1.4,0L260.8,165.3z M261.5,167h50v-2h-50V167z"/>
<path class="st1" d="M1045.7,307.7c0.4-0.4,0.4-1,0-1.4l-6.4-6.4c-0.4-0.4-1-0.4-1.4,0c-0.4,0.4-0.4,1,0,1.4l5.7,5.7l-5.7,5.7
	c-0.4,0.4-0.4,1,0,1.4c0.4,0.4,1,0.4,1.4,0L1045.7,307.7z M1045,306H885v2h160V306z"/>
<path class="st2" d="M351,275h-40"/>
<path class="st2" d="M595,405H443"/>
<path class="st2" d="M393,489H128"/>
<path class="st2" d="M310,385V165"/>
<path class="st0" d="M1095,243L1095,243c24.3,0,44,19.7,44,44l0,0c0,24.3-19.7,44-44,44l0,0c-24.3,0-44-19.7-44-44l0,0
	C1051,262.7,1070.7,243,1095,243z"/>
<path class="st1" d="M1095.4,264c-8.4,0-15.2,6.8-15.2,15.2c0,8.4,6.8,15.2,15.2,15.2c8.4,0,15.2-6.8,15.2-15.2
	C1110.6,270.8,1103.8,264,1095.4,264z M1095.4,291.7c-6.9,0-12.5-5.6-12.5-12.5s5.6-12.5,12.5-12.5c6.9,0,12.5,5.6,12.5,12.5
	S1102.3,291.7,1095.4,291.7z"/>
<path class="st1" d="M1072.3,325c1.3,1,1.3,1,1.3-1.3c0-12.6,9.6-23.4,21.8-23.4c12.2,0,21.8,10.8,21.8,23.4c0,1.8,0,1.8,1.3,1.3
	c0.7,0,1.3-0.6,1.3-1.3c0-14-10.8-26.1-24.4-26.1c-13.7,0-24.4,12-24.4,26.1C1071,324.4,1071.6,325,1072.3,325z"/>
<path class="st0" d="M443,447L443,447c24.3,0,44,19.7,44,44l0,0c0,24.3-19.7,44-44,44l0,0c-24.3,0-44-19.7-44-44l0,0
	C399,466.7,418.7,447,443,447z"/>
<path class="st1" d="M443.4,468c-8.4,0-15.2,6.8-15.2,15.2c0,8.4,6.8,15.2,15.2,15.2c8.4,0,15.2-6.8,15.2-15.2
	C458.6,474.8,451.8,468,443.4,468z M443.4,495.7c-6.9,0-12.5-5.6-12.5-12.5s5.6-12.5,12.5-12.5s12.5,5.6,12.5,12.5
	S450.3,495.7,443.4,495.7z"/>
<path class="st1" d="M420.3,529c1.3,1,1.3,1,1.3-1.3c0-12.6,9.6-23.4,21.8-23.4c12.2,0,21.8,10.8,21.8,23.4c0,1.8,0,1.8,1.3,1.3
	c0.7,0,1.3-0.6,1.3-1.3c0-14-10.7-26.1-24.4-26.1c-13.6,0-24.4,12-24.4,26.1C419,528.4,419.6,529,420.3,529z"/>
<circle class="st0" cx="443" cy="275" r="86"/>
<circle class="st0" cx="443" cy="53" r="52"/>
<path class="st1" d="M911.6,334.8h5.4v1.2h-6.9v-11.4h1.5V334.8z M920,336h-1.4v-8.5h1.4V336z M918.5,325.3c0-0.2,0.1-0.4,0.2-0.6
	c0.1-0.2,0.4-0.2,0.6-0.2s0.5,0.1,0.6,0.2c0.1,0.2,0.2,0.4,0.2,0.6c0,0.2-0.1,0.4-0.2,0.6c-0.1,0.2-0.4,0.2-0.6,0.2
	s-0.5-0.1-0.6-0.2C918.5,325.7,918.5,325.5,918.5,325.3z M922,331.7c0-1.3,0.3-2.4,0.9-3.1c0.6-0.8,1.4-1.2,2.5-1.2
	c1,0,1.8,0.3,2.4,1l0.1-0.9h1.3v11.7h-1.4v-4c-0.6,0.6-1.4,0.9-2.3,0.9c-1,0-1.8-0.4-2.4-1.2c-0.6-0.8-0.9-1.9-0.9-3.2V331.7z
	 M923.5,331.9c0,1,0.2,1.7,0.6,2.3c0.4,0.6,1,0.8,1.7,0.8c0.9,0,1.5-0.4,2-1.1v-4.1c-0.5-0.7-1.1-1.1-2-1.1c-0.7,0-1.3,0.3-1.7,0.8
	C923.7,330,923.5,330.8,923.5,331.9z M936.7,335.2c-0.6,0.7-1.4,1-2.5,1c-0.9,0-1.6-0.3-2.1-0.8c-0.5-0.5-0.7-1.3-0.7-2.3v-5.5h1.4
	v5.5c0,1.3,0.5,1.9,1.6,1.9c1.1,0,1.8-0.4,2.2-1.2v-6.1h1.4v8.5h-1.4L936.7,335.2z M941.9,336h-1.4v-8.5h1.4V336z M940.3,325.3
	c0-0.2,0.1-0.4,0.2-0.6c0.1-0.2,0.4-0.2,0.6-0.2c0.3,0,0.5,0.1,0.6,0.2c0.1,0.2,0.2,0.4,0.2,0.6c0,0.2-0.1,0.4-0.2,0.6
	c-0.1,0.2-0.4,0.2-0.6,0.2c-0.3,0-0.5-0.1-0.6-0.2C940.4,325.7,940.3,325.5,940.3,325.3z M943.8,331.7c0-1.3,0.3-2.3,0.9-3.1
	c0.6-0.8,1.4-1.2,2.4-1.2c1,0,1.8,0.3,2.4,1V324h1.4v12h-1.3l-0.1-0.9c-0.6,0.7-1.4,1.1-2.4,1.1c-1,0-1.8-0.4-2.4-1.2
	c-0.6-0.8-0.9-1.8-0.9-3.1V331.7z M945.3,331.9c0,1,0.2,1.7,0.6,2.3c0.4,0.5,0.9,0.8,1.6,0.8c0.9,0,1.6-0.4,2-1.2v-3.9
	c-0.4-0.8-1.1-1.2-2-1.2c-0.7,0-1.3,0.3-1.7,0.8C945.5,330,945.3,330.8,945.3,331.9z M954.8,336h-1.4v-8.5h1.4V336z M953.2,325.3
	c0-0.2,0.1-0.4,0.2-0.6c0.1-0.2,0.4-0.2,0.6-0.2c0.3,0,0.5,0.1,0.6,0.2c0.1,0.2,0.2,0.4,0.2,0.6c0,0.2-0.1,0.4-0.2,0.6
	c-0.1,0.2-0.4,0.2-0.6,0.2c-0.3,0-0.5-0.1-0.6-0.2C953.3,325.7,953.2,325.5,953.2,325.3z M959.1,325.5v2h1.6v1.1h-1.6v5.2
	c0,0.3,0.1,0.6,0.2,0.8c0.1,0.2,0.4,0.3,0.7,0.3c0.2,0,0.4,0,0.7-0.1v1.2c-0.4,0.1-0.8,0.2-1.1,0.2c-0.6,0-1.1-0.2-1.5-0.6
	c-0.3-0.4-0.5-0.9-0.5-1.7v-5.2h-1.5v-1.1h1.5v-2H959.1z M965.1,333.9l2-6.3h1.5l-3.4,9.8c-0.5,1.4-1.4,2.1-2.5,2.1l-0.3,0l-0.5-0.1
	v-1.2l0.4,0c0.5,0,0.9-0.1,1.1-0.3c0.3-0.2,0.5-0.6,0.7-1.1l0.3-0.9l-3-8.4h1.6L965.1,333.9z M975.2,327.5l0,0.9
	c0.6-0.7,1.5-1.1,2.5-1.1c1.2,0,2,0.5,2.4,1.4c0.3-0.4,0.6-0.7,1.1-1c0.5-0.3,1-0.4,1.6-0.4c1.9,0,2.8,1,2.8,2.9v5.7h-1.4v-5.6
	c0-0.6-0.1-1.1-0.4-1.4c-0.3-0.3-0.7-0.5-1.4-0.5c-0.5,0-1,0.2-1.3,0.5c-0.4,0.3-0.6,0.7-0.6,1.3v5.6h-1.5v-5.5
	c0-1.2-0.6-1.8-1.8-1.8c-0.9,0-1.6,0.4-1.9,1.2v6.2h-1.4v-8.5H975.2z M989.5,336H988v-8.5h1.4V336z M987.9,325.3
	c0-0.2,0.1-0.4,0.2-0.6c0.1-0.2,0.4-0.2,0.6-0.2c0.3,0,0.5,0.1,0.6,0.2c0.1,0.2,0.2,0.4,0.2,0.6c0,0.2-0.1,0.4-0.2,0.6
	c-0.1,0.2-0.4,0.2-0.6,0.2c-0.3,0-0.5-0.1-0.6-0.2C988,325.7,987.9,325.5,987.9,325.3z M993.2,327.5l0,1.1c0.6-0.8,1.5-1.2,2.5-1.2
	c1.8,0,2.7,1,2.7,3v5.6H997v-5.6c0-0.6-0.1-1.1-0.4-1.4c-0.3-0.3-0.7-0.4-1.3-0.4c-0.5,0-0.9,0.1-1.2,0.4s-0.6,0.6-0.8,1v6h-1.4
	v-8.5H993.2z M1002.2,336h-1.5v-8.5h1.5V336z M1000.6,325.3c0-0.2,0.1-0.4,0.2-0.6c0.1-0.2,0.4-0.2,0.6-0.2c0.3,0,0.5,0.1,0.6,0.2
	c0.2,0.2,0.2,0.4,0.2,0.6c0,0.2-0.1,0.4-0.2,0.6c-0.1,0.2-0.3,0.2-0.6,0.2c-0.3,0-0.5-0.1-0.6-0.2
	C1000.7,325.7,1000.6,325.5,1000.6,325.3z M1005.9,327.5l0,1.1c0.7-0.8,1.5-1.2,2.5-1.2c1.8,0,2.7,1,2.7,3v5.6h-1.4v-5.6
	c0-0.6-0.1-1.1-0.4-1.4c-0.3-0.3-0.7-0.4-1.3-0.4c-0.5,0-0.9,0.1-1.2,0.4c-0.4,0.3-0.6,0.6-0.8,1v6h-1.4v-8.5H1005.9z M1013,331.7
	c0-1.3,0.3-2.4,0.9-3.1c0.6-0.8,1.4-1.2,2.4-1.2c1,0,1.8,0.4,2.4,1.1l0.1-0.9h1.3v8.3c0,1.1-0.3,2-1,2.6c-0.6,0.6-1.5,0.9-2.6,0.9
	c-0.6,0-1.2-0.1-1.8-0.4c-0.6-0.3-1-0.6-1.3-1.1l0.8-0.9c0.6,0.8,1.4,1.1,2.3,1.1c0.7,0,1.3-0.2,1.6-0.6c0.4-0.4,0.6-1,0.6-1.7v-0.7
	c-0.6,0.7-1.4,1-2.4,1c-1,0-1.8-0.4-2.4-1.2C1013.3,334.2,1013,333.1,1013,331.7z M1014.5,331.9c0,1,0.2,1.7,0.6,2.3
	c0.4,0.5,0.9,0.8,1.6,0.8c0.9,0,1.6-0.4,2-1.2v-3.9c-0.5-0.8-1.1-1.2-2-1.2c-0.7,0-1.3,0.3-1.7,0.8
	C1014.7,330,1014.5,330.8,1014.5,331.9z M944.2,344.5v2h1.6v1.1h-1.6v5.2c0,0.3,0.1,0.6,0.2,0.8c0.1,0.2,0.4,0.3,0.7,0.3
	c0.2,0,0.4,0,0.7-0.1v1.2c-0.4,0.1-0.8,0.2-1.1,0.2c-0.6,0-1.1-0.2-1.5-0.6c-0.3-0.4-0.5-0.9-0.5-1.7v-5.2h-1.5v-1.1h1.5v-2H944.2z
	 M946.9,350.7c0-0.8,0.2-1.6,0.5-2.2c0.3-0.7,0.8-1.2,1.4-1.5c0.6-0.4,1.2-0.5,2-0.5c1.2,0,2.1,0.4,2.8,1.2c0.7,0.8,1.1,1.9,1.1,3.2
	v0.1c0,0.8-0.2,1.6-0.5,2.2c-0.3,0.7-0.8,1.2-1.4,1.5c-0.6,0.4-1.3,0.5-2,0.5c-1.1,0-2.1-0.4-2.8-1.2c-0.7-0.8-1.1-1.9-1.1-3.2
	V350.7z M948.4,350.9c0,0.9,0.2,1.7,0.6,2.3c0.4,0.6,1,0.9,1.8,0.9c0.7,0,1.3-0.3,1.8-0.9c0.4-0.6,0.6-1.4,0.6-2.4
	c0-0.9-0.2-1.7-0.7-2.3c-0.4-0.6-1-0.9-1.8-0.9c-0.7,0-1.3,0.3-1.7,0.9C948.6,349,948.4,349.8,948.4,350.9z M958.8,351.1l-0.9,0.9v3
	h-1.4v-12h1.4v7.3l0.8-0.9l2.6-2.8h1.8l-3.3,3.5l3.7,4.9h-1.7L958.8,351.1z M967.9,355.2c-1.1,0-2.1-0.4-2.8-1.1
	c-0.7-0.8-1.1-1.8-1.1-3v-0.3c0-0.8,0.2-1.6,0.5-2.2c0.3-0.7,0.8-1.2,1.3-1.5c0.6-0.4,1.2-0.6,1.9-0.6c1.1,0,2,0.4,2.6,1.1
	c0.6,0.7,0.9,1.8,0.9,3.1v0.6h-5.7c0,0.8,0.3,1.5,0.7,2c0.5,0.5,1.1,0.8,1.8,0.8c0.5,0,0.9-0.1,1.3-0.3c0.4-0.2,0.7-0.5,0.9-0.8
	l0.9,0.7C970.4,354.6,969.3,355.2,967.9,355.2z M967.7,347.6c-0.6,0-1.1,0.2-1.5,0.6c-0.4,0.4-0.6,1-0.7,1.8h4.2v-0.1
	c0-0.7-0.2-1.3-0.6-1.7C968.8,347.8,968.3,347.6,967.7,347.6z M974.2,346.5l0,1.1c0.6-0.8,1.5-1.2,2.5-1.2c1.8,0,2.7,1,2.7,3v5.6
	h-1.4v-5.6c0-0.6-0.1-1.1-0.4-1.4c-0.3-0.3-0.7-0.4-1.3-0.4c-0.5,0-0.9,0.1-1.2,0.4c-0.4,0.3-0.6,0.6-0.8,1v6h-1.4v-8.5H974.2z
	 M986.6,352.8c0-0.4-0.1-0.7-0.4-0.9c-0.3-0.2-0.8-0.4-1.5-0.6c-0.7-0.2-1.3-0.3-1.7-0.6c-0.4-0.2-0.7-0.5-1-0.8
	c-0.2-0.3-0.3-0.7-0.3-1.1c0-0.7,0.3-1.3,0.9-1.8c0.6-0.5,1.3-0.7,2.3-0.7c1,0,1.7,0.2,2.3,0.7c0.6,0.5,0.9,1.1,0.9,1.9h-1.5
	c0-0.4-0.2-0.7-0.5-1c-0.3-0.3-0.8-0.4-1.3-0.4c-0.5,0-0.9,0.1-1.2,0.3s-0.4,0.5-0.4,0.9c0,0.3,0.1,0.6,0.4,0.8s0.8,0.3,1.5,0.5
	c0.7,0.2,1.3,0.4,1.8,0.6s0.8,0.5,1,0.8c0.2,0.3,0.3,0.7,0.3,1.1c0,0.8-0.3,1.4-0.9,1.8c-0.6,0.5-1.4,0.7-2.4,0.7
	c-0.7,0-1.3-0.1-1.8-0.4c-0.5-0.2-0.9-0.6-1.2-1c-0.3-0.4-0.4-0.9-0.4-1.4h1.4c0,0.5,0.2,0.9,0.6,1.2c0.4,0.3,0.8,0.4,1.4,0.4
	c0.5,0,1-0.1,1.3-0.3C986.5,353.4,986.6,353.1,986.6,352.8z"/>
<path class="st1" d="M491.4,427.5v4.5h-1.5v-11.4h4.2c1.2,0,2.2,0.3,2.9,1c0.7,0.6,1.1,1.5,1.1,2.5c0,1.1-0.3,2-1,2.6
	c-0.7,0.6-1.7,0.9-3,0.9H491.4z M491.4,426.3h2.7c0.8,0,1.4-0.2,1.8-0.6c0.4-0.4,0.6-0.9,0.6-1.6c0-0.7-0.2-1.2-0.6-1.6
	s-1-0.6-1.8-0.6h-2.8V426.3z M503.9,424.8c-0.2,0-0.5-0.1-0.7-0.1c-0.9,0-1.6,0.4-1.9,1.2v6h-1.4v-8.5h1.4l0,1
	c0.5-0.8,1.1-1.1,2-1.1c0.3,0,0.5,0,0.6,0.1V424.8z M504.7,427.7c0-0.8,0.2-1.6,0.5-2.2c0.3-0.7,0.8-1.2,1.4-1.5
	c0.6-0.4,1.2-0.5,2-0.5c1.2,0,2.1,0.4,2.8,1.2c0.7,0.8,1.1,1.9,1.1,3.2v0.1c0,0.8-0.2,1.6-0.5,2.2c-0.3,0.7-0.8,1.2-1.4,1.5
	c-0.6,0.4-1.3,0.5-2,0.5c-1.1,0-2.1-0.4-2.8-1.2c-0.7-0.8-1.1-1.9-1.1-3.2V427.7z M506.1,427.9c0,0.9,0.2,1.7,0.6,2.3
	c0.4,0.6,1,0.9,1.8,0.9c0.7,0,1.3-0.3,1.8-0.9c0.4-0.6,0.6-1.4,0.6-2.4c0-0.9-0.2-1.7-0.7-2.3c-0.4-0.6-1-0.9-1.8-0.9
	c-0.7,0-1.3,0.3-1.7,0.9C506.3,426,506.1,426.8,506.1,427.9z M514.7,432v-7.3h-1.3v-1.1h1.3v-0.7c0-0.9,0.3-1.7,0.8-2.2
	c0.5-0.5,1.3-0.8,2.3-0.8c0.6,0,1.3,0.2,2.2,0.5l-0.2,1.2c-0.7-0.3-1.3-0.4-1.9-0.4c-0.6,0-1.1,0.1-1.3,0.4
	c-0.3,0.3-0.4,0.7-0.4,1.3v0.7h1.7v1.1h-1.7v7.3H514.7z M520.7,432h-1.5v-8.5h1.5V432z M525,421.5v2h1.6v1.1H525v5.2
	c0,0.3,0.1,0.6,0.2,0.8c0.1,0.2,0.4,0.3,0.7,0.3c0.2,0,0.4,0,0.7-0.1v1.2c-0.4,0.1-0.8,0.2-1.1,0.2c-0.6,0-1.1-0.2-1.5-0.6
	c-0.3-0.4-0.5-0.9-0.5-1.7v-5.2H522v-1.1h1.5v-2H525z M537.2,429.8c0-0.4-0.1-0.7-0.4-0.9c-0.3-0.2-0.8-0.4-1.5-0.6
	c-0.7-0.2-1.3-0.3-1.7-0.6c-0.4-0.2-0.7-0.5-1-0.8c-0.2-0.3-0.3-0.7-0.3-1.1c0-0.7,0.3-1.3,0.9-1.8c0.6-0.5,1.3-0.7,2.3-0.7
	c1,0,1.7,0.2,2.3,0.7c0.6,0.5,0.9,1.1,0.9,1.9h-1.5c0-0.4-0.2-0.7-0.5-1c-0.3-0.3-0.8-0.4-1.3-0.4c-0.5,0-0.9,0.1-1.2,0.3
	s-0.4,0.5-0.4,0.9c0,0.3,0.1,0.6,0.4,0.8s0.8,0.3,1.5,0.5c0.7,0.2,1.3,0.4,1.8,0.6s0.8,0.5,1,0.8c0.2,0.3,0.3,0.7,0.3,1.1
	c0,0.8-0.3,1.4-0.9,1.8c-0.6,0.5-1.4,0.7-2.4,0.7c-0.7,0-1.3-0.1-1.8-0.4c-0.5-0.2-0.9-0.6-1.2-1c-0.3-0.4-0.4-0.9-0.4-1.4h1.4
	c0,0.5,0.2,0.9,0.6,1.2c0.4,0.3,0.8,0.4,1.4,0.4c0.5,0,1-0.1,1.3-0.3C537,430.4,537.2,430.1,537.2,429.8z M547.6,427.9
	c0,1.3-0.3,2.3-0.9,3.1c-0.6,0.8-1.4,1.2-2.4,1.2c-1,0-1.8-0.3-2.4-1v4.1h-1.4v-11.7h1.3l0.1,0.9c0.6-0.7,1.4-1.1,2.5-1.1
	c1,0,1.8,0.4,2.4,1.1c0.6,0.8,0.9,1.8,0.9,3.2V427.9z M546.2,427.7c0-1-0.2-1.7-0.6-2.3s-1-0.8-1.7-0.8c-0.9,0-1.5,0.4-2,1.2v4
	c0.4,0.8,1.1,1.2,2,1.2c0.7,0,1.2-0.3,1.6-0.8C546,429.6,546.2,428.8,546.2,427.7z M551,432h-1.4v-12h1.4V432z M554.9,432h-1.4v-8.5
	h1.4V432z M553.4,421.3c0-0.2,0.1-0.4,0.2-0.6c0.1-0.2,0.4-0.2,0.6-0.2c0.3,0,0.5,0.1,0.6,0.2c0.1,0.2,0.2,0.4,0.2,0.6
	c0,0.2-0.1,0.4-0.2,0.6c-0.1,0.2-0.4,0.2-0.6,0.2c-0.3,0-0.5-0.1-0.6-0.2C553.4,421.7,553.4,421.5,553.4,421.3z M559.2,421.5v2h1.6
	v1.1h-1.6v5.2c0,0.3,0.1,0.6,0.2,0.8c0.1,0.2,0.4,0.3,0.7,0.3c0.2,0,0.4,0,0.7-0.1v1.2c-0.4,0.1-0.8,0.2-1.1,0.2
	c-0.6,0-1.1-0.2-1.5-0.6c-0.3-0.4-0.5-0.9-0.5-1.7v-5.2h-1.5v-1.1h1.5v-2H559.2z"/>
<path class="st1" d="M193.5,512.9c-1.3-0.4-2.2-0.8-2.8-1.4c-0.6-0.5-0.9-1.2-0.9-2c0-0.9,0.4-1.6,1.1-2.2c0.7-0.6,1.7-0.9,2.8-0.9
	c0.8,0,1.5,0.2,2.1,0.5c0.6,0.3,1.1,0.7,1.4,1.3c0.3,0.5,0.5,1.1,0.5,1.7h-1.5c0-0.7-0.2-1.2-0.7-1.6c-0.4-0.4-1.1-0.6-1.9-0.6
	c-0.7,0-1.3,0.2-1.7,0.5c-0.4,0.3-0.6,0.8-0.6,1.4c0,0.5,0.2,0.9,0.6,1.2c0.4,0.3,1.1,0.6,2,0.9c0.9,0.3,1.7,0.6,2.2,0.9
	c0.5,0.3,0.9,0.7,1.2,1.1c0.3,0.4,0.4,0.9,0.4,1.5c0,0.9-0.4,1.7-1.1,2.2c-0.7,0.6-1.7,0.8-2.9,0.8c-0.8,0-1.5-0.1-2.2-0.4
	c-0.7-0.3-1.2-0.7-1.6-1.2c-0.4-0.5-0.5-1.1-0.5-1.8h1.5c0,0.7,0.3,1.2,0.8,1.6c0.5,0.4,1.2,0.6,2,0.6c0.8,0,1.4-0.2,1.8-0.5
	c0.4-0.3,0.6-0.8,0.6-1.3s-0.2-1-0.6-1.3C195.3,513.5,194.5,513.2,193.5,512.9z M204.7,517.2c-0.6,0.7-1.4,1-2.5,1
	c-0.9,0-1.6-0.3-2.1-0.8c-0.5-0.5-0.7-1.3-0.7-2.3v-5.5h1.4v5.5c0,1.3,0.5,1.9,1.6,1.9c1.1,0,1.8-0.4,2.2-1.2v-6.1h1.4v8.5h-1.4
	L204.7,517.2z M215.4,513.9c0,1.3-0.3,2.3-0.9,3.1c-0.6,0.8-1.4,1.2-2.4,1.2c-1.1,0-1.9-0.4-2.5-1.1l-0.1,1h-1.3v-12h1.4v4.5
	c0.6-0.7,1.4-1.1,2.4-1.1s1.8,0.4,2.4,1.2c0.6,0.8,0.9,1.8,0.9,3.2V513.9z M214,513.7c0-1-0.2-1.7-0.6-2.3c-0.4-0.5-0.9-0.8-1.6-0.8
	c-1,0-1.6,0.4-2.1,1.3v3.7c0.4,0.9,1.1,1.3,2.1,1.3c0.7,0,1.2-0.3,1.6-0.8C213.8,515.6,214,514.8,214,513.7z M218.6,509.5l0,0.9
	c0.6-0.7,1.5-1.1,2.5-1.1c1.2,0,2,0.5,2.4,1.4c0.3-0.4,0.6-0.7,1.1-1c0.5-0.3,1-0.4,1.6-0.4c1.9,0,2.8,1,2.8,2.9v5.7h-1.4v-5.6
	c0-0.6-0.1-1.1-0.4-1.4c-0.3-0.3-0.7-0.5-1.4-0.5c-0.5,0-1,0.2-1.3,0.5c-0.4,0.3-0.6,0.7-0.6,1.3v5.6h-1.5v-5.5
	c0-1.2-0.6-1.8-1.8-1.8c-0.9,0-1.6,0.4-1.9,1.2v6.2h-1.4v-8.5H218.6z M232.9,518h-1.4v-8.5h1.4V518z M231.3,507.3
	c0-0.2,0.1-0.4,0.2-0.6c0.1-0.2,0.4-0.2,0.6-0.2c0.3,0,0.5,0.1,0.6,0.2c0.1,0.2,0.2,0.4,0.2,0.6c0,0.2-0.1,0.4-0.2,0.6
	c-0.1,0.2-0.4,0.2-0.6,0.2c-0.3,0-0.5-0.1-0.6-0.2C231.4,507.7,231.3,507.5,231.3,507.3z M237.1,507.5v2h1.6v1.1h-1.6v5.2
	c0,0.3,0.1,0.6,0.2,0.8c0.1,0.2,0.4,0.3,0.7,0.3c0.2,0,0.4,0,0.7-0.1v1.2c-0.4,0.1-0.8,0.2-1.1,0.2c-0.6,0-1.1-0.2-1.5-0.6
	c-0.3-0.4-0.5-0.9-0.5-1.7v-5.2h-1.5v-1.1h1.5v-2H237.1z M246.1,513.5v4.5h-1.5v-11.4h4.2c1.2,0,2.2,0.3,2.9,1
	c0.7,0.6,1.1,1.5,1.1,2.5c0,1.1-0.3,2-1,2.6c-0.7,0.6-1.7,0.9-3,0.9H246.1z M246.1,512.3h2.7c0.8,0,1.4-0.2,1.8-0.6
	c0.4-0.4,0.6-0.9,0.6-1.6c0-0.7-0.2-1.2-0.6-1.6c-0.4-0.4-1-0.6-1.8-0.6h-2.8V512.3z M258.6,510.8c-0.2,0-0.5-0.1-0.7-0.1
	c-0.9,0-1.6,0.4-1.9,1.2v6h-1.4v-8.5h1.4l0,1c0.5-0.8,1.1-1.1,2-1.1c0.3,0,0.5,0,0.6,0.1V510.8z M259.4,513.7c0-0.8,0.2-1.6,0.5-2.2
	c0.3-0.7,0.8-1.2,1.4-1.5c0.6-0.4,1.2-0.5,2-0.5c1.2,0,2.1,0.4,2.8,1.2c0.7,0.8,1.1,1.9,1.1,3.2v0.1c0,0.8-0.2,1.6-0.5,2.2
	c-0.3,0.7-0.8,1.2-1.4,1.5c-0.6,0.4-1.3,0.5-2,0.5c-1.1,0-2.1-0.4-2.8-1.2c-0.7-0.8-1.1-1.9-1.1-3.2V513.7z M260.8,513.9
	c0,0.9,0.2,1.7,0.6,2.3c0.4,0.6,1,0.9,1.8,0.9c0.7,0,1.3-0.3,1.8-0.9c0.4-0.6,0.6-1.4,0.6-2.4c0-0.9-0.2-1.7-0.7-2.3
	c-0.4-0.6-1-0.9-1.8-0.9c-0.7,0-1.3,0.3-1.7,0.9C261,512,260.8,512.8,260.8,513.9z M276,513.9c0,1.3-0.3,2.3-0.9,3.1
	c-0.6,0.8-1.4,1.2-2.4,1.2c-1,0-1.8-0.3-2.4-1v4.1h-1.4v-11.7h1.3l0.1,0.9c0.6-0.7,1.4-1.1,2.5-1.1c1,0,1.8,0.4,2.4,1.1
	c0.6,0.8,0.9,1.8,0.9,3.2V513.9z M274.6,513.7c0-1-0.2-1.7-0.6-2.3s-1-0.8-1.7-0.8c-0.9,0-1.5,0.4-2,1.2v4c0.4,0.8,1.1,1.2,2,1.2
	c0.7,0,1.2-0.3,1.6-0.8C274.4,515.6,274.6,514.8,274.6,513.7z M277.5,513.7c0-0.8,0.2-1.6,0.5-2.2c0.3-0.7,0.8-1.2,1.4-1.5
	c0.6-0.4,1.2-0.5,2-0.5c1.2,0,2.1,0.4,2.8,1.2c0.7,0.8,1.1,1.9,1.1,3.2v0.1c0,0.8-0.2,1.6-0.5,2.2c-0.3,0.7-0.8,1.2-1.4,1.5
	c-0.6,0.4-1.3,0.5-2,0.5c-1.1,0-2.1-0.4-2.8-1.2c-0.7-0.8-1.1-1.9-1.1-3.2V513.7z M278.9,513.9c0,0.9,0.2,1.7,0.6,2.3
	c0.4,0.6,1,0.9,1.8,0.9c0.7,0,1.3-0.3,1.8-0.9c0.4-0.6,0.6-1.4,0.6-2.4c0-0.9-0.2-1.7-0.7-2.3c-0.4-0.6-1-0.9-1.8-0.9
	c-0.7,0-1.3,0.3-1.7,0.9C279.1,512,278.9,512.8,278.9,513.9z M291.9,515.8c0-0.4-0.1-0.7-0.4-0.9c-0.3-0.2-0.8-0.4-1.5-0.6
	c-0.7-0.2-1.3-0.3-1.7-0.6c-0.4-0.2-0.7-0.5-1-0.8c-0.2-0.3-0.3-0.7-0.3-1.1c0-0.7,0.3-1.3,0.9-1.8c0.6-0.5,1.3-0.7,2.3-0.7
	c1,0,1.7,0.2,2.3,0.7c0.6,0.5,0.9,1.1,0.9,1.9h-1.5c0-0.4-0.2-0.7-0.5-1c-0.3-0.3-0.8-0.4-1.3-0.4c-0.5,0-0.9,0.1-1.2,0.3
	s-0.4,0.5-0.4,0.9c0,0.3,0.1,0.6,0.4,0.8s0.8,0.3,1.5,0.5c0.7,0.2,1.3,0.4,1.8,0.6c0.4,0.2,0.8,0.5,1,0.8c0.2,0.3,0.3,0.7,0.3,1.1
	c0,0.8-0.3,1.4-0.9,1.8c-0.6,0.5-1.4,0.7-2.4,0.7c-0.7,0-1.3-0.1-1.8-0.4c-0.5-0.2-0.9-0.6-1.2-1c-0.3-0.4-0.4-0.9-0.4-1.4h1.4
	c0,0.5,0.2,0.9,0.6,1.2c0.4,0.3,0.8,0.4,1.4,0.4c0.5,0,1-0.1,1.3-0.3C291.7,516.4,291.9,516.1,291.9,515.8z M300.4,518
	c-0.1-0.2-0.2-0.5-0.2-0.9c-0.7,0.7-1.5,1-2.4,1c-0.8,0-1.5-0.2-2.1-0.7c-0.5-0.5-0.8-1.1-0.8-1.8c0-0.9,0.3-1.6,1-2
	c0.7-0.5,1.6-0.7,2.8-0.7h1.4v-0.7c0-0.5-0.2-0.9-0.5-1.2c-0.3-0.3-0.7-0.5-1.3-0.5c-0.5,0-0.9,0.1-1.3,0.4
	c-0.3,0.3-0.5,0.6-0.5,0.9h-1.5c0-0.4,0.1-0.8,0.4-1.2c0.3-0.4,0.7-0.7,1.2-0.9c0.5-0.2,1.1-0.3,1.7-0.3c1,0,1.7,0.2,2.3,0.7
	c0.6,0.5,0.8,1.2,0.9,2v3.9c0,0.8,0.1,1.4,0.3,1.9v0.1H300.4z M298,516.9c0.5,0,0.9-0.1,1.3-0.4c0.4-0.2,0.7-0.5,0.9-0.9v-1.7h-1.1
	c-1.8,0-2.7,0.5-2.7,1.6c0,0.5,0.2,0.8,0.5,1.1C297.2,516.8,297.6,516.9,298,516.9z M305.5,518h-1.4v-12h1.4V518z M312.7,515.8
	c0-0.4-0.1-0.7-0.4-0.9c-0.3-0.2-0.8-0.4-1.5-0.6c-0.7-0.2-1.3-0.3-1.7-0.6c-0.4-0.2-0.7-0.5-1-0.8c-0.2-0.3-0.3-0.7-0.3-1.1
	c0-0.7,0.3-1.3,0.9-1.8c0.6-0.5,1.3-0.7,2.3-0.7c1,0,1.7,0.2,2.3,0.7c0.6,0.5,0.9,1.1,0.9,1.9h-1.5c0-0.4-0.2-0.7-0.5-1
	c-0.3-0.3-0.8-0.4-1.3-0.4c-0.5,0-0.9,0.1-1.2,0.3c-0.3,0.2-0.4,0.5-0.4,0.9c0,0.3,0.1,0.6,0.4,0.8s0.8,0.3,1.5,0.5
	c0.7,0.2,1.3,0.4,1.8,0.6s0.8,0.5,1,0.8c0.2,0.3,0.3,0.7,0.3,1.1c0,0.8-0.3,1.4-0.9,1.8c-0.6,0.5-1.4,0.7-2.4,0.7
	c-0.7,0-1.3-0.1-1.8-0.4c-0.5-0.2-0.9-0.6-1.2-1c-0.3-0.4-0.4-0.9-0.4-1.4h1.4c0,0.5,0.2,0.9,0.6,1.2c0.4,0.3,0.8,0.4,1.4,0.4
	c0.5,0,1-0.1,1.3-0.3C312.6,516.4,312.7,516.1,312.7,515.8z M322,507.5v2h1.6v1.1H322v5.2c0,0.3,0.1,0.6,0.2,0.8
	c0.1,0.2,0.4,0.3,0.7,0.3c0.2,0,0.4,0,0.7-0.1v1.2c-0.4,0.1-0.8,0.2-1.1,0.2c-0.6,0-1.1-0.2-1.5-0.6c-0.3-0.4-0.5-0.9-0.5-1.7v-5.2
	H319v-1.1h1.5v-2H322z M324.7,513.7c0-0.8,0.2-1.6,0.5-2.2c0.3-0.7,0.8-1.2,1.4-1.5c0.6-0.4,1.2-0.5,2-0.5c1.2,0,2.1,0.4,2.8,1.2
	c0.7,0.8,1.1,1.9,1.1,3.2v0.1c0,0.8-0.2,1.6-0.5,2.2c-0.3,0.7-0.8,1.2-1.4,1.5c-0.6,0.4-1.3,0.5-2,0.5c-1.1,0-2.1-0.4-2.8-1.2
	c-0.7-0.8-1.1-1.9-1.1-3.2V513.7z M326.2,513.9c0,0.9,0.2,1.7,0.6,2.3c0.4,0.6,1,0.9,1.8,0.9c0.7,0,1.3-0.3,1.8-0.9
	c0.4-0.6,0.6-1.4,0.6-2.4c0-0.9-0.2-1.7-0.7-2.3c-0.4-0.6-1-0.9-1.8-0.9c-0.7,0-1.3,0.3-1.7,0.9C326.4,512,326.2,512.8,326.2,513.9z
	 M212.2,536c0.5,0,1-0.2,1.4-0.5c0.4-0.3,0.6-0.7,0.6-1.2h1.4c0,0.5-0.2,0.9-0.5,1.4c-0.3,0.4-0.7,0.8-1.2,1
	c-0.5,0.3-1.1,0.4-1.6,0.4c-1.2,0-2.1-0.4-2.8-1.1c-0.7-0.8-1-1.8-1-3.2v-0.2c0-0.8,0.2-1.6,0.5-2.2s0.7-1.1,1.3-1.5
	c0.6-0.4,1.2-0.5,2-0.5c0.9,0,1.7,0.3,2.4,0.9c0.6,0.6,1,1.3,1,2.2h-1.4c0-0.5-0.3-1-0.6-1.3c-0.4-0.4-0.8-0.5-1.4-0.5
	c-0.7,0-1.3,0.3-1.7,0.8c-0.4,0.5-0.6,1.3-0.6,2.3v0.3c0,1,0.2,1.7,0.6,2.3C210.9,535.7,211.4,536,212.2,536z M221.3,529.8
	c-0.2,0-0.5-0.1-0.7-0.1c-0.9,0-1.6,0.4-1.9,1.2v6h-1.4v-8.5h1.4l0,1c0.5-0.8,1.1-1.1,2-1.1c0.3,0,0.5,0,0.6,0.1V529.8z
	 M225.9,537.2c-1.1,0-2.1-0.4-2.8-1.1c-0.7-0.8-1.1-1.8-1.1-3v-0.3c0-0.8,0.2-1.6,0.5-2.2c0.3-0.7,0.8-1.2,1.3-1.5
	c0.6-0.4,1.2-0.6,1.9-0.6c1.1,0,2,0.4,2.6,1.1c0.6,0.7,0.9,1.8,0.9,3.1v0.6h-5.7c0,0.8,0.3,1.5,0.7,2c0.5,0.5,1.1,0.8,1.8,0.8
	c0.5,0,0.9-0.1,1.3-0.3c0.4-0.2,0.7-0.5,0.9-0.8l0.9,0.7C228.4,536.6,227.4,537.2,225.9,537.2z M225.8,529.6c-0.6,0-1.1,0.2-1.5,0.6
	c-0.4,0.4-0.6,1-0.7,1.8h4.2v-0.1c0-0.7-0.2-1.3-0.6-1.7C226.8,529.8,226.4,529.6,225.8,529.6z M236.1,537c-0.1-0.2-0.2-0.5-0.2-0.9
	c-0.7,0.7-1.5,1-2.4,1c-0.8,0-1.5-0.2-2.1-0.7c-0.5-0.5-0.8-1.1-0.8-1.8c0-0.9,0.3-1.6,1-2c0.7-0.5,1.6-0.7,2.8-0.7h1.4v-0.7
	c0-0.5-0.2-0.9-0.5-1.2c-0.3-0.3-0.7-0.5-1.3-0.5c-0.5,0-0.9,0.1-1.3,0.4c-0.3,0.3-0.5,0.6-0.5,0.9h-1.5c0-0.4,0.1-0.8,0.4-1.2
	c0.3-0.4,0.7-0.7,1.2-0.9c0.5-0.2,1.1-0.3,1.7-0.3c1,0,1.7,0.2,2.3,0.7c0.6,0.5,0.8,1.2,0.9,2v3.9c0,0.8,0.1,1.4,0.3,1.9v0.1H236.1z
	 M233.7,535.9c0.5,0,0.9-0.1,1.3-0.4c0.4-0.2,0.7-0.5,0.9-0.9v-1.7h-1.1c-1.8,0-2.7,0.5-2.7,1.6c0,0.5,0.2,0.8,0.5,1.1
	C232.9,535.8,233.3,535.9,233.7,535.9z M241.6,526.5v2h1.6v1.1h-1.6v5.2c0,0.3,0.1,0.6,0.2,0.8c0.1,0.2,0.4,0.3,0.7,0.3
	c0.2,0,0.4,0,0.7-0.1v1.2c-0.4,0.1-0.8,0.2-1.1,0.2c-0.6,0-1.1-0.2-1.5-0.6c-0.3-0.4-0.5-0.9-0.5-1.7v-5.2h-1.5v-1.1h1.5v-2H241.6z
	 M248.4,537.2c-1.1,0-2.1-0.4-2.8-1.1c-0.7-0.8-1.1-1.8-1.1-3v-0.3c0-0.8,0.2-1.6,0.5-2.2c0.3-0.7,0.8-1.2,1.3-1.5
	c0.6-0.4,1.2-0.6,1.9-0.6c1.1,0,2,0.4,2.6,1.1s0.9,1.8,0.9,3.1v0.6h-5.7c0,0.8,0.3,1.5,0.7,2c0.5,0.5,1.1,0.8,1.8,0.8
	c0.5,0,0.9-0.1,1.3-0.3c0.4-0.2,0.7-0.5,0.9-0.8l0.9,0.7C250.8,536.6,249.8,537.2,248.4,537.2z M248.2,529.6c-0.6,0-1.1,0.2-1.5,0.6
	c-0.4,0.4-0.6,1-0.7,1.8h4.2v-0.1c0-0.7-0.2-1.3-0.6-1.7C249.3,529.8,248.8,529.6,248.2,529.6z M258.7,528.5l0,0.9
	c0.6-0.7,1.5-1.1,2.5-1.1c1.2,0,2,0.5,2.4,1.4c0.3-0.4,0.6-0.7,1.1-1c0.5-0.3,1-0.4,1.6-0.4c1.9,0,2.8,1,2.8,2.9v5.7h-1.4v-5.6
	c0-0.6-0.1-1.1-0.4-1.4c-0.3-0.3-0.7-0.5-1.4-0.5c-0.5,0-1,0.2-1.3,0.5c-0.4,0.3-0.6,0.7-0.6,1.3v5.6h-1.5v-5.5
	c0-1.2-0.6-1.8-1.8-1.8c-0.9,0-1.6,0.4-1.9,1.2v6.2h-1.4v-8.5H258.7z M276.6,537c-0.1-0.2-0.2-0.5-0.2-0.9c-0.7,0.7-1.5,1-2.4,1
	c-0.8,0-1.5-0.2-2.1-0.7c-0.5-0.5-0.8-1.1-0.8-1.8c0-0.9,0.3-1.6,1-2c0.7-0.5,1.6-0.7,2.8-0.7h1.4v-0.7c0-0.5-0.2-0.9-0.5-1.2
	c-0.3-0.3-0.7-0.5-1.3-0.5c-0.5,0-0.9,0.1-1.3,0.4c-0.3,0.3-0.5,0.6-0.5,0.9h-1.5c0-0.4,0.1-0.8,0.4-1.2c0.3-0.4,0.7-0.7,1.2-0.9
	c0.5-0.2,1.1-0.3,1.7-0.3c1,0,1.7,0.2,2.3,0.7c0.6,0.5,0.8,1.2,0.9,2v3.9c0,0.8,0.1,1.4,0.3,1.9v0.1H276.6z M274.2,535.9
	c0.5,0,0.9-0.1,1.3-0.4c0.4-0.2,0.7-0.5,0.9-0.9v-1.7h-1.1c-1.8,0-2.7,0.5-2.7,1.6c0,0.5,0.2,0.8,0.5,1.1
	C273.3,535.8,273.7,535.9,274.2,535.9z M284.1,529.8c-0.2,0-0.5-0.1-0.7-0.1c-0.9,0-1.6,0.4-1.9,1.2v6H280v-8.5h1.4l0,1
	c0.5-0.8,1.1-1.1,2-1.1c0.3,0,0.5,0,0.6,0.1V529.8z M287.8,533.1l-0.9,0.9v3h-1.4v-12h1.4v7.3l0.8-0.9l2.6-2.8h1.8l-3.3,3.5l3.7,4.9
	h-1.7L287.8,533.1z M296.9,537.2c-1.1,0-2.1-0.4-2.8-1.1c-0.7-0.8-1.1-1.8-1.1-3v-0.3c0-0.8,0.2-1.6,0.5-2.2
	c0.3-0.7,0.8-1.2,1.3-1.5c0.6-0.4,1.2-0.6,1.9-0.6c1.1,0,2,0.4,2.6,1.1c0.6,0.7,0.9,1.8,0.9,3.1v0.6h-5.7c0,0.8,0.3,1.5,0.7,2
	c0.5,0.5,1.1,0.8,1.8,0.8c0.5,0,0.9-0.1,1.3-0.3s0.7-0.5,0.9-0.8l0.9,0.7C299.4,536.6,298.3,537.2,296.9,537.2z M296.8,529.6
	c-0.6,0-1.1,0.2-1.5,0.6c-0.4,0.4-0.6,1-0.7,1.8h4.2v-0.1c0-0.7-0.2-1.3-0.6-1.7C297.8,529.8,297.4,529.6,296.8,529.6z M303.9,526.5
	v2h1.6v1.1h-1.6v5.2c0,0.3,0.1,0.6,0.2,0.8c0.1,0.2,0.4,0.3,0.7,0.3c0.2,0,0.4,0,0.7-0.1v1.2c-0.4,0.1-0.8,0.2-1.1,0.2
	c-0.6,0-1.1-0.2-1.5-0.6c-0.3-0.4-0.5-0.9-0.5-1.7v-5.2h-1.5v-1.1h1.5v-2H303.9z M312.1,534.8c0-0.4-0.1-0.7-0.4-0.9
	c-0.3-0.2-0.8-0.4-1.5-0.6c-0.7-0.2-1.3-0.3-1.7-0.6c-0.4-0.2-0.7-0.5-1-0.8c-0.2-0.3-0.3-0.7-0.3-1.1c0-0.7,0.3-1.3,0.9-1.8
	c0.6-0.5,1.3-0.7,2.3-0.7c1,0,1.7,0.2,2.3,0.7c0.6,0.5,0.9,1.1,0.9,1.9H312c0-0.4-0.2-0.7-0.5-1c-0.3-0.3-0.8-0.4-1.3-0.4
	c-0.5,0-0.9,0.1-1.2,0.3s-0.4,0.5-0.4,0.9c0,0.3,0.1,0.6,0.4,0.8c0.3,0.2,0.8,0.3,1.5,0.5c0.7,0.2,1.3,0.4,1.8,0.6
	c0.4,0.2,0.8,0.5,1,0.8c0.2,0.3,0.3,0.7,0.3,1.1c0,0.8-0.3,1.4-0.9,1.8c-0.6,0.5-1.4,0.7-2.4,0.7c-0.7,0-1.3-0.1-1.8-0.4
	c-0.5-0.2-0.9-0.6-1.2-1c-0.3-0.4-0.4-0.9-0.4-1.4h1.4c0,0.5,0.2,0.9,0.6,1.2c0.4,0.3,0.8,0.4,1.4,0.4c0.5,0,1-0.1,1.3-0.3
	C311.9,535.4,312.1,535.1,312.1,534.8z"/>
<path class="st1" d="M909.8,248.5v4.5h-1.5v-11.4h4.2c1.2,0,2.2,0.3,2.9,1c0.7,0.6,1.1,1.5,1.1,2.5c0,1.1-0.3,2-1,2.6
	c-0.7,0.6-1.7,0.9-3,0.9H909.8z M909.8,247.3h2.7c0.8,0,1.4-0.2,1.8-0.6c0.4-0.4,0.6-0.9,0.6-1.6c0-0.7-0.2-1.2-0.6-1.6
	c-0.4-0.4-1-0.6-1.8-0.6h-2.8V247.3z M922.3,245.8c-0.2,0-0.5-0.1-0.7-0.1c-0.9,0-1.6,0.4-1.9,1.2v6h-1.4v-8.5h1.4l0,1
	c0.5-0.8,1.1-1.1,2-1.1c0.3,0,0.5,0,0.6,0.1V245.8z M923.1,248.7c0-0.8,0.2-1.6,0.5-2.2c0.3-0.7,0.8-1.2,1.4-1.5
	c0.6-0.4,1.2-0.5,2-0.5c1.2,0,2.1,0.4,2.8,1.2c0.7,0.8,1.1,1.9,1.1,3.2v0.1c0,0.8-0.2,1.6-0.5,2.2c-0.3,0.7-0.8,1.2-1.4,1.5
	c-0.6,0.4-1.3,0.5-2,0.5c-1.1,0-2.1-0.4-2.8-1.2c-0.7-0.8-1.1-1.9-1.1-3.2V248.7z M924.5,248.9c0,0.9,0.2,1.7,0.6,2.3
	c0.4,0.6,1,0.9,1.8,0.9c0.7,0,1.3-0.3,1.8-0.9c0.4-0.6,0.6-1.4,0.6-2.4c0-0.9-0.2-1.7-0.7-2.3c-0.4-0.6-1-0.9-1.8-0.9
	c-0.7,0-1.3,0.3-1.7,0.9C924.7,247,924.5,247.8,924.5,248.9z M935.2,251l2.1-6.5h1.5l-3,8.5h-1.1l-3.1-8.5h1.5L935.2,251z
	 M941.8,253h-1.4v-8.5h1.4V253z M940.2,242.3c0-0.2,0.1-0.4,0.2-0.6c0.1-0.2,0.4-0.2,0.6-0.2s0.5,0.1,0.6,0.2
	c0.1,0.2,0.2,0.4,0.2,0.6c0,0.2-0.1,0.4-0.2,0.6c-0.1,0.2-0.4,0.2-0.6,0.2s-0.5-0.1-0.6-0.2C940.3,242.7,940.2,242.5,940.2,242.3z
	 M943.7,248.7c0-1.3,0.3-2.3,0.9-3.1c0.6-0.8,1.4-1.2,2.4-1.2c1,0,1.8,0.3,2.4,1V241h1.4v12h-1.3l-0.1-0.9c-0.6,0.7-1.4,1.1-2.4,1.1
	c-1,0-1.8-0.4-2.4-1.2c-0.6-0.8-0.9-1.8-0.9-3.1V248.7z M945.2,248.9c0,1,0.2,1.7,0.6,2.3c0.4,0.5,0.9,0.8,1.6,0.8
	c0.9,0,1.6-0.4,2-1.2v-3.9c-0.4-0.8-1.1-1.2-2-1.2c-0.7,0-1.3,0.3-1.7,0.8C945.4,247,945.2,247.8,945.2,248.9z M954.7,253h-1.4v-8.5
	h1.4V253z M953.1,242.3c0-0.2,0.1-0.4,0.2-0.6c0.1-0.2,0.4-0.2,0.6-0.2s0.5,0.1,0.6,0.2c0.1,0.2,0.2,0.4,0.2,0.6
	c0,0.2-0.1,0.4-0.2,0.6c-0.1,0.2-0.4,0.2-0.6,0.2s-0.5-0.1-0.6-0.2C953.2,242.7,953.1,242.5,953.1,242.3z M958.4,244.5l0,1.1
	c0.6-0.8,1.5-1.2,2.5-1.2c1.8,0,2.7,1,2.7,3v5.6h-1.4v-5.6c0-0.6-0.1-1.1-0.4-1.4c-0.3-0.3-0.7-0.4-1.3-0.4c-0.5,0-0.9,0.1-1.2,0.4
	c-0.4,0.3-0.6,0.6-0.8,1v6H957v-8.5H958.4z M965.5,248.7c0-1.3,0.3-2.4,0.9-3.1c0.6-0.8,1.4-1.2,2.4-1.2c1,0,1.8,0.4,2.4,1.1
	l0.1-0.9h1.3v8.3c0,1.1-0.3,2-1,2.6c-0.6,0.6-1.5,0.9-2.6,0.9c-0.6,0-1.2-0.1-1.8-0.4c-0.6-0.3-1-0.6-1.3-1.1l0.8-0.9
	c0.6,0.8,1.4,1.1,2.3,1.1c0.7,0,1.3-0.2,1.6-0.6c0.4-0.4,0.6-1,0.6-1.7v-0.7c-0.6,0.7-1.4,1-2.4,1c-1,0-1.8-0.4-2.4-1.2
	C965.8,251.2,965.5,250.1,965.5,248.7z M966.9,248.9c0,1,0.2,1.7,0.6,2.3c0.4,0.5,0.9,0.8,1.6,0.8c0.9,0,1.6-0.4,2-1.2v-3.9
	c-0.4-0.8-1.1-1.2-2-1.2c-0.7,0-1.3,0.3-1.6,0.8C967.1,247,966.9,247.8,966.9,248.9z M980.4,253h-1.4v-12h1.4V253z M984.2,253h-1.4
	v-8.5h1.4V253z M982.7,242.3c0-0.2,0.1-0.4,0.2-0.6c0.1-0.2,0.4-0.2,0.6-0.2s0.5,0.1,0.6,0.2c0.1,0.2,0.2,0.4,0.2,0.6
	c0,0.2-0.1,0.4-0.2,0.6c-0.1,0.2-0.4,0.2-0.6,0.2s-0.5-0.1-0.6-0.2C982.8,242.7,982.7,242.5,982.7,242.3z M986.2,248.7
	c0-1.3,0.3-2.4,0.9-3.1c0.6-0.8,1.4-1.2,2.5-1.2c1,0,1.8,0.3,2.4,1l0.1-0.9h1.3v11.7h-1.4v-4c-0.6,0.6-1.4,0.9-2.3,0.9
	c-1,0-1.8-0.4-2.4-1.2c-0.6-0.8-0.9-1.9-0.9-3.2V248.7z M987.7,248.9c0,1,0.2,1.7,0.6,2.3c0.4,0.6,1,0.8,1.7,0.8
	c0.9,0,1.5-0.4,2-1.1v-4.1c-0.5-0.7-1.1-1.1-2-1.1c-0.7,0-1.3,0.3-1.7,0.8C987.9,247,987.7,247.8,987.7,248.9z M1000.9,252.2
	c-0.6,0.7-1.4,1-2.5,1c-0.9,0-1.6-0.3-2.1-0.8c-0.5-0.5-0.7-1.3-0.7-2.3v-5.5h1.4v5.5c0,1.3,0.5,1.9,1.6,1.9c1.1,0,1.8-0.4,2.2-1.2
	v-6.1h1.4v8.5h-1.4L1000.9,252.2z M1006,253h-1.4v-8.5h1.4V253z M1004.5,242.3c0-0.2,0.1-0.4,0.2-0.6c0.1-0.2,0.4-0.2,0.6-0.2
	c0.3,0,0.5,0.1,0.6,0.2c0.2,0.2,0.2,0.4,0.2,0.6c0,0.2-0.1,0.4-0.2,0.6c-0.1,0.2-0.4,0.2-0.6,0.2c-0.3,0-0.5-0.1-0.6-0.2
	C1004.6,242.7,1004.5,242.5,1004.5,242.3z M1008,248.7c0-1.3,0.3-2.3,0.9-3.1c0.6-0.8,1.4-1.2,2.4-1.2c1,0,1.8,0.3,2.4,1V241h1.4v12
	h-1.3l-0.1-0.9c-0.6,0.7-1.4,1.1-2.4,1.1c-1,0-1.8-0.4-2.4-1.2s-0.9-1.8-0.9-3.1V248.7z M1009.5,248.9c0,1,0.2,1.7,0.6,2.3
	c0.4,0.5,1,0.8,1.6,0.8c0.9,0,1.6-0.4,2-1.2v-3.9c-0.4-0.8-1.1-1.2-2-1.2c-0.7,0-1.3,0.3-1.7,0.8
	C1009.7,247,1009.5,247.8,1009.5,248.9z M1019,253h-1.4v-8.5h1.4V253z M1017.4,242.3c0-0.2,0.1-0.4,0.2-0.6c0.2-0.2,0.4-0.2,0.7-0.2
	c0.3,0,0.5,0.1,0.6,0.2c0.1,0.2,0.2,0.4,0.2,0.6c0,0.2-0.1,0.4-0.2,0.6c-0.1,0.2-0.4,0.2-0.6,0.2c-0.3,0-0.5-0.1-0.7-0.2
	C1017.5,242.7,1017.4,242.5,1017.4,242.3z M1023.3,242.5v2h1.6v1.1h-1.6v5.2c0,0.3,0.1,0.6,0.2,0.8c0.1,0.2,0.4,0.3,0.7,0.3
	c0.2,0,0.4,0,0.7-0.1v1.2c-0.4,0.1-0.8,0.2-1.1,0.2c-0.7,0-1.1-0.2-1.5-0.6c-0.3-0.4-0.5-0.9-0.5-1.7v-5.2h-1.5v-1.1h1.5v-2H1023.3z
	 M1029.3,250.9l2-6.3h1.5l-3.4,9.8c-0.5,1.4-1.4,2.1-2.5,2.1l-0.3,0l-0.5-0.1v-1.2l0.4,0c0.5,0,0.9-0.1,1.1-0.3
	c0.3-0.2,0.5-0.6,0.7-1.1l0.3-0.9l-3-8.4h1.6L1029.3,250.9z"/>
<path class="st1" d="M397.8,251.4v2h-3.3V264h-2.5v-10.5h-3.3v-2H397.8z M402.2,255.6c0.3-0.5,0.7-0.9,1.3-1.2
	c0.5-0.3,1.1-0.4,1.8-0.4v2.6h-0.7c-0.8,0-1.4,0.2-1.8,0.6c-0.4,0.4-0.6,1-0.6,1.9v5h-2.5v-10h2.5V255.6z M406.3,259
	c0-1,0.2-1.9,0.6-2.7c0.4-0.8,1-1.4,1.6-1.8c0.7-0.4,1.5-0.6,2.3-0.6c0.7,0,1.4,0.2,1.9,0.4c0.6,0.3,1,0.7,1.4,1.1V254h2.5v10h-2.5
	v-1.5c-0.3,0.5-0.8,0.9-1.4,1.2c-0.6,0.3-1.2,0.4-2,0.4c-0.8,0-1.6-0.2-2.3-0.6c-0.7-0.4-1.2-1-1.6-1.8
	C406.5,260.9,406.3,260,406.3,259z M414.1,259c0-0.6-0.1-1.1-0.4-1.6c-0.2-0.4-0.6-0.8-1-1c-0.4-0.2-0.8-0.4-1.3-0.4
	c-0.5,0-0.9,0.1-1.3,0.3s-0.7,0.6-1,1c-0.2,0.4-0.4,0.9-0.4,1.5s0.1,1.1,0.4,1.6c0.3,0.4,0.6,0.8,1,1c0.4,0.2,0.8,0.4,1.3,0.4
	c0.5,0,0.9-0.1,1.3-0.3c0.4-0.2,0.7-0.6,1-1C414,260.2,414.1,259.6,414.1,259z M424.6,253.9c1.2,0,2.1,0.4,2.9,1.1
	c0.7,0.7,1.1,1.8,1.1,3.1v5.9h-2.5v-5.5c0-0.8-0.2-1.4-0.6-1.8c-0.4-0.4-0.9-0.6-1.6-0.6c-0.7,0-1.2,0.2-1.7,0.6
	c-0.4,0.4-0.6,1-0.6,1.8v5.5h-2.5v-10h2.5v1.2c0.3-0.4,0.8-0.8,1.3-1C423.4,254,424,253.9,424.6,253.9z M434.8,264.2
	c-0.8,0-1.5-0.1-2.2-0.4c-0.6-0.3-1.2-0.7-1.5-1.2c-0.4-0.5-0.6-1.1-0.6-1.7h2.5c0,0.4,0.2,0.7,0.6,1c0.3,0.3,0.8,0.4,1.2,0.4
	c0.5,0,0.9-0.1,1.1-0.3c0.3-0.2,0.4-0.4,0.4-0.7c0-0.3-0.2-0.6-0.5-0.7c-0.3-0.2-0.8-0.3-1.6-0.5c-0.7-0.2-1.4-0.4-1.8-0.6
	c-0.5-0.2-0.9-0.5-1.2-0.9c-0.3-0.4-0.5-0.9-0.5-1.6c0-0.6,0.2-1.1,0.5-1.5c0.3-0.5,0.8-0.8,1.4-1.1c0.6-0.3,1.3-0.4,2.1-0.4
	c1.2,0,2.1,0.3,2.8,0.9c0.7,0.6,1.1,1.4,1.2,2.4h-2.4c0-0.4-0.2-0.7-0.5-0.9c-0.3-0.2-0.7-0.4-1.2-0.4c-0.5,0-0.8,0.1-1.1,0.3
	c-0.2,0.2-0.4,0.4-0.4,0.7c0,0.3,0.2,0.6,0.5,0.8c0.3,0.2,0.9,0.3,1.6,0.5c0.7,0.2,1.3,0.4,1.8,0.6c0.5,0.2,0.9,0.5,1.2,0.9
	c0.3,0.4,0.5,0.9,0.5,1.6c0,0.6-0.2,1.1-0.5,1.5c-0.3,0.5-0.8,0.8-1.4,1.1C436.3,264,435.6,264.2,434.8,264.2z M440.2,259
	c0-1,0.2-1.9,0.6-2.7c0.4-0.8,1-1.4,1.6-1.8c0.7-0.4,1.5-0.6,2.3-0.6c0.7,0,1.4,0.2,1.9,0.4c0.6,0.3,1,0.7,1.4,1.1V254h2.5v10H448
	v-1.5c-0.3,0.5-0.8,0.9-1.4,1.2c-0.6,0.3-1.2,0.4-2,0.4c-0.8,0-1.6-0.2-2.3-0.6c-0.7-0.4-1.2-1-1.6-1.8
	C440.4,260.9,440.2,260,440.2,259z M448,259c0-0.6-0.1-1.1-0.4-1.6c-0.2-0.4-0.6-0.8-1-1c-0.4-0.2-0.8-0.4-1.3-0.4
	c-0.5,0-0.9,0.1-1.3,0.3s-0.7,0.6-1,1c-0.2,0.4-0.4,0.9-0.4,1.5s0.1,1.1,0.4,1.6c0.3,0.4,0.6,0.8,1,1c0.4,0.2,0.8,0.4,1.3,0.4
	c0.5,0,0.9-0.1,1.3-0.3c0.4-0.2,0.7-0.6,1-1C447.9,260.2,448,259.6,448,259z M452.4,259c0-1,0.2-1.9,0.6-2.7c0.4-0.8,1-1.4,1.7-1.8
	c0.7-0.4,1.6-0.6,2.6-0.6c1.2,0,2.3,0.3,3.1,0.9c0.8,0.6,1.4,1.5,1.6,2.6h-2.7c-0.1-0.4-0.4-0.8-0.7-1c-0.3-0.3-0.8-0.4-1.3-0.4
	c-0.7,0-1.3,0.3-1.7,0.8c-0.4,0.5-0.6,1.3-0.6,2.2c0,0.9,0.2,1.7,0.6,2.2c0.4,0.5,1,0.8,1.7,0.8c1,0,1.7-0.5,2-1.4h2.7
	c-0.3,1.1-0.8,1.9-1.6,2.6c-0.8,0.6-1.8,1-3.1,1c-1,0-1.8-0.2-2.6-0.6c-0.7-0.4-1.3-1-1.7-1.8C452.6,261,452.4,260,452.4,259z
	 M466.8,256.1v4.8c0,0.3,0.1,0.6,0.2,0.7c0.2,0.1,0.4,0.2,0.8,0.2h1.2v2.1h-1.6c-2.1,0-3.2-1-3.2-3.1v-4.8h-1.2V254h1.2v-2.5h2.5
	v2.5h2.2v2.1H466.8z M472.1,252.8c-0.4,0-0.8-0.1-1.1-0.4c-0.3-0.3-0.4-0.6-0.4-1.1s0.1-0.8,0.4-1c0.3-0.3,0.7-0.4,1.1-0.4
	s0.8,0.1,1.1,0.4c0.3,0.3,0.5,0.6,0.5,1s-0.1,0.8-0.5,1.1C472.9,252.7,472.6,252.8,472.1,252.8z M473.4,254v10h-2.5v-10H473.4z
	 M480.3,264.2c-1,0-1.8-0.2-2.6-0.6c-0.8-0.4-1.4-1-1.8-1.8c-0.4-0.8-0.6-1.7-0.6-2.7c0-1,0.2-1.9,0.7-2.7c0.5-0.8,1.1-1.4,1.9-1.8
	c0.8-0.4,1.6-0.6,2.6-0.6c1,0,1.8,0.2,2.6,0.6c0.8,0.4,1.4,1,1.8,1.8c0.5,0.8,0.7,1.7,0.7,2.7c0,1-0.2,1.9-0.7,2.7
	c-0.5,0.8-1.1,1.4-1.9,1.8C482.1,264,481.2,264.2,480.3,264.2z M480.3,262c0.5,0,0.9-0.1,1.3-0.3c0.4-0.2,0.7-0.6,1-1
	c0.2-0.4,0.4-1,0.4-1.6c0-0.9-0.3-1.7-0.8-2.2c-0.5-0.5-1.1-0.8-1.8-0.8s-1.3,0.3-1.8,0.8c-0.5,0.5-0.7,1.2-0.7,2.2s0.2,1.7,0.7,2.2
	C479,261.7,479.6,262,480.3,262z M492.9,253.9c1.2,0,2.1,0.4,2.9,1.1c0.7,0.7,1.1,1.8,1.1,3.1v5.9h-2.5v-5.5c0-0.8-0.2-1.4-0.6-1.8
	c-0.4-0.4-0.9-0.6-1.6-0.6c-0.7,0-1.2,0.2-1.7,0.6c-0.4,0.4-0.6,1-0.6,1.8v5.5h-2.5v-10h2.5v1.2c0.3-0.4,0.8-0.8,1.3-1
	C491.7,254,492.2,253.9,492.9,253.9z M390.4,276.1h-1.7v7.9h-2.6v-7.9H385V274h1.1v-0.5c0-1.2,0.3-2.1,1-2.7
	c0.7-0.6,1.7-0.8,3.2-0.8v2.1c-0.6,0-1,0.1-1.3,0.3s-0.4,0.6-0.4,1.2v0.4h1.7V276.1z M401.3,278.8c0,0.4,0,0.7-0.1,1H394
	c0.1,0.7,0.3,1.3,0.8,1.7c0.4,0.4,1,0.6,1.6,0.6c0.9,0,1.6-0.4,2-1.2h2.7c-0.3,1-0.8,1.8-1.7,2.4c-0.8,0.6-1.8,0.9-3,0.9
	c-1,0-1.8-0.2-2.6-0.6c-0.8-0.4-1.3-1-1.8-1.8c-0.4-0.8-0.6-1.7-0.6-2.7c0-1,0.2-1.9,0.6-2.7c0.4-0.8,1-1.4,1.8-1.8
	c0.8-0.4,1.6-0.6,2.6-0.6c0.9,0,1.8,0.2,2.5,0.6c0.8,0.4,1.3,1,1.7,1.7C401.1,277,401.3,277.8,401.3,278.8z M398.7,278.1
	c0-0.6-0.2-1.2-0.7-1.5c-0.5-0.4-1-0.6-1.7-0.6c-0.6,0-1.2,0.2-1.6,0.6c-0.4,0.4-0.7,0.9-0.8,1.6H398.7z M412.5,278.8
	c0,0.4,0,0.7-0.1,1h-7.3c0.1,0.7,0.3,1.3,0.8,1.7c0.4,0.4,1,0.6,1.6,0.6c0.9,0,1.6-0.4,2-1.2h2.7c-0.3,1-0.8,1.8-1.7,2.4
	c-0.8,0.6-1.8,0.9-3,0.9c-1,0-1.8-0.2-2.6-0.6c-0.8-0.4-1.4-1-1.8-1.8c-0.4-0.8-0.6-1.7-0.6-2.7c0-1,0.2-1.9,0.6-2.7
	c0.4-0.8,1-1.4,1.8-1.8c0.8-0.4,1.6-0.6,2.6-0.6c0.9,0,1.8,0.2,2.5,0.6c0.8,0.4,1.3,1,1.7,1.7C412.2,277,412.5,277.8,412.5,278.8z
	 M409.8,278.1c0-0.6-0.2-1.2-0.7-1.5c-0.5-0.4-1-0.6-1.7-0.6c-0.6,0-1.2,0.2-1.6,0.6c-0.4,0.4-0.7,0.9-0.8,1.6H409.8z M418.1,284.2
	c-0.8,0-1.5-0.1-2.2-0.4c-0.6-0.3-1.2-0.7-1.5-1.2c-0.4-0.5-0.6-1.1-0.6-1.7h2.5c0,0.4,0.2,0.7,0.6,1c0.3,0.3,0.8,0.4,1.2,0.4
	c0.5,0,0.9-0.1,1.1-0.3c0.3-0.2,0.4-0.4,0.4-0.7c0-0.3-0.2-0.6-0.5-0.7c-0.3-0.2-0.8-0.3-1.6-0.5c-0.7-0.2-1.4-0.4-1.8-0.6
	c-0.5-0.2-0.9-0.5-1.2-0.9c-0.3-0.4-0.5-0.9-0.5-1.6c0-0.6,0.2-1.1,0.5-1.5c0.3-0.5,0.8-0.8,1.4-1.1c0.6-0.3,1.3-0.4,2.1-0.4
	c1.2,0,2.1,0.3,2.8,0.9c0.7,0.6,1.1,1.4,1.2,2.4h-2.4c0-0.4-0.2-0.7-0.5-0.9c-0.3-0.2-0.7-0.4-1.2-0.4c-0.5,0-0.8,0.1-1.1,0.3
	c-0.2,0.2-0.4,0.4-0.4,0.7c0,0.3,0.2,0.6,0.5,0.8c0.3,0.2,0.9,0.3,1.6,0.5c0.7,0.2,1.3,0.4,1.8,0.6c0.5,0.2,0.9,0.5,1.2,0.9
	c0.3,0.4,0.5,0.9,0.5,1.6c0,0.6-0.2,1.1-0.5,1.5c-0.3,0.5-0.8,0.8-1.4,1.1C419.6,284,418.9,284.2,418.1,284.2z M438.1,284l-1.4-1.4
	c-1.2,1-2.6,1.6-4.3,1.6c-0.9,0-1.7-0.2-2.4-0.5c-0.7-0.3-1.2-0.8-1.6-1.3c-0.4-0.6-0.6-1.3-0.6-2c0-0.8,0.2-1.6,0.7-2.2
	c0.5-0.7,1.2-1.2,2.1-1.6c-0.3-0.4-0.6-0.8-0.7-1.1c-0.1-0.4-0.2-0.8-0.2-1.2c0-0.6,0.1-1.1,0.5-1.5c0.3-0.5,0.7-0.8,1.3-1.1
	c0.6-0.3,1.2-0.4,2-0.4c0.8,0,1.4,0.1,1.9,0.4s0.9,0.7,1.2,1.2c0.3,0.5,0.4,1,0.3,1.6h-2.4c0-0.4-0.1-0.7-0.3-0.9
	c-0.2-0.2-0.5-0.3-0.8-0.3c-0.3,0-0.6,0.1-0.8,0.3c-0.2,0.2-0.3,0.4-0.3,0.8c0,0.3,0.1,0.6,0.3,0.9c0.2,0.3,0.5,0.6,0.9,1.1l3.2,3.1
	c0,0,0,0,0.1-0.1c0,0,0,0,0-0.1l1-1.7h2.6l-1.3,2.2c-0.2,0.5-0.5,0.9-0.8,1.3l3,3H438.1z M432.5,282.1c1,0,1.9-0.3,2.6-1L432,278
	c-1.2,0.5-1.7,1.2-1.7,2.2c0,0.5,0.2,1,0.6,1.4C431.3,281.9,431.8,282.1,432.5,282.1z M449.2,270.7V284h-2.5v-13.3H449.2z
	 M453,272.8c-0.4,0-0.8-0.1-1.1-0.4c-0.3-0.3-0.4-0.6-0.4-1.1c0-0.4,0.1-0.8,0.4-1c0.3-0.3,0.7-0.4,1.1-0.4s0.8,0.1,1.1,0.4
	c0.3,0.3,0.5,0.6,0.5,1c0,0.4-0.1,0.8-0.5,1.1C453.8,272.7,453.4,272.8,453,272.8z M454.2,274v10h-2.5v-10H454.2z M460.5,284.2
	c-0.8,0-1.5-0.1-2.2-0.4c-0.6-0.3-1.2-0.7-1.5-1.2c-0.4-0.5-0.6-1.1-0.6-1.7h2.5c0,0.4,0.2,0.7,0.6,1c0.3,0.3,0.8,0.4,1.2,0.4
	c0.5,0,0.9-0.1,1.1-0.3c0.3-0.2,0.4-0.4,0.4-0.7c0-0.3-0.2-0.6-0.5-0.7c-0.3-0.2-0.8-0.3-1.6-0.5c-0.7-0.2-1.4-0.4-1.8-0.6
	c-0.5-0.2-0.9-0.5-1.2-0.9c-0.3-0.4-0.5-0.9-0.5-1.6c0-0.6,0.2-1.1,0.5-1.5c0.3-0.5,0.8-0.8,1.4-1.1c0.6-0.3,1.3-0.4,2.1-0.4
	c1.2,0,2.1,0.3,2.8,0.9c0.7,0.6,1.1,1.4,1.2,2.4H462c0-0.4-0.2-0.7-0.5-0.9c-0.3-0.2-0.7-0.4-1.2-0.4c-0.5,0-0.8,0.1-1.1,0.3
	c-0.2,0.2-0.4,0.4-0.4,0.7c0,0.3,0.2,0.6,0.5,0.8c0.3,0.2,0.9,0.3,1.6,0.5c0.7,0.2,1.3,0.4,1.8,0.6c0.5,0.2,0.9,0.5,1.2,0.9
	c0.3,0.4,0.5,0.9,0.5,1.6c0,0.6-0.2,1.1-0.5,1.5c-0.3,0.5-0.8,0.8-1.4,1.1C462,284,461.3,284.2,460.5,284.2z M469.5,276.1v4.8
	c0,0.3,0.1,0.6,0.2,0.7c0.2,0.1,0.4,0.2,0.8,0.2h1.2v2.1h-1.6c-2.1,0-3.2-1-3.2-3.1v-4.8h-1.2V274h1.2v-2.5h2.5v2.5h2.2v2.1H469.5z
	 M474.8,272.8c-0.4,0-0.8-0.1-1.1-0.4c-0.3-0.3-0.4-0.6-0.4-1.1c0-0.4,0.1-0.8,0.4-1c0.3-0.3,0.7-0.4,1.1-0.4s0.8,0.1,1.1,0.4
	c0.3,0.3,0.4,0.6,0.4,1c0,0.4-0.1,0.8-0.4,1.1C475.6,272.7,475.2,272.8,474.8,272.8z M476,274v10h-2.5v-10H476z M484,273.9
	c1.2,0,2.1,0.4,2.9,1.1c0.7,0.7,1.1,1.8,1.1,3.1v5.9h-2.5v-5.5c0-0.8-0.2-1.4-0.6-1.8c-0.4-0.4-0.9-0.6-1.6-0.6
	c-0.7,0-1.2,0.2-1.7,0.6c-0.4,0.4-0.6,1-0.6,1.8v5.5h-2.5v-10h2.5v1.2c0.3-0.4,0.8-0.8,1.3-1C482.8,274,483.4,273.9,484,273.9z
	 M494.3,273.9c0.7,0,1.4,0.1,2,0.5c0.6,0.3,1,0.7,1.3,1.1V274h2.5v10c0,0.9-0.2,1.7-0.6,2.5c-0.4,0.7-0.9,1.3-1.7,1.7
	c-0.7,0.4-1.6,0.6-2.7,0.6c-1.4,0-2.6-0.3-3.5-1c-0.9-0.7-1.4-1.6-1.5-2.7h2.5c0.1,0.5,0.4,0.8,0.8,1.1c0.4,0.3,1,0.4,1.6,0.4
	c0.7,0,1.3-0.2,1.8-0.7c0.5-0.4,0.7-1.1,0.7-2v-1.5c-0.3,0.5-0.8,0.9-1.4,1.2c-0.6,0.3-1.2,0.5-1.9,0.5c-0.8,0-1.6-0.2-2.3-0.6
	s-1.2-1-1.7-1.8c-0.4-0.8-0.6-1.7-0.6-2.7c0-1,0.2-1.9,0.6-2.7c0.4-0.8,1-1.4,1.6-1.8C492.7,274.1,493.5,273.9,494.3,273.9z
	 M497.6,279c0-0.6-0.1-1.1-0.4-1.6c-0.2-0.4-0.6-0.8-1-1c-0.4-0.2-0.8-0.4-1.3-0.4c-0.5,0-0.9,0.1-1.3,0.3s-0.7,0.6-1,1
	c-0.2,0.4-0.4,0.9-0.4,1.5s0.1,1.1,0.4,1.6c0.3,0.4,0.6,0.8,1,1c0.4,0.2,0.8,0.4,1.3,0.4c0.5,0,0.9-0.1,1.3-0.3c0.4-0.2,0.7-0.6,1-1
	C497.5,280.2,497.6,279.6,497.6,279z M429.7,296.1H428v7.9h-2.6v-7.9h-1.1V294h1.1v-0.5c0-1.2,0.3-2.1,1-2.7
	c0.7-0.6,1.7-0.8,3.1-0.8v2.1c-0.6,0-1,0.1-1.3,0.3c-0.2,0.2-0.4,0.6-0.4,1.2v0.4h1.7V296.1z M440.6,298.8c0,0.4,0,0.7-0.1,1h-7.3
	c0.1,0.7,0.3,1.3,0.8,1.7c0.4,0.4,1,0.6,1.6,0.6c0.9,0,1.6-0.4,2-1.2h2.7c-0.3,1-0.8,1.8-1.7,2.4c-0.8,0.6-1.8,0.9-3,0.9
	c-1,0-1.8-0.2-2.6-0.6c-0.8-0.4-1.4-1-1.8-1.8c-0.4-0.8-0.6-1.7-0.6-2.7c0-1,0.2-1.9,0.6-2.7c0.4-0.8,1-1.4,1.8-1.8
	c0.8-0.4,1.6-0.6,2.6-0.6c0.9,0,1.8,0.2,2.5,0.6c0.8,0.4,1.3,1,1.7,1.7C440.4,297,440.6,297.8,440.6,298.8z M438,298.1
	c0-0.6-0.2-1.2-0.7-1.5c-0.5-0.4-1-0.6-1.7-0.6c-0.6,0-1.2,0.2-1.6,0.6c-0.4,0.4-0.7,0.9-0.8,1.6H438z M451.7,298.8
	c0,0.4,0,0.7-0.1,1h-7.3c0.1,0.7,0.3,1.3,0.8,1.7c0.4,0.4,1,0.6,1.6,0.6c0.9,0,1.6-0.4,2-1.2h2.7c-0.3,1-0.8,1.8-1.7,2.4
	c-0.8,0.6-1.8,0.9-3,0.9c-1,0-1.8-0.2-2.6-0.6c-0.8-0.4-1.4-1-1.8-1.8c-0.4-0.8-0.6-1.7-0.6-2.7c0-1,0.2-1.9,0.6-2.7
	c0.4-0.8,1-1.4,1.8-1.8c0.8-0.4,1.6-0.6,2.6-0.6c0.9,0,1.8,0.2,2.5,0.6c0.8,0.4,1.3,1,1.7,1.7C451.5,297,451.7,297.8,451.7,298.8z
	 M449.1,298.1c0-0.6-0.2-1.2-0.7-1.5c-0.5-0.4-1-0.6-1.7-0.6c-0.6,0-1.2,0.2-1.6,0.6c-0.4,0.4-0.7,0.9-0.8,1.6H449.1z M457.4,304.2
	c-0.8,0-1.5-0.1-2.2-0.4c-0.6-0.3-1.2-0.7-1.5-1.2c-0.4-0.5-0.6-1.1-0.6-1.7h2.5c0,0.4,0.2,0.7,0.6,1c0.3,0.3,0.8,0.4,1.2,0.4
	c0.5,0,0.9-0.1,1.1-0.3c0.3-0.2,0.4-0.4,0.4-0.7c0-0.3-0.2-0.6-0.5-0.7c-0.3-0.2-0.8-0.3-1.6-0.5c-0.7-0.2-1.4-0.4-1.8-0.6
	c-0.5-0.2-0.9-0.5-1.2-0.9c-0.3-0.4-0.5-0.9-0.5-1.6c0-0.6,0.2-1.1,0.5-1.5c0.3-0.5,0.8-0.8,1.4-1.1c0.6-0.3,1.3-0.4,2.1-0.4
	c1.2,0,2.1,0.3,2.8,0.9c0.7,0.6,1.1,1.4,1.2,2.4h-2.4c0-0.4-0.2-0.7-0.5-0.9c-0.3-0.2-0.7-0.4-1.2-0.4c-0.5,0-0.8,0.1-1.1,0.3
	c-0.2,0.2-0.4,0.4-0.4,0.7c0,0.3,0.2,0.6,0.5,0.8c0.3,0.2,0.9,0.3,1.6,0.5c0.7,0.2,1.3,0.4,1.8,0.6c0.5,0.2,0.9,0.5,1.2,0.9
	c0.3,0.4,0.5,0.9,0.5,1.6c0,0.6-0.2,1.1-0.5,1.5c-0.3,0.5-0.8,0.8-1.4,1.1C458.8,304,458.2,304.2,457.4,304.2z"/>
<path class="st1" d="M425.1,35.4v2h-3.3V48h-2.5V37.5h-3.3v-2H425.1z M431.4,48.2c-1,0-1.8-0.2-2.6-0.6c-0.8-0.4-1.4-1-1.8-1.8
	c-0.4-0.8-0.6-1.7-0.6-2.7s0.2-1.9,0.7-2.7c0.5-0.8,1.1-1.4,1.9-1.8c0.8-0.4,1.7-0.6,2.6-0.6s1.8,0.2,2.6,0.6c0.8,0.4,1.4,1,1.8,1.8
	c0.5,0.8,0.7,1.7,0.7,2.7s-0.2,1.9-0.7,2.7c-0.5,0.8-1.1,1.4-1.9,1.8C433.2,48,432.3,48.2,431.4,48.2z M431.4,46
	c0.5,0,0.9-0.1,1.3-0.3c0.4-0.2,0.7-0.6,1-1c0.2-0.4,0.4-1,0.4-1.6c0-0.9-0.3-1.7-0.8-2.2c-0.5-0.5-1.1-0.8-1.8-0.8
	s-1.3,0.3-1.8,0.8c-0.5,0.5-0.7,1.2-0.7,2.2c0,0.9,0.2,1.7,0.7,2.2C430,45.7,430.6,46,431.4,46z M444.3,48l-3.4-4.2V48h-2.5V34.7
	h2.5v7.6l3.3-4.2h3.3l-4.4,5l4.4,5H444.3z M458.2,42.8c0,0.4,0,0.7-0.1,1h-7.3c0.1,0.7,0.3,1.3,0.8,1.7c0.4,0.4,1,0.6,1.6,0.6
	c0.9,0,1.6-0.4,2-1.2h2.7c-0.3,1-0.8,1.8-1.7,2.4c-0.8,0.6-1.8,0.9-3,0.9c-1,0-1.8-0.2-2.6-0.6c-0.8-0.4-1.4-1-1.8-1.8
	c-0.4-0.8-0.6-1.7-0.6-2.7c0-1,0.2-1.9,0.6-2.7c0.4-0.8,1-1.4,1.8-1.8c0.8-0.4,1.6-0.6,2.6-0.6c0.9,0,1.8,0.2,2.5,0.6
	c0.8,0.4,1.3,1,1.7,1.7C458,41,458.2,41.8,458.2,42.8z M455.6,42.1c0-0.6-0.2-1.2-0.7-1.5c-0.5-0.4-1-0.6-1.7-0.6
	c-0.6,0-1.2,0.2-1.6,0.6c-0.4,0.4-0.7,0.9-0.8,1.6H455.6z M465.6,37.9c1.2,0,2.1,0.4,2.9,1.1c0.7,0.7,1.1,1.8,1.1,3.1V48H467v-5.5
	c0-0.8-0.2-1.4-0.6-1.8c-0.4-0.4-0.9-0.6-1.6-0.6c-0.7,0-1.2,0.2-1.7,0.6c-0.4,0.4-0.6,1-0.6,1.8V48H460V38h2.5v1.2
	c0.3-0.4,0.8-0.8,1.3-1C464.4,38,464.9,37.9,465.6,37.9z M402.9,59.5c0.3-0.5,0.8-0.9,1.3-1.2c0.6-0.3,1.2-0.5,2-0.5
	c0.9,0,1.6,0.2,2.3,0.6c0.7,0.4,1.2,1,1.6,1.8c0.4,0.8,0.6,1.7,0.6,2.7s-0.2,1.9-0.6,2.7c-0.4,0.8-0.9,1.4-1.6,1.8
	c-0.7,0.4-1.5,0.6-2.3,0.6c-0.7,0-1.4-0.1-2-0.4c-0.6-0.3-1-0.7-1.3-1.2V68h-2.5V54.7h2.5V59.5z M408.2,63c0-0.6-0.1-1.1-0.4-1.5
	c-0.2-0.4-0.6-0.8-1-1c-0.4-0.2-0.8-0.3-1.3-0.3c-0.5,0-0.9,0.1-1.3,0.4c-0.4,0.2-0.7,0.6-1,1c-0.2,0.4-0.4,1-0.4,1.6
	s0.1,1.1,0.4,1.6c0.3,0.4,0.6,0.8,1,1c0.4,0.2,0.8,0.3,1.3,0.3c0.5,0,0.9-0.1,1.3-0.4c0.4-0.2,0.7-0.6,1-1
	C408,64.1,408.2,63.6,408.2,63z M422,58v10h-2.5v-1.3c-0.3,0.4-0.8,0.8-1.3,1c-0.5,0.2-1.1,0.4-1.7,0.4c-0.8,0-1.5-0.2-2.1-0.5
	c-0.6-0.3-1.1-0.8-1.4-1.5c-0.3-0.6-0.5-1.4-0.5-2.3V58h2.5v5.5c0,0.8,0.2,1.4,0.6,1.8c0.4,0.4,0.9,0.6,1.6,0.6
	c0.7,0,1.2-0.2,1.6-0.6c0.4-0.4,0.6-1,0.6-1.8V58H422z M427,59.6c0.3-0.5,0.7-0.9,1.3-1.2c0.5-0.3,1.1-0.5,1.8-0.5v2.6h-0.7
	c-0.8,0-1.4,0.2-1.8,0.6c-0.4,0.4-0.6,1-0.6,1.9v5h-2.5V58h2.5V59.6z M437.3,57.9c1.2,0,2.1,0.4,2.9,1.1c0.7,0.7,1.1,1.8,1.1,3.1V68
	h-2.5v-5.5c0-0.8-0.2-1.4-0.6-1.8c-0.4-0.4-0.9-0.6-1.6-0.6c-0.7,0-1.2,0.2-1.7,0.6c-0.4,0.4-0.6,1-0.6,1.8V68h-2.5V58h2.5v1.2
	c0.3-0.4,0.8-0.8,1.3-1C436.1,58,436.7,57.9,437.3,57.9z M450.5,59.5c0.3-0.5,0.8-0.8,1.3-1.1c0.6-0.3,1.2-0.5,2-0.5
	c0.9,0,1.6,0.2,2.3,0.6c0.7,0.4,1.2,1,1.6,1.8c0.4,0.8,0.6,1.7,0.6,2.7s-0.2,1.9-0.6,2.7c-0.4,0.8-0.9,1.4-1.6,1.8
	c-0.7,0.4-1.5,0.6-2.3,0.6c-0.7,0-1.4-0.2-1.9-0.5c-0.6-0.3-1-0.7-1.4-1.1v6.2h-2.5V58h2.5V59.5z M455.7,63c0-0.6-0.1-1.1-0.4-1.5
	c-0.2-0.4-0.6-0.8-1-1c-0.4-0.2-0.8-0.3-1.3-0.3c-0.5,0-0.9,0.1-1.3,0.4c-0.4,0.2-0.7,0.6-1,1c-0.2,0.4-0.4,1-0.4,1.6
	s0.1,1.1,0.4,1.6c0.3,0.4,0.6,0.8,1,1c0.4,0.2,0.8,0.3,1.3,0.3c0.5,0,0.9-0.1,1.3-0.4c0.4-0.2,0.7-0.6,1-1
	C455.6,64.1,455.7,63.6,455.7,63z M464.6,68.2c-1,0-1.8-0.2-2.6-0.6c-0.8-0.4-1.4-1-1.8-1.8c-0.4-0.8-0.6-1.7-0.6-2.7
	c0-1,0.2-1.9,0.7-2.7c0.5-0.8,1.1-1.4,1.9-1.8c0.8-0.4,1.6-0.6,2.6-0.6c1,0,1.8,0.2,2.6,0.6c0.8,0.4,1.4,1,1.8,1.8
	c0.5,0.8,0.7,1.7,0.7,2.7c0,1-0.2,1.9-0.7,2.7c-0.5,0.8-1.1,1.4-1.9,1.8C466.4,68,465.5,68.2,464.6,68.2z M464.6,66
	c0.5,0,0.9-0.1,1.3-0.3c0.4-0.2,0.7-0.6,1-1s0.4-1,0.4-1.6c0-0.9-0.3-1.7-0.8-2.2c-0.5-0.5-1.1-0.8-1.8-0.8s-1.3,0.3-1.8,0.8
	c-0.5,0.5-0.7,1.2-0.7,2.2c0,0.9,0.2,1.7,0.7,2.2C463.2,65.7,463.8,66,464.6,66z M476,68.2c-1,0-1.8-0.2-2.6-0.6
	c-0.8-0.4-1.4-1-1.8-1.8c-0.4-0.8-0.6-1.7-0.6-2.7c0-1,0.2-1.9,0.7-2.7c0.5-0.8,1.1-1.4,1.9-1.8c0.8-0.4,1.6-0.6,2.6-0.6
	s1.8,0.2,2.6,0.6c0.8,0.4,1.4,1,1.8,1.8c0.5,0.8,0.7,1.7,0.7,2.7c0,1-0.2,1.9-0.7,2.7c-0.5,0.8-1.1,1.4-1.9,1.8
	C477.9,68,477,68.2,476,68.2z M476,66c0.5,0,0.9-0.1,1.3-0.3c0.4-0.2,0.7-0.6,1-1s0.4-1,0.4-1.6c0-0.9-0.3-1.7-0.8-2.2
	c-0.5-0.5-1.1-0.8-1.8-0.8c-0.7,0-1.3,0.3-1.8,0.8c-0.5,0.5-0.7,1.2-0.7,2.2c0,0.9,0.2,1.7,0.7,2.2C474.7,65.7,475.3,66,476,66z
	 M485.6,54.7V68h-2.5V54.7H485.6z"/>
<path class="st1" d="M1060,354h4.1v2h-6.7v-12.6h2.5V354z M1067.1,344.8c-0.5,0-0.8-0.1-1.1-0.4c-0.3-0.3-0.4-0.6-0.4-1.1
	c0-0.4,0.1-0.8,0.4-1c0.3-0.3,0.7-0.4,1.1-0.4c0.4,0,0.8,0.1,1.1,0.4c0.3,0.3,0.4,0.6,0.4,1c0,0.4-0.2,0.8-0.4,1.1
	C1067.9,344.7,1067.5,344.8,1067.1,344.8z M1068.3,346v10h-2.5v-10H1068.3z M1070.1,351c0-1,0.2-1.9,0.6-2.6c0.4-0.8,1-1.4,1.7-1.8
	c0.7-0.4,1.5-0.6,2.3-0.6c0.7,0,1.3,0.1,1.9,0.4c0.5,0.3,1,0.6,1.3,1V346h2.5v14.7h-2.5v-6.1c-0.3,0.4-0.8,0.8-1.3,1.1
	c-0.6,0.3-1.2,0.4-1.9,0.4c-0.8,0-1.6-0.2-2.3-0.6c-0.7-0.4-1.3-1.1-1.7-1.8C1070.3,352.9,1070.1,352,1070.1,351z M1078,351
	c0-0.6-0.1-1.1-0.4-1.6s-0.6-0.8-1-1c-0.4-0.2-0.8-0.3-1.3-0.3c-0.4,0-0.9,0.1-1.3,0.3c-0.4,0.2-0.7,0.6-1,1c-0.3,0.4-0.4,1-0.4,1.6
	s0.1,1.1,0.4,1.6c0.3,0.4,0.6,0.8,1,1c0.4,0.2,0.8,0.3,1.3,0.3c0.5,0,0.9-0.1,1.3-0.3c0.4-0.2,0.7-0.6,1-1S1078,351.6,1078,351z
	 M1092.4,346v10h-2.5v-1.3c-0.3,0.4-0.8,0.8-1.3,1c-0.5,0.2-1.1,0.4-1.7,0.4c-0.8,0-1.5-0.2-2.1-0.5c-0.6-0.3-1.1-0.8-1.4-1.5
	c-0.3-0.6-0.5-1.4-0.5-2.3V346h2.5v5.5c0,0.8,0.2,1.4,0.6,1.8c0.4,0.4,0.9,0.6,1.6,0.6c0.7,0,1.3-0.2,1.6-0.6c0.4-0.4,0.6-1,0.6-1.8
	V346H1092.4z M1096.2,344.8c-0.5,0-0.8-0.1-1.1-0.4c-0.3-0.3-0.4-0.6-0.4-1.1c0-0.4,0.1-0.8,0.4-1c0.3-0.3,0.7-0.4,1.1-0.4
	c0.4,0,0.8,0.1,1.1,0.4c0.3,0.3,0.4,0.6,0.4,1c0,0.4-0.1,0.8-0.4,1.1C1097,344.7,1096.6,344.8,1096.2,344.8z M1097.4,346v10h-2.5
	v-10H1097.4z M1099.2,351c0-1,0.2-1.9,0.6-2.7s1-1.4,1.7-1.8c0.7-0.4,1.5-0.6,2.3-0.6c0.6,0,1.3,0.1,1.9,0.4c0.6,0.3,1,0.6,1.4,1.1
	v-4.7h2.6V356h-2.6v-1.5c-0.3,0.5-0.8,0.9-1.3,1.2c-0.6,0.3-1.2,0.4-2,0.4c-0.8,0-1.6-0.2-2.3-0.6c-0.7-0.4-1.3-1-1.7-1.8
	C1099.4,352.9,1099.2,352,1099.2,351z M1107.1,351c0-0.6-0.1-1.1-0.4-1.6c-0.2-0.4-0.6-0.8-1-1c-0.4-0.2-0.8-0.4-1.3-0.4
	c-0.5,0-0.9,0.1-1.3,0.3c-0.4,0.2-0.7,0.6-1,1c-0.2,0.4-0.4,0.9-0.4,1.5s0.1,1.1,0.4,1.6c0.3,0.4,0.6,0.8,1,1
	c0.4,0.2,0.8,0.4,1.3,0.4c0.5,0,0.9-0.1,1.3-0.3c0.4-0.2,0.7-0.6,1-1C1107,352.2,1107.1,351.6,1107.1,351z M1113.4,344.8
	c-0.4,0-0.8-0.1-1.1-0.4c-0.3-0.3-0.4-0.6-0.4-1.1c0-0.4,0.1-0.8,0.4-1c0.3-0.3,0.7-0.4,1.1-0.4c0.4,0,0.8,0.1,1.1,0.4
	c0.3,0.3,0.5,0.6,0.5,1c0,0.4-0.2,0.8-0.5,1.1C1114.2,344.7,1113.8,344.8,1113.4,344.8z M1114.6,346v10h-2.5v-10H1114.6z
	 M1120,348.1v4.8c0,0.3,0.1,0.6,0.2,0.7c0.2,0.1,0.4,0.2,0.8,0.2h1.2v2.1h-1.6c-2.1,0-3.2-1-3.2-3.1v-4.8h-1.2V346h1.2v-2.5h2.5v2.5
	h2.2v2.1H1120z M1133.6,346l-6.2,14.7h-2.7l2.2-5l-4-9.7h2.8l2.6,7l2.6-7H1133.6z M1055.2,367.5c0.3-0.5,0.8-0.8,1.3-1.1
	c0.6-0.3,1.2-0.5,2-0.5c0.8,0,1.6,0.2,2.3,0.6c0.7,0.4,1.2,1,1.6,1.8c0.4,0.8,0.6,1.7,0.6,2.7s-0.2,1.9-0.6,2.7
	c-0.4,0.8-0.9,1.4-1.6,1.8c-0.7,0.4-1.5,0.6-2.3,0.6c-0.7,0-1.4-0.1-1.9-0.4c-0.6-0.3-1-0.7-1.4-1.1v6.2h-2.5V366h2.5V367.5z
	 M1060.5,371c0-0.6-0.1-1.1-0.4-1.5c-0.2-0.4-0.6-0.8-1-1c-0.4-0.2-0.8-0.3-1.3-0.3c-0.4,0-0.9,0.1-1.3,0.4c-0.4,0.2-0.7,0.6-1,1
	c-0.2,0.4-0.4,1-0.4,1.6s0.1,1.1,0.4,1.6c0.3,0.4,0.6,0.8,1,1c0.4,0.2,0.8,0.3,1.3,0.3c0.5,0,0.9-0.1,1.3-0.4c0.4-0.2,0.7-0.6,1-1
	C1060.3,372.1,1060.5,371.6,1060.5,371z M1067.4,367.6c0.3-0.5,0.8-0.9,1.3-1.2c0.5-0.3,1.1-0.5,1.8-0.5v2.6h-0.7
	c-0.8,0-1.4,0.2-1.8,0.6c-0.4,0.4-0.6,1-0.6,1.9v5h-2.5v-10h2.5V367.6z M1076.6,376.2c-1,0-1.8-0.2-2.6-0.6c-0.8-0.4-1.4-1-1.8-1.8
	c-0.4-0.8-0.7-1.7-0.7-2.7c0-1,0.2-1.9,0.7-2.7c0.5-0.8,1.1-1.4,1.9-1.8c0.8-0.4,1.6-0.6,2.6-0.6c1,0,1.8,0.2,2.6,0.6
	c0.8,0.4,1.4,1,1.8,1.8c0.5,0.8,0.7,1.7,0.7,2.7c0,1-0.2,1.9-0.7,2.7c-0.5,0.8-1.1,1.4-1.9,1.8
	C1078.4,376,1077.6,376.2,1076.6,376.2z M1076.6,374c0.5,0,0.9-0.1,1.3-0.3c0.4-0.2,0.7-0.6,1-1s0.4-1,0.4-1.6
	c0-0.9-0.3-1.7-0.8-2.2c-0.5-0.5-1.1-0.8-1.8-0.8s-1.3,0.3-1.8,0.8c-0.5,0.5-0.7,1.2-0.7,2.2s0.2,1.7,0.7,2.2
	C1075.3,373.7,1075.9,374,1076.6,374z M1087.8,373.7l2.5-7.6h2.7l-3.7,10h-3.1l-3.7-10h2.7L1087.8,373.7z M1095.7,364.8
	c-0.4,0-0.8-0.1-1.1-0.4c-0.3-0.3-0.4-0.6-0.4-1.1c0-0.4,0.1-0.8,0.4-1c0.3-0.3,0.7-0.4,1.1-0.4c0.4,0,0.8,0.1,1.1,0.4
	c0.3,0.3,0.4,0.6,0.4,1c0,0.4-0.2,0.8-0.4,1.1C1096.5,364.7,1096.1,364.8,1095.7,364.8z M1096.9,366v10h-2.5v-10H1096.9z
	 M1098.8,371c0-1,0.2-1.9,0.6-2.7c0.4-0.8,1-1.4,1.7-1.8c0.7-0.4,1.5-0.6,2.3-0.6c0.7,0,1.3,0.1,1.8,0.4c0.6,0.3,1.1,0.6,1.4,1.1
	v-4.7h2.6V376h-2.6v-1.5c-0.3,0.5-0.8,0.9-1.3,1.2c-0.6,0.3-1.2,0.4-2,0.4c-0.8,0-1.6-0.2-2.3-0.6c-0.7-0.4-1.3-1-1.7-1.8
	C1099,372.9,1098.8,372,1098.8,371z M1106.6,371c0-0.6-0.1-1.1-0.4-1.6c-0.2-0.4-0.6-0.8-1-1c-0.4-0.2-0.8-0.4-1.3-0.4
	s-0.9,0.1-1.3,0.3c-0.4,0.2-0.7,0.6-1,1c-0.2,0.4-0.4,0.9-0.4,1.5s0.1,1.1,0.4,1.6c0.3,0.4,0.6,0.8,1,1c0.4,0.2,0.8,0.4,1.3,0.4
	c0.5,0,0.9-0.1,1.3-0.3c0.4-0.2,0.7-0.6,1-1C1106.5,372.2,1106.6,371.6,1106.6,371z M1120.9,370.8c0,0.4,0,0.7-0.1,1h-7.3
	c0.1,0.7,0.3,1.3,0.8,1.7c0.4,0.4,1,0.6,1.6,0.6c0.9,0,1.6-0.4,2-1.2h2.7c-0.3,1-0.8,1.8-1.7,2.4c-0.8,0.6-1.8,0.9-3,0.9
	c-1,0-1.8-0.2-2.6-0.6c-0.8-0.4-1.3-1-1.8-1.8c-0.4-0.8-0.6-1.7-0.6-2.7c0-1,0.2-1.9,0.6-2.7c0.4-0.8,1-1.4,1.8-1.8
	c0.8-0.4,1.6-0.6,2.6-0.6c1,0,1.8,0.2,2.5,0.6s1.3,1,1.7,1.7C1120.7,369,1120.9,369.8,1120.9,370.8z M1118.3,370.1
	c0-0.6-0.2-1.2-0.7-1.5c-0.4-0.4-1-0.6-1.7-0.6c-0.6,0-1.2,0.2-1.6,0.6c-0.4,0.4-0.7,0.9-0.8,1.6H1118.3z M1125.2,367.6
	c0.3-0.5,0.8-0.9,1.3-1.2c0.5-0.3,1.1-0.5,1.8-0.5v2.6h-0.7c-0.8,0-1.4,0.2-1.8,0.6c-0.4,0.4-0.6,1-0.6,1.9v5h-2.5v-10h2.5V367.6z
	 M1133.8,376.2c-0.8,0-1.5-0.1-2.2-0.4c-0.7-0.3-1.2-0.7-1.6-1.2c-0.4-0.5-0.6-1.1-0.6-1.7h2.5c0.1,0.4,0.2,0.7,0.6,1
	c0.3,0.3,0.8,0.4,1.2,0.4c0.5,0,0.8-0.1,1.1-0.3c0.3-0.2,0.4-0.4,0.4-0.7c0-0.3-0.2-0.6-0.5-0.7c-0.3-0.2-0.8-0.3-1.6-0.5
	c-0.8-0.2-1.4-0.4-1.8-0.6c-0.5-0.2-0.9-0.5-1.2-0.9c-0.3-0.4-0.5-0.9-0.5-1.6c0-0.6,0.2-1.1,0.5-1.5c0.3-0.5,0.8-0.8,1.4-1.1
	c0.6-0.3,1.3-0.4,2.1-0.4c1.2,0,2.1,0.3,2.8,0.9c0.7,0.6,1.1,1.4,1.2,2.4h-2.4c0-0.4-0.2-0.7-0.5-0.9c-0.3-0.2-0.7-0.4-1.2-0.4
	c-0.5,0-0.8,0.1-1.1,0.3c-0.2,0.2-0.4,0.4-0.4,0.7c0,0.3,0.2,0.6,0.5,0.8c0.3,0.2,0.8,0.3,1.6,0.5c0.7,0.2,1.3,0.4,1.8,0.6
	c0.5,0.2,0.9,0.5,1.2,0.9c0.4,0.4,0.5,0.9,0.5,1.6c0,0.6-0.2,1.1-0.5,1.5c-0.3,0.5-0.8,0.8-1.4,1.1
	C1135.3,376,1134.6,376.2,1133.8,376.2z"/>
<path class="st1" d="M425.8,547.4V560h-2.5v-8.2l-3.4,8.2H418l-3.4-8.2v8.2h-2.5v-12.6h2.9l4,9.3l4-9.3H425.8z M427.7,555
	c0-1,0.2-1.9,0.6-2.7c0.4-0.8,1-1.4,1.6-1.8c0.7-0.4,1.5-0.6,2.3-0.6c0.7,0,1.4,0.1,1.9,0.4c0.6,0.3,1,0.7,1.4,1.1V550h2.5v10h-2.5
	v-1.5c-0.3,0.5-0.8,0.9-1.4,1.2c-0.6,0.3-1.2,0.5-2,0.5c-0.8,0-1.6-0.2-2.3-0.6c-0.7-0.4-1.2-1-1.6-1.8
	C427.8,556.9,427.7,556,427.7,555z M435.5,555c0-0.6-0.1-1.1-0.4-1.6c-0.2-0.4-0.6-0.8-1-1c-0.4-0.2-0.8-0.4-1.3-0.4
	c-0.5,0-0.9,0.1-1.3,0.3s-0.7,0.6-1,1c-0.2,0.4-0.4,0.9-0.4,1.5c0,0.6,0.1,1.1,0.4,1.6c0.3,0.4,0.6,0.8,1,1c0.4,0.2,0.8,0.4,1.3,0.4
	c0.5,0,0.9-0.1,1.3-0.3c0.4-0.2,0.7-0.6,1-1C435.4,556.2,435.5,555.6,435.5,555z M443,551.6c0.3-0.5,0.7-0.9,1.3-1.2
	c0.5-0.3,1.1-0.5,1.8-0.5v2.6h-0.7c-0.8,0-1.4,0.2-1.8,0.6c-0.4,0.4-0.6,1-0.6,1.9v5h-2.5v-10h2.5V551.6z M453.7,560l-3.4-4.2v4.2
	h-2.5v-13.3h2.5v7.6l3.3-4.2h3.3l-4.4,5l4.4,5H453.7z M467.6,554.8c0,0.4,0,0.7-0.1,1h-7.3c0.1,0.7,0.3,1.3,0.8,1.7
	c0.4,0.4,1,0.6,1.6,0.6c0.9,0,1.6-0.4,2-1.2h2.7c-0.3,1-0.8,1.8-1.7,2.4c-0.8,0.6-1.8,0.9-3,0.9c-1,0-1.8-0.2-2.6-0.6
	c-0.8-0.4-1.4-1-1.8-1.8c-0.4-0.8-0.6-1.7-0.6-2.7c0-1,0.2-1.9,0.6-2.7c0.4-0.8,1-1.4,1.8-1.8c0.8-0.4,1.6-0.6,2.6-0.6
	c0.9,0,1.8,0.2,2.5,0.6c0.8,0.4,1.3,1,1.7,1.7C467.3,553,467.6,553.8,467.6,554.8z M464.9,554.1c0-0.6-0.2-1.2-0.7-1.5
	c-0.5-0.4-1-0.6-1.7-0.6c-0.6,0-1.2,0.2-1.6,0.6c-0.4,0.4-0.7,0.9-0.8,1.6H464.9z M472.3,552.1v4.8c0,0.3,0.1,0.6,0.2,0.7
	c0.2,0.1,0.4,0.2,0.8,0.2h1.2v2.1H473c-2.1,0-3.2-1-3.2-3.1v-4.8h-1.2V550h1.2v-2.5h2.5v2.5h2.2v2.1H472.3z M405.1,575
	c0-1,0.2-1.9,0.6-2.7c0.4-0.8,1-1.4,1.7-1.8c0.7-0.4,1.6-0.6,2.6-0.6c1.2,0,2.3,0.3,3.1,0.9c0.8,0.6,1.4,1.5,1.6,2.6H412
	c-0.1-0.4-0.4-0.8-0.7-1c-0.3-0.3-0.8-0.4-1.3-0.4c-0.7,0-1.3,0.3-1.7,0.8c-0.4,0.5-0.6,1.3-0.6,2.2c0,0.9,0.2,1.7,0.6,2.2
	c0.4,0.5,1,0.8,1.7,0.8c1,0,1.7-0.5,2-1.4h2.7c-0.3,1.1-0.8,1.9-1.6,2.6s-1.8,1-3.1,1c-1,0-1.8-0.2-2.6-0.6c-0.7-0.4-1.3-1-1.7-1.8
	C405.3,577,405.1,576,405.1,575z M419.1,571.6c0.3-0.5,0.7-0.9,1.3-1.2c0.5-0.3,1.1-0.5,1.8-0.5v2.6h-0.7c-0.8,0-1.4,0.2-1.8,0.6
	c-0.4,0.4-0.6,1-0.6,1.9v5h-2.5v-10h2.5V571.6z M433.1,574.8c0,0.4,0,0.7-0.1,1h-7.3c0.1,0.7,0.3,1.3,0.8,1.7c0.4,0.4,1,0.6,1.6,0.6
	c0.9,0,1.6-0.4,2-1.2h2.7c-0.3,1-0.8,1.8-1.7,2.4c-0.8,0.6-1.8,0.9-3,0.9c-1,0-1.8-0.2-2.6-0.6c-0.8-0.4-1.4-1-1.8-1.8
	c-0.4-0.8-0.6-1.7-0.6-2.7c0-1,0.2-1.9,0.6-2.7c0.4-0.8,1-1.4,1.8-1.8c0.8-0.4,1.6-0.6,2.6-0.6c0.9,0,1.8,0.2,2.5,0.6
	c0.8,0.4,1.3,1,1.7,1.7C432.9,573,433.1,573.8,433.1,574.8z M430.5,574.1c0-0.6-0.2-1.2-0.7-1.5c-0.5-0.4-1-0.6-1.7-0.6
	c-0.6,0-1.2,0.2-1.6,0.6c-0.4,0.4-0.7,0.9-0.8,1.6H430.5z M434.3,575c0-1,0.2-1.9,0.6-2.7c0.4-0.8,1-1.4,1.6-1.8
	c0.7-0.4,1.5-0.6,2.3-0.6c0.7,0,1.4,0.1,1.9,0.4c0.6,0.3,1,0.7,1.4,1.1V570h2.5v10h-2.5v-1.5c-0.3,0.5-0.8,0.9-1.4,1.2
	c-0.6,0.3-1.2,0.5-2,0.5c-0.8,0-1.6-0.2-2.3-0.6c-0.7-0.4-1.2-1-1.6-1.8C434.5,576.9,434.3,576,434.3,575z M442.2,575
	c0-0.6-0.1-1.1-0.4-1.6c-0.2-0.4-0.6-0.8-1-1c-0.4-0.2-0.8-0.4-1.3-0.4c-0.5,0-0.9,0.1-1.3,0.3s-0.7,0.6-1,1
	c-0.2,0.4-0.4,0.9-0.4,1.5c0,0.6,0.1,1.1,0.4,1.6c0.3,0.4,0.6,0.8,1,1c0.4,0.2,0.8,0.4,1.3,0.4c0.5,0,0.9-0.1,1.3-0.3
	c0.4-0.2,0.7-0.6,1-1C442.1,576.2,442.2,575.6,442.2,575z M450.1,572.1v4.8c0,0.3,0.1,0.6,0.2,0.7c0.2,0.1,0.4,0.2,0.8,0.2h1.2v2.1
	h-1.6c-2.1,0-3.2-1-3.2-3.1v-4.8h-1.2V570h1.2v-2.5h2.5v2.5h2.2v2.1H450.1z M458.6,580.2c-1,0-1.8-0.2-2.6-0.6
	c-0.8-0.4-1.4-1-1.8-1.8c-0.4-0.8-0.6-1.7-0.6-2.7c0-1,0.2-1.9,0.7-2.7c0.5-0.8,1.1-1.4,1.9-1.8c0.8-0.4,1.7-0.6,2.6-0.6
	s1.8,0.2,2.6,0.6c0.8,0.4,1.4,1,1.8,1.8c0.5,0.8,0.7,1.7,0.7,2.7c0,1-0.2,1.9-0.7,2.7c-0.5,0.8-1.1,1.4-1.9,1.8
	C460.4,580,459.6,580.2,458.6,580.2z M458.6,578c0.5,0,0.9-0.1,1.3-0.3c0.4-0.2,0.7-0.6,1-1c0.2-0.4,0.4-1,0.4-1.6
	c0-0.9-0.3-1.7-0.8-2.2c-0.5-0.5-1.1-0.8-1.8-0.8s-1.3,0.3-1.8,0.8c-0.5,0.5-0.7,1.2-0.7,2.2s0.2,1.7,0.7,2.2
	C457.3,577.7,457.9,578,458.6,578z M468.2,571.6c0.3-0.5,0.7-0.9,1.3-1.2c0.5-0.3,1.1-0.5,1.8-0.5v2.6h-0.7c-0.8,0-1.4,0.2-1.8,0.6
	c-0.4,0.4-0.6,1-0.6,1.9v5h-2.5v-10h2.5V571.6z M476.7,580.2c-0.8,0-1.5-0.1-2.2-0.4c-0.6-0.3-1.2-0.7-1.5-1.2
	c-0.4-0.5-0.6-1.1-0.6-1.7h2.5c0,0.4,0.2,0.7,0.6,1c0.3,0.3,0.8,0.4,1.2,0.4c0.5,0,0.9-0.1,1.1-0.3c0.3-0.2,0.4-0.4,0.4-0.7
	c0-0.3-0.2-0.6-0.5-0.7c-0.3-0.2-0.8-0.3-1.6-0.5c-0.7-0.2-1.4-0.4-1.8-0.6c-0.5-0.2-0.9-0.5-1.2-0.9c-0.3-0.4-0.5-0.9-0.5-1.6
	c0-0.6,0.2-1.1,0.5-1.5c0.3-0.5,0.8-0.8,1.4-1.1c0.6-0.3,1.3-0.4,2.1-0.4c1.2,0,2.1,0.3,2.8,0.9c0.7,0.6,1.1,1.4,1.2,2.4h-2.4
	c0-0.4-0.2-0.7-0.5-0.9c-0.3-0.2-0.7-0.4-1.2-0.4c-0.5,0-0.8,0.1-1.1,0.3c-0.2,0.2-0.4,0.4-0.4,0.7c0,0.3,0.2,0.6,0.5,0.8
	c0.3,0.2,0.9,0.3,1.6,0.5c0.7,0.2,1.3,0.4,1.8,0.6c0.5,0.2,0.9,0.5,1.2,0.9c0.3,0.4,0.5,0.9,0.5,1.6c0,0.6-0.2,1.1-0.5,1.5
	c-0.3,0.5-0.8,0.8-1.4,1.1C478.2,580,477.5,580.2,476.7,580.2z"/>
<path class="st1" d="M127.3,310.7c0.4,0.4,1,0.4,1.4,0l6.4-6.4c0.4-0.4,0.4-1,0-1.4c-0.4-0.4-1-0.4-1.4,0l-5.7,5.7l-5.7-5.7
	c-0.4-0.4-1-0.4-1.4,0c-0.4,0.4-0.4,1,0,1.4L127.3,310.7z M128.7,239.3c-0.4-0.4-1-0.4-1.4,0l-6.4,6.4c-0.4,0.4-0.4,1,0,1.4
	c0.4,0.4,1,0.4,1.4,0l5.7-5.7l5.7,5.7c0.4,0.4,1,0.4,1.4,0c0.4-0.4,0.4-1,0-1.4L128.7,239.3z M129,310v-70h-2v70H129z"/>
<path class="st1" d="M442.3,439.7c0.4,0.4,1,0.4,1.4,0l6.4-6.4c0.4-0.4,0.4-1,0-1.4c-0.4-0.4-1-0.4-1.4,0l-5.7,5.7l-5.7-5.7
	c-0.4-0.4-1-0.4-1.4,0c-0.4,0.4-0.4,1,0,1.4L442.3,439.7z M443.7,366.3c-0.4-0.4-1-0.4-1.4,0l-6.4,6.4c-0.4,0.4-0.4,1,0,1.4
	c0.4,0.4,1,0.4,1.4,0l5.7-5.7l5.7,5.7c0.4,0.4,1,0.4,1.4,0c0.4-0.4,0.4-1,0-1.4L443.7,366.3z M444,439v-72h-2v72H444z"/>
<path class="st1" d="M128.7,459.8c-0.4-0.4-1-0.4-1.4,0l-6.4,6.4c-0.4,0.4-0.4,1,0,1.4c0.4,0.4,1,0.4,1.4,0l5.7-5.7l5.7,5.7
	c0.4,0.4,1,0.4,1.4,0c0.4-0.4,0.4-1,0-1.4L128.7,459.8z M129,490.5v-30h-2v30H129z"/>
<g>
	<text transform="matrix(1 0 0 1 621.0121 263.6937)" class="st3 st4 st5">Flashswap</text>
</g>
</svg>
