<svg width="132" height="22" viewBox="0 0 132 22" fill="none" xmlns="http://www.w3.org/2000/svg">
<path opacity="0.8" fill-rule="evenodd" clip-rule="evenodd" d="M19.6621 21.1538C20.0065 21.3977 20.4504 21.4586 20.8461 21.3089C21.2418 21.1581 21.5327 20.8201 21.6204 20.4105C22.5498 16.0427 24.8043 4.98724 25.6503 1.01405C25.7144 0.714585 25.6075 0.40336 25.3722 0.203364C25.1369 0.00336702 24.8107 -0.0543861 24.5198 0.0536336C20.0354 1.7135 6.22492 6.89523 0.580095 8.98397C0.221812 9.11659 -0.011339 9.46097 0.000425505 9.8385C0.0132595 10.2171 0.267801 10.5454 0.63464 10.6556C3.16615 11.4128 6.48909 12.4663 6.48909 12.4663C6.48909 12.4663 8.04201 17.156 8.85162 19.541C8.95322 19.8405 9.18744 20.0758 9.49653 20.157C9.80454 20.2373 10.134 20.1528 10.3639 19.9357C11.6644 18.7079 13.6751 16.8095 13.6751 16.8095C13.6751 16.8095 17.4953 19.6105 19.6621 21.1538ZM7.88566 11.8733L9.68135 17.7962L10.0803 14.0455C10.0803 14.0455 17.0181 7.7878 20.9731 4.22102C21.0886 4.11621 21.1047 3.94081 21.0084 3.81781C20.9133 3.69482 20.7379 3.66595 20.6063 3.74937C16.0224 6.67659 7.88566 11.8733 7.88566 11.8733Z" fill="#122672"/>
<path opacity="0.8" d="M55.432 3.49V5.164H52.102V16H50.05V5.164H46.702V3.49H55.432ZM66.6002 10.798C66.6002 11.17 66.5762 11.506 66.5282 11.806H58.9502C59.0102 12.598 59.3042 13.234 59.8322 13.714C60.3602 14.194 61.0082 14.434 61.7762 14.434C62.8802 14.434 63.6602 13.972 64.1162 13.048H66.3302C66.0302 13.96 65.4842 14.71 64.6922 15.298C63.9122 15.874 62.9402 16.162 61.7762 16.162C60.8282 16.162 59.9762 15.952 59.2202 15.532C58.4762 15.1 57.8882 14.5 57.4562 13.732C57.0362 12.952 56.8262 12.052 56.8262 11.032C56.8262 10.012 57.0302 9.118 57.4382 8.35C57.8582 7.57 58.4402 6.97 59.1842 6.55C59.9402 6.13 60.8042 5.92 61.7762 5.92C62.7122 5.92 63.5462 6.124 64.2782 6.532C65.0102 6.94 65.5802 7.516 65.9882 8.26C66.3962 8.992 66.6002 9.838 66.6002 10.798ZM64.4582 10.15C64.4462 9.394 64.1762 8.788 63.6482 8.332C63.1202 7.876 62.4662 7.648 61.6862 7.648C60.9782 7.648 60.3722 7.876 59.8682 8.332C59.3642 8.776 59.0642 9.382 58.9682 10.15H64.4582ZM70.6715 2.68V16H68.6195V2.68H70.6715ZM82.4556 10.798C82.4556 11.17 82.4316 11.506 82.3836 11.806H74.8056C74.8656 12.598 75.1596 13.234 75.6876 13.714C76.2156 14.194 76.8636 14.434 77.6316 14.434C78.7356 14.434 79.5156 13.972 79.9716 13.048H82.1856C81.8856 13.96 81.3396 14.71 80.5476 15.298C79.7676 15.874 78.7956 16.162 77.6316 16.162C76.6836 16.162 75.8316 15.952 75.0756 15.532C74.3316 15.1 73.7436 14.5 73.3116 13.732C72.8916 12.952 72.6816 12.052 72.6816 11.032C72.6816 10.012 72.8856 9.118 73.2936 8.35C73.7136 7.57 74.2956 6.97 75.0396 6.55C75.7956 6.13 76.6596 5.92 77.6316 5.92C78.5676 5.92 79.4016 6.124 80.1336 6.532C80.8656 6.94 81.4356 7.516 81.8436 8.26C82.2516 8.992 82.4556 9.838 82.4556 10.798ZM80.3136 10.15C80.3016 9.394 80.0316 8.788 79.5036 8.332C78.9756 7.876 78.3216 7.648 77.5416 7.648C76.8336 7.648 76.2276 7.876 75.7236 8.332C75.2196 8.776 74.9196 9.382 74.8236 10.15H80.3136ZM88.471 5.92C89.239 5.92 89.917 6.076 90.505 6.388C91.105 6.688 91.573 7.066 91.909 7.522V6.082H93.979V16.162C93.979 17.074 93.787 17.884 93.403 18.592C93.019 19.312 92.461 19.876 91.729 20.284C91.009 20.692 90.145 20.896 89.137 20.896C87.793 20.896 86.677 20.578 85.789 19.942C84.901 19.318 84.397 18.466 84.277 17.386H86.311C86.467 17.902 86.797 18.316 87.301 18.628C87.817 18.952 88.429 19.114 89.137 19.114C89.965 19.114 90.631 18.862 91.135 18.358C91.651 17.854 91.909 17.122 91.909 16.162V14.506C91.561 14.974 91.087 15.37 90.487 15.694C89.899 16.006 89.227 16.162 88.471 16.162C87.607 16.162 86.815 15.946 86.095 15.514C85.387 15.07 84.823 14.458 84.403 13.678C83.995 12.886 83.791 11.992 83.791 10.996C83.791 10 83.995 9.118 84.403 8.35C84.823 7.582 85.387 6.988 86.095 6.568C86.815 6.136 87.607 5.92 88.471 5.92ZM91.909 11.032C91.909 10.348 91.765 9.754 91.477 9.25C91.201 8.746 90.835 8.362 90.379 8.098C89.923 7.834 89.431 7.702 88.903 7.702C88.375 7.702 87.883 7.834 87.427 8.098C86.971 8.35 86.599 8.728 86.311 9.232C86.035 9.724 85.897 10.312 85.897 10.996C85.897 11.68 86.035 12.28 86.311 12.796C86.599 13.312 86.971 13.708 87.427 13.984C87.895 14.248 88.387 14.38 88.903 14.38C89.431 14.38 89.923 14.248 90.379 13.984C90.835 13.72 91.201 13.336 91.477 12.832C91.765 12.316 91.909 11.716 91.909 11.032ZM98.7262 7.522C99.0262 7.018 99.4222 6.628 99.9142 6.352C100.418 6.064 101.012 5.92 101.696 5.92V8.044H101.174C100.37 8.044 99.7582 8.248 99.3382 8.656C98.9302 9.064 98.7262 9.772 98.7262 10.78V16H96.6742V6.082H98.7262V7.522ZM102.898 10.996C102.898 10 103.102 9.118 103.51 8.35C103.93 7.582 104.494 6.988 105.202 6.568C105.922 6.136 106.714 5.92 107.578 5.92C108.358 5.92 109.036 6.076 109.612 6.388C110.2 6.688 110.668 7.066 111.016 7.522V6.082H113.086V16H111.016V14.524C110.668 14.992 110.194 15.382 109.594 15.694C108.994 16.006 108.31 16.162 107.542 16.162C106.69 16.162 105.91 15.946 105.202 15.514C104.494 15.07 103.93 14.458 103.51 13.678C103.102 12.886 102.898 11.992 102.898 10.996ZM111.016 11.032C111.016 10.348 110.872 9.754 110.584 9.25C110.308 8.746 109.942 8.362 109.486 8.098C109.03 7.834 108.538 7.702 108.01 7.702C107.482 7.702 106.99 7.834 106.534 8.098C106.078 8.35 105.706 8.728 105.418 9.232C105.142 9.724 105.004 10.312 105.004 10.996C105.004 11.68 105.142 12.28 105.418 12.796C105.706 13.312 106.078 13.708 106.534 13.984C107.002 14.248 107.494 14.38 108.01 14.38C108.538 14.38 109.03 14.248 109.486 13.984C109.942 13.72 110.308 13.336 110.584 12.832C110.872 12.316 111.016 11.716 111.016 11.032ZM127.788 5.92C128.568 5.92 129.264 6.082 129.876 6.406C130.5 6.73 130.986 7.21 131.334 7.846C131.694 8.482 131.874 9.25 131.874 10.15V16H129.84V10.456C129.84 9.568 129.618 8.89 129.174 8.422C128.73 7.942 128.124 7.702 127.356 7.702C126.588 7.702 125.976 7.942 125.52 8.422C125.076 8.89 124.854 9.568 124.854 10.456V16H122.82V10.456C122.82 9.568 122.598 8.89 122.154 8.422C121.71 7.942 121.104 7.702 120.336 7.702C119.568 7.702 118.956 7.942 118.5 8.422C118.056 8.89 117.834 9.568 117.834 10.456V16H115.782V6.082H117.834V7.216C118.17 6.808 118.596 6.49 119.112 6.262C119.628 6.034 120.18 5.92 120.768 5.92C121.56 5.92 122.268 6.088 122.892 6.424C123.516 6.76 123.996 7.246 124.332 7.882C124.632 7.282 125.1 6.808 125.736 6.46C126.372 6.1 127.056 5.92 127.788 5.92Z" fill="#122672"/>
</svg>