<svg width="107" height="21" viewBox="0 0 107 21" fill="none" xmlns="http://www.w3.org/2000/svg">
<path opacity="0.8" fill-rule="evenodd" clip-rule="evenodd" d="M23.5787 3.32002C24.7114 2.66481 25.5805 1.62588 25.9884 0.388271C24.9279 0.996461 23.756 1.4363 22.5057 1.67442C21.5079 0.643074 20.0819 0 18.5037 0C15.476 0 13.0224 2.37361 13.0224 5.30081C13.0224 5.71638 13.0679 6.12133 13.162 6.50809C8.60632 6.28665 4.56671 4.17846 1.86057 0.969161C1.38837 1.7548 1.11854 2.66481 1.11854 3.63549C1.11854 5.47371 2.08647 7.09656 3.55799 8.04904C2.65908 8.02174 1.81351 7.78059 1.07304 7.38625V7.45147C1.07304 10.0207 2.96185 12.1638 5.47347 12.6491C5.01225 12.7735 4.52906 12.8357 4.02705 12.8357C3.67408 12.8357 3.32895 12.8038 2.99637 12.7417C3.6929 14.8468 5.7182 16.3817 8.11843 16.4226C6.2406 17.8453 3.87645 18.6916 1.30836 18.6916C0.865965 18.6916 0.428276 18.6689 0 18.6188C2.4269 20.1218 5.30875 21 8.40551 21C18.4928 21 24.0054 12.9221 24.0054 5.91658C24.0054 5.68605 24.0023 5.45703 23.9913 5.23104C25.0628 4.48332 25.9947 3.54904 26.7273 2.48584C25.7436 2.90748 24.6863 3.19262 23.5787 3.32002Z" fill="#122672"/>
<path opacity="0.8" d="M55.432 3.49V5.164H52.102V16H50.05V5.164H46.702V3.49H55.432ZM70.8302 6.082L67.7522 16H65.5922L63.5942 8.674L61.5962 16H59.4362L56.3402 6.082H58.4282L60.4982 14.056L62.6042 6.082H64.7462L66.7622 14.02L68.8142 6.082H70.8302ZM73.4077 4.768C73.0357 4.768 72.7237 4.642 72.4717 4.39C72.2197 4.138 72.0937 3.826 72.0937 3.454C72.0937 3.082 72.2197 2.77 72.4717 2.518C72.7237 2.266 73.0357 2.14 73.4077 2.14C73.7677 2.14 74.0737 2.266 74.3257 2.518C74.5777 2.77 74.7037 3.082 74.7037 3.454C74.7037 3.826 74.5777 4.138 74.3257 4.39C74.0737 4.642 73.7677 4.768 73.4077 4.768ZM74.4157 6.082V16H72.3637V6.082H74.4157ZM79.5038 7.756V13.246C79.5038 13.618 79.5878 13.888 79.7558 14.056C79.9358 14.212 80.2358 14.29 80.6558 14.29H81.9158V16H80.2958C79.3718 16 78.6638 15.784 78.1718 15.352C77.6798 14.92 77.4338 14.218 77.4338 13.246V7.756H76.2638V6.082H77.4338V3.616H79.5038V6.082H81.9158V7.756H79.5038ZM86.201 7.756V13.246C86.201 13.618 86.285 13.888 86.453 14.056C86.633 14.212 86.933 14.29 87.353 14.29H88.613V16H86.993C86.069 16 85.361 15.784 84.869 15.352C84.377 14.92 84.131 14.218 84.131 13.246V7.756H82.961V6.082H84.131V3.616H86.201V6.082H88.613V7.756H86.201ZM99.5943 10.798C99.5943 11.17 99.5703 11.506 99.5223 11.806H91.9443C92.0043 12.598 92.2983 13.234 92.8263 13.714C93.3543 14.194 94.0023 14.434 94.7703 14.434C95.8743 14.434 96.6543 13.972 97.1103 13.048H99.3243C99.0243 13.96 98.4783 14.71 97.6863 15.298C96.9063 15.874 95.9343 16.162 94.7703 16.162C93.8223 16.162 92.9703 15.952 92.2143 15.532C91.4703 15.1 90.8823 14.5 90.4503 13.732C90.0303 12.952 89.8203 12.052 89.8203 11.032C89.8203 10.012 90.0243 9.118 90.4323 8.35C90.8523 7.57 91.4343 6.97 92.1783 6.55C92.9343 6.13 93.7983 5.92 94.7703 5.92C95.7063 5.92 96.5403 6.124 97.2723 6.532C98.0043 6.94 98.5743 7.516 98.9823 8.26C99.3903 8.992 99.5943 9.838 99.5943 10.798ZM97.4523 10.15C97.4403 9.394 97.1703 8.788 96.6423 8.332C96.1143 7.876 95.4603 7.648 94.6803 7.648C93.9723 7.648 93.3663 7.876 92.8623 8.332C92.3583 8.776 92.0583 9.382 91.9623 10.15H97.4523ZM103.666 7.522C103.966 7.018 104.362 6.628 104.854 6.352C105.358 6.064 105.952 5.92 106.636 5.92V8.044H106.114C105.31 8.044 104.698 8.248 104.278 8.656C103.87 9.064 103.666 9.772 103.666 10.78V16H101.614V6.082H103.666V7.522Z" fill="#122672"/>
</svg>