<svg width="120" height="24" viewBox="0 0 120 24" fill="none" xmlns="http://www.w3.org/2000/svg">
<path opacity="0.8" fill-rule="evenodd" clip-rule="evenodd" d="M26.6151 21.3064C28.5015 19.9399 29.7072 17.9203 29.7072 15.6745C29.7072 11.5612 25.7003 8.22574 20.7589 8.22574C15.8175 8.22574 11.8106 11.5612 11.8106 15.6745C11.8106 19.789 15.8175 23.1244 20.7589 23.1244C21.7801 23.1244 22.7654 22.9797 23.6802 22.7163L23.9426 22.6767C24.1147 22.6767 24.2706 22.7299 24.4179 22.814L26.3774 23.9444L26.5495 24C26.7141 24 26.8478 23.8664 26.8478 23.702L26.7995 23.4843L26.396 21.9817L26.365 21.7912C26.365 21.5909 26.4641 21.414 26.6151 21.3064ZM10.7382 0C4.80773 0 0 4.002 0 8.94019C0 11.6338 1.44579 14.0589 3.70978 15.6976C3.89174 15.8262 4.01057 16.0389 4.01057 16.2801L3.97344 16.5076L3.48944 18.3108L3.43127 18.5717C3.43127 18.7696 3.59218 18.9304 3.789 18.9304L3.99695 18.8636L6.34759 17.5069C6.52337 17.4055 6.71028 17.3424 6.917 17.3424L7.23264 17.3894C8.32936 17.7048 9.51273 17.8804 10.7382 17.8804L11.3274 17.8655C11.0947 17.168 10.9672 16.4334 10.9672 15.6753C10.9672 11.1725 15.3516 7.52168 20.7597 7.52168L21.3427 7.53652C20.5344 3.26616 16.0943 0 10.7382 0V0ZM17.7764 14.4827C17.1179 14.4827 16.5844 13.9484 16.5844 13.2905C16.5844 12.6313 17.1179 12.0983 17.7764 12.0983C18.4362 12.0983 18.9697 12.6313 18.9697 13.2905C18.9697 13.9484 18.4362 14.4827 17.7764 14.4827ZM23.743 14.4827C23.0832 14.4827 22.5497 13.9484 22.5497 13.2905C22.5497 12.6313 23.0832 12.0983 23.743 12.0983C24.4015 12.0983 24.935 12.6313 24.935 13.2905C24.935 13.9484 24.4015 14.4827 23.743 14.4827ZM7.15906 7.50888C6.36808 7.50888 5.72813 6.86827 5.72813 6.07924C5.72813 5.28898 6.36808 4.64837 7.15906 4.64837C7.95003 4.64837 8.59123 5.28898 8.59123 6.07924C8.59123 6.86827 7.95003 7.50888 7.15906 7.50888ZM14.3169 7.50888C13.5259 7.50888 12.8859 6.86827 12.8859 6.07924C12.8859 5.28898 13.5259 4.64837 14.3169 4.64837C15.1078 4.64837 15.749 5.28898 15.749 6.07924C15.749 6.86827 15.1078 7.50888 14.3169 7.50888Z" fill="#122672"/>
<path opacity="0.8" d="M63.64 5.49L59.932 18H57.61L54.982 8.532L52.192 18L49.888 18.018L46.342 5.49H48.52L51.112 15.678L53.92 5.49H56.224L58.834 15.624L61.444 5.49H63.64ZM74.4224 12.798C74.4224 13.17 74.3984 13.506 74.3504 13.806H66.7724C66.8324 14.598 67.1264 15.234 67.6544 15.714C68.1824 16.194 68.8304 16.434 69.5984 16.434C70.7024 16.434 71.4824 15.972 71.9384 15.048H74.1524C73.8524 15.96 73.3064 16.71 72.5144 17.298C71.7344 17.874 70.7624 18.162 69.5984 18.162C68.6504 18.162 67.7984 17.952 67.0424 17.532C66.2984 17.1 65.7104 16.5 65.2784 15.732C64.8584 14.952 64.6484 14.052 64.6484 13.032C64.6484 12.012 64.8524 11.118 65.2604 10.35C65.6804 9.57 66.2624 8.97 67.0064 8.55C67.7624 8.13 68.6264 7.92 69.5984 7.92C70.5344 7.92 71.3684 8.124 72.1004 8.532C72.8324 8.94 73.4024 9.516 73.8104 10.26C74.2184 10.992 74.4224 11.838 74.4224 12.798ZM72.2804 12.15C72.2684 11.394 71.9984 10.788 71.4704 10.332C70.9424 9.876 70.2884 9.648 69.5084 9.648C68.8004 9.648 68.1944 9.876 67.6904 10.332C67.1864 10.776 66.8864 11.382 66.7904 12.15H72.2804ZM75.7578 11.718C75.7578 10.494 76.0398 9.396 76.6038 8.424C77.1798 7.452 77.9538 6.696 78.9258 6.156C79.9098 5.604 80.9838 5.328 82.1478 5.328C83.4798 5.328 84.6618 5.658 85.6938 6.318C86.7378 6.966 87.4938 7.89 87.9618 9.09H85.4958C85.1718 8.43 84.7218 7.938 84.1458 7.614C83.5698 7.29 82.9038 7.128 82.1478 7.128C81.3198 7.128 80.5818 7.314 79.9338 7.686C79.2858 8.058 78.7758 8.592 78.4038 9.288C78.0438 9.984 77.8638 10.794 77.8638 11.718C77.8638 12.642 78.0438 13.452 78.4038 14.148C78.7758 14.844 79.2858 15.384 79.9338 15.768C80.5818 16.14 81.3198 16.326 82.1478 16.326C82.9038 16.326 83.5698 16.164 84.1458 15.84C84.7218 15.516 85.1718 15.024 85.4958 14.364H87.9618C87.4938 15.564 86.7378 16.488 85.6938 17.136C84.6618 17.784 83.4798 18.108 82.1478 18.108C80.9718 18.108 79.8978 17.838 78.9258 17.298C77.9538 16.746 77.1798 15.984 76.6038 15.012C76.0398 14.04 75.7578 12.942 75.7578 11.718ZM95.4937 7.92C96.2497 7.92 96.9217 8.082 97.5097 8.406C98.1097 8.73 98.5777 9.21 98.9137 9.846C99.2617 10.482 99.4357 11.25 99.4357 12.15V18H97.4017V12.456C97.4017 11.568 97.1797 10.89 96.7357 10.422C96.2917 9.942 95.6857 9.702 94.9177 9.702C94.1497 9.702 93.5377 9.942 93.0817 10.422C92.6377 10.89 92.4157 11.568 92.4157 12.456V18H90.3637V4.68H92.4157V9.234C92.7637 8.814 93.2017 8.49 93.7297 8.262C94.2697 8.034 94.8577 7.92 95.4937 7.92ZM101.369 12.996C101.369 12 101.573 11.118 101.981 10.35C102.401 9.582 102.965 8.988 103.673 8.568C104.393 8.136 105.185 7.92 106.049 7.92C106.829 7.92 107.507 8.076 108.083 8.388C108.671 8.688 109.139 9.066 109.487 9.522V8.082H111.557V18H109.487V16.524C109.139 16.992 108.665 17.382 108.065 17.694C107.465 18.006 106.781 18.162 106.013 18.162C105.161 18.162 104.381 17.946 103.673 17.514C102.965 17.07 102.401 16.458 101.981 15.678C101.573 14.886 101.369 13.992 101.369 12.996ZM109.487 13.032C109.487 12.348 109.343 11.754 109.055 11.25C108.779 10.746 108.413 10.362 107.957 10.098C107.501 9.834 107.009 9.702 106.481 9.702C105.953 9.702 105.461 9.834 105.005 10.098C104.549 10.35 104.177 10.728 103.889 11.232C103.613 11.724 103.475 12.312 103.475 12.996C103.475 13.68 103.613 14.28 103.889 14.796C104.177 15.312 104.549 15.708 105.005 15.984C105.473 16.248 105.965 16.38 106.481 16.38C107.009 16.38 107.501 16.248 107.957 15.984C108.413 15.72 108.779 15.336 109.055 14.832C109.343 14.316 109.487 13.716 109.487 13.032ZM116.646 9.756V15.246C116.646 15.618 116.73 15.888 116.898 16.056C117.078 16.212 117.378 16.29 117.798 16.29H119.058V18H117.438C116.514 18 115.806 17.784 115.314 17.352C114.822 16.92 114.576 16.218 114.576 15.246V9.756H113.406V8.082H114.576V5.616H116.646V8.082H119.058V9.756H116.646Z" fill="#122672"/>
</svg>